<svg width="116" height="116" viewBox="0 0 116 116" fill="none" xmlns="http://www.w3.org/2000/svg">
<rect width="116" height="116" rx="20" fill="#5236FF"/>
<mask id="mask0_1611_663" style="mask-type:alpha" maskUnits="userSpaceOnUse" x="0" y="0" width="115" height="116">
<rect width="114.804" height="116" rx="20" fill="#5236FF"/>
</mask>
<g mask="url(#mask0_1611_663)">
</g>
<g opacity="0.2" filter="url(#filter0_d_1611_663)">
<path d="M62.8438 86.2812V76.9062C62.8438 69.1406 69.1406 62.8438 76.9062 62.8438H86.2812C83.9375 69.875 69.875 83.9375 62.8438 86.2812Z" fill="#5236FF"/>
</g>
<g filter="url(#filter1_d_1611_663)">
<path d="M62.8438 86.2812H48.7812C41.0156 86.2812 34.7188 79.9844 34.7188 72.2188V48.7812C34.7188 41.0156 41.0156 34.7188 48.7812 34.7188H72.2188C79.9844 34.7188 86.2812 41.0156 86.2812 48.7812V62.8438C83.9375 69.875 69.875 83.9375 62.8438 86.2812Z" stroke="white" stroke-width="1.5" stroke-linecap="round" stroke-linejoin="round" shape-rendering="crispEdges"/>
</g>
<path d="M62.8438 86.2812V76.9062C62.8438 69.1406 69.1406 62.8438 76.9062 62.8438H86.2812" stroke="white" stroke-width="1.5" stroke-linecap="round" stroke-linejoin="round"/>
<defs>
<filter id="filter0_d_1611_663" x="58.8438" y="62.8438" width="31.4375" height="31.4375" filterUnits="userSpaceOnUse" color-interpolation-filters="sRGB">
<feFlood flood-opacity="0" result="BackgroundImageFix"/>
<feColorMatrix in="SourceAlpha" type="matrix" values="0 0 0 0 0 0 0 0 0 0 0 0 0 0 0 0 0 0 127 0" result="hardAlpha"/>
<feOffset dy="4"/>
<feGaussianBlur stdDeviation="2"/>
<feComposite in2="hardAlpha" operator="out"/>
<feColorMatrix type="matrix" values="0 0 0 0 0 0 0 0 0 0 0 0 0 0 0 0 0 0 0.25 0"/>
<feBlend mode="normal" in2="BackgroundImageFix" result="effect1_dropShadow_1611_663"/>
<feBlend mode="normal" in="SourceGraphic" in2="effect1_dropShadow_1611_663" result="shape"/>
</filter>
<filter id="filter1_d_1611_663" x="29.9688" y="33.9688" width="61.0625" height="61.0625" filterUnits="userSpaceOnUse" color-interpolation-filters="sRGB">
<feFlood flood-opacity="0" result="BackgroundImageFix"/>
<feColorMatrix in="SourceAlpha" type="matrix" values="0 0 0 0 0 0 0 0 0 0 0 0 0 0 0 0 0 0 127 0" result="hardAlpha"/>
<feOffset dy="4"/>
<feGaussianBlur stdDeviation="2"/>
<feComposite in2="hardAlpha" operator="out"/>
<feColorMatrix type="matrix" values="0 0 0 0 0 0 0 0 0 0 0 0 0 0 0 0 0 0 0.25 0"/>
<feBlend mode="normal" in2="BackgroundImageFix" result="effect1_dropShadow_1611_663"/>
<feBlend mode="normal" in="SourceGraphic" in2="effect1_dropShadow_1611_663" result="shape"/>
</filter>
</defs>
</svg>
