<svg width="155" height="155" viewBox="0 0 155 155" fill="none" xmlns="http://www.w3.org/2000/svg">
<rect width="153.834" height="153.834" transform="translate(0.341797 0.668457)" fill="white"/>
<path d="M124.49 77.3254L123.704 77.6316L122.934 80.6561L126.569 78.4604L128.852 82.0957L130.291 78.5477C127.878 78.9541 125.944 78.5469 124.49 77.3254Z" fill="#EFECFF"/>
<path d="M69.0442 105.448C68.7572 105.788 68.4006 106.06 67.9973 106.248C67.9536 107.251 67.6774 109.883 65.7725 110.145H72.2142C71.5067 108.37 70.4255 106.768 69.0442 105.448Z" fill="#EFECFF"/>
<path d="M115.838 105.463C116.027 106.282 116.32 107.074 116.71 107.818L124.883 108.255C121.793 107.585 118.767 106.651 115.838 105.463Z" fill="#EFECFF"/>
<path d="M127.848 47.8651C124.881 43.5609 128.299 37.9158 133.912 37.9771C137.823 38.0191 140.964 40.9435 140.935 44.5206C140.906 48.0977 137.692 50.9493 133.781 50.9187C132.321 50.9125 130.895 50.4776 129.68 49.6682L126.685 50.8315L127.848 47.8651Z" fill="#EFECFF"/>
<path d="M26.0595 88.4531C26.0912 89.2454 25.8075 90.0179 25.2705 90.6012C24.7335 91.1845 23.9871 91.5311 23.1949 91.5649C22.4144 91.4997 21.6868 91.1436 21.1564 90.5673C20.626 89.9909 20.3314 89.2364 20.3311 88.4531C20.3309 87.6697 20.6253 86.9149 21.1558 86.3384C21.6863 85.7619 22.4142 85.406 23.1949 85.3413C23.9871 85.3751 24.7335 85.7217 25.2705 86.305C25.8075 86.8884 26.0912 87.6609 26.0595 88.4531Z" fill="#EFECFF"/>
<path d="M24.9266 84.029C24.4709 84.3705 23.9094 84.5405 23.3408 84.5089C23.3969 83.9419 23.6489 83.4123 24.0533 83.0111C24.5099 82.672 25.0703 82.5023 25.6383 82.5313C25.5825 83.0981 25.3308 83.6277 24.9266 84.029Z" fill="#EFECFF"/>
<path d="M90.9288 83.0111C91.3842 82.6698 91.9454 82.4999 92.5137 82.5313C92.5062 82.8165 92.4391 83.097 92.3167 83.3548C92.1944 83.6125 92.0195 83.8418 91.8033 84.0281C91.5871 84.2143 91.3344 84.3532 91.0613 84.436C90.7883 84.5188 90.501 84.5436 90.2178 84.5089C90.2785 83.9436 90.5291 83.4156 90.9288 83.0111Z" fill="#EFECFF"/>
<path d="M90.0852 91.547C89.4588 91.5993 88.8312 91.4611 88.2847 91.1505C87.7381 90.84 87.2982 90.3715 87.0224 89.8066C86.7457 89.2421 86.6461 88.6072 86.7366 87.9851C86.8272 87.363 87.1037 86.7828 87.5298 86.3206C87.8479 85.9745 88.24 85.7048 88.6769 85.5315C89.1138 85.3581 89.5842 85.2857 90.053 85.3197C90.5217 85.3536 90.9768 85.4929 91.3842 85.7274C91.7916 85.9618 92.1408 86.2851 92.4057 86.6734C92.7601 87.1923 92.9499 87.8068 92.9499 88.4352C92.981 89.2272 92.697 89.9994 92.1601 90.5826C91.6233 91.1658 90.8772 91.5126 90.0852 91.547Z" fill="#EFECFF"/>
<path d="M102.954 128.627C102.994 128.726 103.01 128.834 103.001 128.94C102.992 129.047 102.958 129.15 102.901 129.241C102.844 129.332 102.767 129.408 102.675 129.463C102.583 129.518 102.479 129.55 102.372 129.558C98.3239 130.266 94.1934 130.374 90.1138 129.877C89.9752 129.886 89.8372 129.852 89.7188 129.78C89.6004 129.707 89.5074 129.599 89.4526 129.472C89.3983 129.344 89.3852 129.202 89.4151 129.066C89.445 128.931 89.5164 128.808 89.6194 128.714L99.2625 121.255C99.3806 121.145 99.5344 121.082 99.6953 121.078C99.8562 121.073 100.013 121.127 100.137 121.23C100.219 121.298 100.283 121.385 100.324 121.484L101.215 123.645C99.2327 125.173 97.1524 126.569 94.9874 127.824C97.3807 127.229 99.7054 126.386 101.924 125.308L102.954 128.627Z" fill="#EFECFF"/>
<path d="M56.6841 66.2158C55.1281 65.8377 53.6273 67.1173 52.8574 68.6878C52.8933 68.9351 52.9973 69.1676 53.1578 69.3591C53.3183 69.5507 53.5291 69.6937 53.7663 69.7722C54.0036 69.8507 54.2581 69.8616 54.5012 69.8036C54.7443 69.7456 54.9664 69.6211 55.1427 69.4439C55.2035 69.6215 55.299 69.7851 55.4236 69.9254C55.5483 70.0656 55.6996 70.1797 55.8687 70.2609C56.0379 70.3421 56.2216 70.3888 56.409 70.3984C56.5964 70.4079 56.7838 70.38 56.9603 70.3164C57.291 69.7156 58.0149 68.9847 58.6762 69.1386L59.316 69.2985C59.2843 68.5646 59.0079 67.8625 58.531 67.3038C58.054 66.7452 57.4039 66.3622 56.6841 66.2158Z" fill="#5236FF"/>
<path d="M53.1413 68.6467C53.1289 68.5727 53.088 68.5065 53.0273 68.4623C52.9667 68.4181 52.8912 68.3994 52.8169 68.4102C52.7427 68.421 52.6756 68.4605 52.6301 68.5201C52.5846 68.5798 52.5643 68.6548 52.5734 68.7293L53.1413 68.6467ZM55.1426 69.4441L55.4143 69.3515C55.3986 69.3054 55.3713 69.264 55.3352 69.2314C55.299 69.1987 55.2551 69.1757 55.2077 69.1647C55.1602 69.1537 55.1107 69.1549 55.0638 69.1683C55.017 69.1817 54.9743 69.2068 54.9398 69.2413L55.1426 69.4441ZM56.9603 70.3166L57.0575 70.5868C57.1233 70.5632 57.1783 70.5164 57.2121 70.4551L56.9603 70.3166ZM58.6761 69.1388L58.7458 68.8602L58.7412 68.8594L58.6761 69.1388ZM59.2463 69.5773C59.2829 69.5864 59.3209 69.5883 59.3582 69.5827C59.3955 69.5772 59.4314 69.5643 59.4637 69.5449C59.496 69.5255 59.5242 69.5 59.5467 69.4697C59.5691 69.4394 59.5854 69.4049 59.5945 69.3684C59.6037 69.3318 59.6055 69.2937 59.6 69.2564C59.5944 69.2191 59.5816 69.1833 59.5622 69.151C59.5428 69.1186 59.5172 69.0904 59.4869 69.068C59.4566 69.0455 59.4222 69.0293 59.3856 69.0201L59.2463 69.5773ZM52.5727 68.7293C52.6171 69.0293 52.7433 69.311 52.9377 69.5436L53.3778 69.1747C53.2515 69.0241 53.1696 68.8412 53.1413 68.6467L52.5734 68.7293H52.5727ZM52.9377 69.5436C53.1329 69.7763 53.3885 69.9492 53.6763 70.0449L53.8561 69.5C53.6696 69.4381 53.5039 69.3255 53.3778 69.1747L52.9377 69.5436ZM53.6763 70.0449C53.964 70.1398 54.2732 70.1536 54.5679 70.0832L54.4347 69.5245C54.2434 69.5704 54.0429 69.562 53.8561 69.5L53.6763 70.0449ZM54.5679 70.0832C54.8625 70.0128 55.1319 69.8612 55.3462 69.6469L54.9391 69.2413C54.8004 69.3809 54.6254 69.479 54.4339 69.5245L54.5679 70.0832ZM54.8709 69.5367C54.9444 69.751 55.0592 69.9477 55.2092 70.1161L55.6378 69.7349C55.5385 69.623 55.4626 69.4924 55.4143 69.3508L54.8709 69.5367ZM55.2092 70.1161C55.3592 70.2845 55.5406 70.4222 55.7449 70.5202L55.9929 70.002C55.858 69.9375 55.7373 69.8467 55.6378 69.7349L55.2092 70.1161ZM55.7449 70.5202C55.9478 70.6174 56.1689 70.6732 56.3947 70.6855L56.4238 70.1115C56.2743 70.1039 56.1279 70.0667 55.9929 70.002L55.7442 70.5202H55.7449ZM56.3947 70.6855C56.6197 70.697 56.8455 70.6625 57.0575 70.586L56.8631 70.0464C56.7225 70.0973 56.5731 70.1197 56.4238 70.1123L56.3947 70.6855ZM57.2121 70.4551C57.3605 70.1834 57.6009 69.8827 57.871 69.6707C58.1481 69.4541 58.4052 69.3707 58.6111 69.4181L58.7412 68.8594C58.2858 68.753 57.8504 68.9589 57.5167 69.2191C57.1878 69.4835 56.9134 69.8092 56.7085 70.1781L57.2113 70.4551H57.2121ZM58.6065 69.4173L59.2463 69.5773L59.3856 69.0201L58.7458 68.8602L58.6065 69.4173Z" fill="#242331"/>
<path d="M73.8716 68.6443C74.3219 68.3911 74.6864 68.0092 74.9183 67.5476C75.1501 67.0859 75.2389 66.5656 75.1731 66.0532C75.1073 65.5407 74.89 65.0597 74.5491 64.6715C74.2081 64.2834 73.759 64.006 73.2593 63.8748C73.026 63.818 72.7869 63.7887 72.5468 63.7875C72.9044 63.3397 73.1038 62.7861 73.1139 62.2131C73.124 61.6401 72.9442 61.0799 72.6027 60.6197C72.2611 60.1595 71.7769 59.8252 71.2256 59.669C70.6742 59.5127 70.0866 59.5432 69.5544 59.7558C69.7567 59.1943 69.759 58.5803 69.561 58.0173C69.3629 57.4543 68.9766 56.977 68.4673 56.6659C67.958 56.3548 67.3569 56.229 66.7657 56.3098C66.1744 56.3906 65.6291 56.673 65.2219 57.1093C65.2695 56.5016 65.1015 55.8966 64.7474 55.4004C64.3934 54.9043 63.8758 54.5487 63.2856 54.3962L63.1111 54.3526C62.5017 54.1938 61.8554 54.2627 61.2932 54.5465C60.731 54.8303 60.2916 55.3094 60.0575 55.894C59.8923 55.3196 59.5335 54.8201 59.042 54.48C58.5505 54.14 57.9566 53.9804 57.3608 54.0284C56.7651 54.0763 56.2043 54.3288 55.7735 54.743C55.3427 55.1573 55.0684 55.7077 54.9971 56.3011C54.6852 55.9494 54.2834 55.6891 53.8349 55.5483C53.3863 55.4075 52.9079 55.3913 52.4509 55.5017C51.9938 55.612 51.5755 55.8447 51.2406 56.1746C50.9057 56.5046 50.6669 56.9195 50.5498 57.3749C50.4534 57.7605 50.4435 58.1627 50.5208 58.5527C50.0937 58.3188 49.6091 58.2106 49.1231 58.2406C48.6371 58.2706 48.1695 58.4375 47.7744 58.7221C47.3793 59.0067 47.0729 59.3974 46.8905 59.8489C46.7081 60.3004 46.6573 60.7943 46.7439 61.2734C46.8059 61.637 46.9429 61.9829 47.1472 62.2898C46.5446 62.1691 45.9187 62.2669 45.3816 62.5656C44.8445 62.8644 44.4314 63.3447 44.2161 63.9203C44.0009 64.496 43.9977 65.1295 44.207 65.7073C44.4164 66.2852 44.8246 66.7696 45.3586 67.0738C44.7454 67.1103 44.165 67.3633 43.7208 67.7877C43.2766 68.2121 42.9975 68.7804 42.9332 69.3914C42.8689 70.0024 43.0235 70.6164 43.3696 71.124C43.7157 71.6316 44.2307 71.9999 44.8229 72.1632C44.3765 72.4212 44.0168 72.8059 43.7894 73.2687C43.562 73.7314 43.4772 74.2512 43.5458 74.7622C43.6143 75.2732 43.8331 75.7523 44.1744 76.1388C44.5157 76.5252 44.9641 76.8016 45.4627 76.9327C45.7007 76.9894 45.9449 77.0185 46.1898 77.02C45.8649 77.4338 45.673 77.9363 45.6392 78.4613C45.6055 78.9863 45.7315 79.5092 46.0008 79.9611C46.1791 80.2611 46.4171 80.5214 46.6987 80.728C47.5306 80.3292 48.3744 79.9558 49.2289 79.6083C50.7703 78.983 53.0555 79.0726 53.8208 78.8813C54.1025 78.8003 54.3611 78.6542 54.5759 78.4548C54.7906 78.2554 54.9554 78.0082 55.0568 77.7333C55.7388 77.1616 56.3062 76.4659 56.7291 75.683C52.9537 77.5129 51.2088 76.6886 51.6818 73.2546C51.6328 73.2446 50.5016 72.9898 50.9999 70.2446C51.0566 69.7313 51.2574 69.2446 51.579 68.8406C51.9007 68.4366 52.33 68.1319 52.8175 67.9616C53.7359 66.5366 55.2459 65.4896 56.7727 65.8677C57.5857 66.0385 58.317 66.4793 58.8477 67.1185C59.3783 67.7577 59.6771 68.5576 59.6955 69.3882L60.5373 69.5917C61.3371 69.7808 61.6853 71.1622 61.3226 72.6454C60.959 74.1431 60.0139 75.1909 59.2141 75.0011L57.8472 74.6773C57.6436 77.6001 57.9054 80.1303 62.3695 81.439C63.8083 81.8607 65.2341 82.9658 66.2666 85.2342C66.8991 85.0608 67.4419 84.6533 67.7849 84.0942C68.1279 83.5352 68.2453 82.8666 68.1133 82.2242C68.6227 82.5032 69.2111 82.6027 69.7839 82.5067C70.3567 82.4106 70.8806 82.1246 71.271 81.6946C71.6619 81.2653 71.897 80.717 71.9386 80.1379C71.9803 79.5588 71.826 78.9825 71.5006 78.5017C71.9504 78.5931 72.4165 78.5634 72.8511 78.4156C73.2857 78.2679 73.6732 78.0074 73.9742 77.6608C74.2751 77.3142 74.4786 76.8939 74.5638 76.4428C74.6491 75.9918 74.613 75.5262 74.4594 75.0937C74.2543 74.5144 73.8502 74.0267 73.319 73.7176C73.9313 73.6841 74.5118 73.4341 74.9569 73.0123C75.402 72.5905 75.6827 72.0243 75.7491 71.4147C75.8155 70.8051 75.6632 70.1917 75.3193 69.684C74.9754 69.1763 74.4623 68.8073 73.8716 68.6427V68.6443Z" fill="#5236FF"/>
<path d="M148.642 110.145H5.87684C5.69928 110.139 5.52232 110.169 5.3565 110.232C5.19069 110.296 5.0394 110.393 4.91166 110.516C4.78392 110.64 4.68233 110.787 4.61295 110.951C4.54357 111.115 4.50781 111.29 4.50781 111.468C4.50781 111.646 4.54357 111.822 4.61295 111.985C4.68233 112.149 4.78392 112.297 4.91166 112.42C5.0394 112.544 5.19069 112.64 5.3565 112.704C5.52232 112.768 5.69928 112.797 5.87684 112.791H148.642C148.993 112.791 149.329 112.651 149.577 112.403C149.825 112.155 149.965 111.819 149.965 111.468C149.965 111.117 149.825 110.781 149.577 110.533C149.329 110.285 148.993 110.145 148.642 110.145Z" fill="#5236FF"/>
<path d="M132.297 68.2228C132.358 67.4989 132.182 66.7748 131.797 66.1587C131.412 65.5428 130.837 65.0681 130.16 64.8056C129.58 64.5075 128.909 64.4393 128.28 64.6145C127.652 64.7897 127.114 65.1955 126.772 65.7508C126.699 65.8962 126.597 66.0852 126.626 66.0416C128.181 66.4994 129.68 67.1318 131.093 67.9266C131.501 67.8371 131.807 68.0299 132.297 68.2228Z" fill="#5236FF"/>
<path d="M135.439 67.7571C135.279 67.7385 135.117 67.7434 134.959 67.7716C135.106 67.6278 135.222 67.4542 135.297 67.2622C135.373 67.0703 135.407 66.8645 135.397 66.6586C135.386 66.4526 135.332 66.2511 135.238 66.0676C135.144 65.8841 135.012 65.7227 134.851 65.5943C134.635 65.4223 134.375 65.3151 134.101 65.2851C133.807 65.244 133.507 65.2948 133.243 65.4305C133.389 65.2407 133.479 65.0141 133.505 64.7761C133.546 64.3885 133.431 64.0004 133.186 63.697C133.065 63.5469 132.914 63.4224 132.744 63.3306C132.574 63.2387 132.388 63.1815 132.196 63.1621C131.891 63.1245 131.582 63.1803 131.309 63.322C131.497 63.0039 131.558 62.6264 131.479 62.2654C131.399 61.9044 131.186 61.5868 130.883 61.3765C130.681 61.2376 130.447 61.1515 130.204 61.1263C129.948 61.0981 129.689 61.1339 129.451 61.2303C129.212 61.3267 129.001 61.4809 128.837 61.6789L127.368 64.5871C127.809 64.3317 128.306 64.1876 128.815 64.1673C129.324 64.147 129.831 64.2512 130.291 64.4708C131.047 64.7782 131.683 65.3231 132.103 66.0234C132.522 66.7237 132.703 67.5414 132.618 68.3533L133.345 68.6441C133.97 68.8913 134.186 69.8686 133.926 70.9852C134.446 70.831 134.975 70.7144 135.511 70.6362C135.825 70.5923 136.115 70.4458 136.336 70.2195C136.558 69.9933 136.698 69.7001 136.736 69.3857C136.76 69.1932 136.745 68.9979 136.692 68.8113C136.639 68.6246 136.55 68.4504 136.429 68.2989C136.308 68.1475 136.158 68.0217 135.988 67.9287C135.818 67.8357 135.631 67.7773 135.439 67.7571Z" fill="#5236FF"/>
<path d="M125.245 72.4685C125.196 72.5923 125.184 72.7278 125.212 72.858C125.24 72.9882 125.307 73.107 125.403 73.1994C125.474 73.2694 125.56 73.3226 125.654 73.3552C125.749 73.3877 125.85 73.3989 125.949 73.3878C126.048 73.3766 126.144 73.3436 126.229 73.2909C126.314 73.2382 126.386 73.1673 126.44 73.0833C126.494 72.9993 126.529 72.9043 126.542 72.8052C126.555 72.7061 126.545 72.6053 126.514 72.5103C126.484 72.4152 126.432 72.3282 126.363 72.2556C126.295 72.183 126.211 72.1266 126.117 72.0905C125.951 72.0275 125.767 72.0318 125.604 72.1024C125.441 72.173 125.312 72.3043 125.245 72.4685Z" fill="#5236FF"/>
<path d="M130.175 45.2624C130.394 45.2624 130.605 45.1751 130.761 45.0197C130.916 44.8642 131.003 44.6534 131.003 44.4336C131.003 44.2138 130.916 44.0029 130.761 43.8475C130.605 43.6921 130.394 43.6047 130.175 43.6047C129.955 43.6047 129.744 43.6921 129.588 43.8475C129.433 44.0029 129.346 44.2138 129.346 44.4336C129.346 44.6534 129.433 44.8642 129.588 45.0197C129.744 45.1751 129.955 45.2624 130.175 45.2624Z" fill="#5236FF"/>
<path d="M133.81 45.2624C134.03 45.2624 134.241 45.1751 134.396 45.0197C134.552 44.8642 134.639 44.6534 134.639 44.4336C134.639 44.2138 134.552 44.0029 134.396 43.8475C134.241 43.6921 134.03 43.6047 133.81 43.6047C133.59 43.6047 133.38 43.6921 133.224 43.8475C133.069 44.0029 132.981 44.2138 132.981 44.4336C132.981 44.6534 133.069 44.8642 133.224 45.0197C133.38 45.1751 133.59 45.2624 133.81 45.2624Z" fill="#5236FF"/>
<path d="M137.445 45.2624C137.665 45.2624 137.876 45.1751 138.031 45.0197C138.187 44.8642 138.274 44.6534 138.274 44.4336C138.274 44.2138 138.187 44.0029 138.031 43.8475C137.876 43.6921 137.665 43.6047 137.445 43.6047C137.225 43.6047 137.014 43.6921 136.859 43.8475C136.704 44.0029 136.616 44.2138 136.616 44.4336C136.616 44.6534 136.704 44.8642 136.859 45.0197C137.014 45.1751 137.225 45.2624 137.445 45.2624Z" fill="#5236FF"/>
<path d="M56.1167 88.1149C56.0436 88.1801 55.9526 88.2219 55.8555 88.235C55.7584 88.2481 55.6596 88.2318 55.5718 88.1883C55.5133 88.1601 55.461 88.1204 55.418 88.0717C55.375 88.0229 55.3422 87.966 55.3215 87.9044C55.2926 87.8197 55.2871 87.7288 55.3058 87.6412C55.3245 87.5537 55.3666 87.4729 55.4276 87.4074C55.4886 87.3419 55.5662 87.2942 55.6522 87.2694C55.7382 87.2446 55.8293 87.2436 55.9158 87.2665C56.0023 87.2894 56.081 87.3353 56.1435 87.3994C56.2059 87.4635 56.2498 87.5434 56.2704 87.6305C56.291 87.7176 56.2876 87.8086 56.2606 87.8939C56.2335 87.9793 56.1838 88.0556 56.1167 88.1149Z" fill="#5236FF"/>
<path d="M118.236 103.47C118.163 103.536 118.072 103.578 117.975 103.591C117.878 103.604 117.779 103.587 117.691 103.544C117.633 103.516 117.58 103.476 117.537 103.427C117.494 103.379 117.462 103.322 117.441 103.26C117.42 103.199 117.411 103.133 117.415 103.069C117.419 103.004 117.436 102.94 117.465 102.882C117.493 102.823 117.533 102.771 117.581 102.728C117.63 102.685 117.687 102.652 117.749 102.632C117.81 102.61 117.875 102.602 117.94 102.606C118.005 102.61 118.068 102.627 118.126 102.655C118.185 102.684 118.237 102.723 118.28 102.772C118.345 102.846 118.387 102.937 118.4 103.034C118.413 103.131 118.397 103.23 118.353 103.317C118.325 103.376 118.285 103.428 118.236 103.47Z" fill="#5236FF"/>
<path d="M104.495 56.0662C104.396 56.1524 104.268 56.1964 104.137 56.1887C104.023 56.1813 103.915 56.1348 103.832 56.0568C103.748 55.9789 103.694 55.8745 103.679 55.7613C103.664 55.6482 103.689 55.5333 103.749 55.4362C103.809 55.3391 103.901 55.2659 104.009 55.2289C104.117 55.192 104.234 55.1937 104.341 55.2336C104.448 55.2736 104.538 55.3494 104.595 55.4481C104.653 55.5468 104.674 55.6624 104.656 55.7751C104.637 55.8878 104.581 55.9907 104.495 56.0662Z" fill="#5236FF"/>
<path d="M50.4603 93.1314C50.3871 93.1966 50.2962 93.2384 50.1991 93.2515C50.102 93.2646 50.0032 93.2484 49.9154 93.2049C49.8568 93.1767 49.8045 93.137 49.7615 93.0883C49.7185 93.0395 49.6857 92.9826 49.6651 92.921C49.6362 92.8363 49.6309 92.7454 49.6496 92.658C49.6684 92.5705 49.7105 92.4898 49.7715 92.4243C49.8325 92.3589 49.9101 92.3113 49.996 92.2865C50.0819 92.2617 50.173 92.2607 50.2595 92.2835C50.3459 92.3064 50.4246 92.3523 50.487 92.4163C50.5495 92.4804 50.5934 92.5601 50.6141 92.6471C50.6348 92.7342 50.6314 92.8252 50.6045 92.9104C50.5776 92.9957 50.528 93.0721 50.461 93.1314H50.4603Z" fill="#5236FF"/>
<path d="M55.7542 98.5846C55.6811 98.6498 55.5901 98.6916 55.493 98.7047C55.3959 98.7178 55.2971 98.7015 55.2093 98.658C55.1508 98.6298 55.0984 98.5902 55.0555 98.5414C55.0125 98.4926 54.9797 98.4357 54.9591 98.3741C54.9302 98.2894 54.9248 98.1985 54.9436 98.1111C54.9623 98.0236 55.0044 97.9429 55.0654 97.8775C55.1264 97.812 55.204 97.7644 55.2899 97.7396C55.3759 97.7148 55.4669 97.7138 55.5534 97.7366C55.6399 97.7595 55.7185 97.8054 55.781 97.8694C55.8434 97.9335 55.8873 98.0132 55.908 98.1003C55.9287 98.1873 55.9254 98.2783 55.8984 98.3636C55.8715 98.4489 55.8219 98.5252 55.755 98.5846H55.7542Z" fill="#5236FF"/>
<path d="M47.5078 86.8792L44.8613 92.0122L46.8389 91.2415C46.6978 89.7544 46.9277 88.2556 47.5078 86.8792Z" fill="#5236FF"/>
<path d="M111.623 87.0678C113.02 87.5223 114.442 87.8913 115.884 88.1729C116.072 87.1617 116.35 86.1691 116.712 85.2065L111.623 87.0678Z" fill="#5236FF"/>
<path d="M52.8302 74.577C52.8076 74.6645 52.8027 74.7556 52.8156 74.845C52.8286 74.9344 52.8592 75.0203 52.9057 75.0978C52.9522 75.1753 53.0136 75.2427 53.0864 75.2962C53.1592 75.3497 53.2419 75.3882 53.3298 75.4094C53.4176 75.4306 53.5087 75.4341 53.5979 75.4198C53.6871 75.4054 53.7726 75.3735 53.8493 75.3258C53.9261 75.2781 53.9925 75.2156 54.0449 75.142C54.0972 75.0683 54.1344 74.985 54.1542 74.8969C54.1935 74.7225 54.1626 74.5396 54.0682 74.3877C53.9738 74.2359 53.8235 74.1272 53.6497 74.0852C53.4759 74.0432 53.2926 74.0713 53.1392 74.1633C52.9859 74.2553 52.8749 74.4039 52.8302 74.577Z" fill="#5236FF"/>
<path d="M38.4487 75.5806H37.4453C38.1472 75.5806 38.8204 75.8594 39.3167 76.3557C39.813 76.852 40.0918 77.5252 40.0918 78.2271V97.3923C40.0919 97.7399 40.0235 98.0841 39.8906 98.4052C39.7576 98.7264 39.5627 99.0181 39.3169 99.2639C39.0711 99.5097 38.7793 99.7046 38.4582 99.8376C38.1371 99.9705 37.7929 100.039 37.4453 100.039H38.4487C38.7963 100.039 39.1405 99.9707 39.4617 99.8378C39.7828 99.7049 40.0747 99.5099 40.3205 99.2641C40.5662 99.0183 40.7612 98.7265 40.8941 98.4053C41.027 98.0842 41.0953 97.7399 41.0951 97.3923V78.2271C41.0951 77.5252 40.8163 76.852 40.32 76.3557C39.8237 75.8594 39.1505 75.5806 38.4487 75.5806Z" fill="#5236FF"/>
<path d="M31.4979 109.287H29.5348C29.2209 109.288 28.9175 109.173 28.6837 108.964C28.45 108.754 28.3024 108.465 28.2698 108.153L27.4279 100.04H26.4414L27.5465 110.146H32.3604C32.3576 109.919 32.2658 109.701 32.1045 109.541C31.9433 109.38 31.7255 109.289 31.4979 109.287Z" fill="#5236FF"/>
<path d="M99.2455 110.145H94.4324L93.3311 100.039H94.3199L95.1617 108.151C95.1944 108.463 95.3419 108.752 95.5757 108.962C95.8095 109.172 96.1128 109.287 96.4268 109.285H98.3899C98.6164 109.289 98.8326 109.38 98.9925 109.541C99.1523 109.701 99.2431 109.918 99.2455 110.145Z" fill="#5236FF"/>
<path d="M105.527 99.7627C105.161 99.9428 104.758 100.037 104.35 100.039C105.03 100.103 105.717 100.033 106.371 99.8354L105.527 99.7627Z" fill="#5236FF"/>
<path d="M105.338 75.5806H104.335C104.683 75.5794 105.028 75.647 105.349 75.7796C105.671 75.9121 105.963 76.107 106.209 76.353C106.455 76.599 106.65 76.8912 106.782 77.2129C106.915 77.5345 106.983 77.8792 106.981 78.2271V94.9349C107.288 94.8913 107.621 94.8767 107.985 94.8476V78.2271C107.985 77.8795 107.917 77.5353 107.784 77.2141C107.651 76.8929 107.456 76.6011 107.21 76.3553C106.964 76.1095 106.672 75.9146 106.351 75.7816C106.03 75.6487 105.686 75.5804 105.338 75.5806Z" fill="#5236FF"/>
<path d="M127.47 74.4604L125.769 76.1442C126.039 75.6657 126.226 75.1444 126.321 74.6028C126.708 74.5939 127.093 74.5463 127.47 74.4604Z" fill="#5236FF"/>
<path d="M80.0659 29.1652C80.0631 29.3828 79.9744 29.5905 79.8191 29.743C79.6639 29.8955 79.4547 29.9805 79.2371 29.9795C79.129 29.9809 79.0217 29.9609 78.9214 29.9207C78.821 29.8805 78.7296 29.8209 78.6523 29.7453C78.5749 29.6699 78.5134 29.5796 78.4715 29.48C78.4295 29.3804 78.408 29.2733 78.4082 29.1652C78.411 28.9476 78.4997 28.7399 78.655 28.5874C78.8102 28.4349 79.0194 28.3499 79.2371 28.3509C79.3451 28.3495 79.4524 28.3695 79.5528 28.4097C79.6531 28.4499 79.7445 28.5095 79.8218 28.5851C79.8989 28.6608 79.9602 28.751 80.0021 28.8506C80.044 28.9502 80.0657 29.0572 80.0659 29.1652Z" fill="#5236FF"/>
<path d="M106.991 96.0627V96.5112L108.719 96.414C108.384 96.3015 108.039 96.218 107.689 96.1645C107.454 96.1498 107.221 96.1157 106.991 96.0627Z" fill="#5236FF"/>
<path d="M106.915 97.9387L106.757 98.5303L109.036 98.1936L106.915 97.9387Z" fill="#5236FF"/>
<path d="M43.0876 109.796C41.4302 109.509 39.7528 109.353 38.0709 109.331C35.1917 109.314 36.1055 108.919 37.0385 108.458C37.8256 108.126 38.5923 107.747 39.3344 107.324C35.2446 104.722 33.7116 103.754 33.2708 103.441C31.1791 101.96 31.6253 101.493 33.7147 102.244C36.6305 103.437 39.7348 104.103 42.8833 104.212" stroke="#242331" stroke-width="0.769171" stroke-linecap="round" stroke-linejoin="round"/>
<path d="M135.439 67.7571C135.279 67.7385 135.117 67.7434 134.959 67.7716C135.106 67.6278 135.222 67.4542 135.297 67.2622C135.373 67.0703 135.407 66.8645 135.397 66.6586C135.386 66.4526 135.332 66.2511 135.238 66.0676C135.144 65.8841 135.012 65.7227 134.851 65.5943C134.635 65.4223 134.375 65.3151 134.101 65.2851C133.807 65.244 133.507 65.2948 133.243 65.4305C133.389 65.2407 133.479 65.0141 133.505 64.7761C133.546 64.3885 133.431 64.0004 133.186 63.697C133.065 63.5469 132.914 63.4224 132.744 63.3306C132.574 63.2387 132.388 63.1815 132.196 63.1621C131.891 63.1245 131.582 63.1803 131.309 63.322C131.497 63.0039 131.558 62.6264 131.479 62.2654C131.399 61.9044 131.186 61.5868 130.883 61.3765C130.681 61.2376 130.447 61.1515 130.204 61.1263C129.948 61.0981 129.689 61.1339 129.451 61.2303C129.212 61.3267 129.001 61.4809 128.837 61.6789L127.368 64.5871C127.809 64.3317 128.306 64.1876 128.815 64.1673C129.324 64.147 129.831 64.2512 130.291 64.4708C131.047 64.7782 131.683 65.3231 132.103 66.0234C132.522 66.7237 132.703 67.5414 132.618 68.3533L133.345 68.6441C133.97 68.8913 134.186 69.8686 133.926 70.9852C134.446 70.831 134.975 70.7144 135.511 70.6362C135.825 70.5923 136.115 70.4458 136.336 70.2195C136.558 69.9933 136.698 69.7001 136.736 69.3857C136.76 69.1932 136.745 68.9979 136.692 68.8113C136.639 68.6246 136.55 68.4504 136.429 68.2989C136.308 68.1475 136.158 68.0217 135.988 67.9287C135.818 67.8357 135.631 67.7774 135.439 67.7571Z" stroke="#242331" stroke-width="0.769171" stroke-linejoin="round"/>
<path d="M40.1066 107.833C39.8509 107.662 39.594 107.492 39.3359 107.324" stroke="#242331" stroke-width="0.769171" stroke-linecap="round" stroke-linejoin="round"/>
<path d="M36.5292 105.55C35.4967 105.375 33.3913 105.074 32.2541 104.968C30.5811 104.815 30.7846 104.399 31.0471 104.299C31.9875 104.026 32.9614 103.884 33.9408 103.878" stroke="#242331" stroke-width="0.769171" stroke-linecap="round" stroke-linejoin="round"/>
<path d="M77.7972 100.053L75.7461 110.145" stroke="#242331" stroke-width="0.769171" stroke-linecap="round" stroke-linejoin="round"/>
<path d="M60.7266 80.8298L75.4713 81.6441" stroke="#242331" stroke-width="0.769171" stroke-linecap="round" stroke-linejoin="round"/>
<path d="M75.6305 98.4681L68.1709 97.8865" stroke="#242331" stroke-width="0.769171" stroke-linecap="round" stroke-linejoin="round"/>
<path d="M134.74 81.4407L142.084 81.8042" stroke="#242331" stroke-width="0.769171" stroke-linecap="round" stroke-linejoin="round"/>
<path d="M142.082 81.804C142.669 81.8329 143.23 82.0522 143.682 82.4286C144.133 82.805 144.449 83.318 144.583 83.8902C144.671 84.2706 144.676 84.6647 144.598 85.0466" stroke="#242331" stroke-width="0.769171" stroke-linecap="round" stroke-linejoin="round"/>
<path d="M144.6 85.0466L142.404 95.778" stroke="#242331" stroke-width="0.769171" stroke-linecap="round" stroke-linejoin="round"/>
<path d="M53.2809 68.0193C52.5173 69.7232 51.9702 71.516 51.6523 73.3559C51.2895 76.2305 52.5377 77.22 55.273 76.2863C55.277 76.6173 55.2491 76.948 55.1896 77.2736C55.1537 77.6335 55.013 77.975 54.7848 78.2556C54.5567 78.5363 54.2511 78.7438 53.9061 78.8525C54.8245 79.7831 56.8871 80.0448 59.4463 80.0158C57.8177 78.6489 57.8759 76.8167 58.0213 74.735" stroke="#242331" stroke-width="0.769171" stroke-linecap="round" stroke-linejoin="round"/>
<path d="M53.2809 68.0192L52.9174 67.9319C52.2776 67.772 51.3339 68.8343 50.9689 70.3312C50.6214 71.757 50.9253 73.0795 51.6523 73.3558" stroke="#242331" stroke-width="0.769171" stroke-linecap="round" stroke-linejoin="round"/>
<path d="M56.5422 73.7949C55.8243 74.2281 55.0269 74.5143 54.1973 74.6368" stroke="#242331" stroke-width="0.769171" stroke-linecap="round" stroke-linejoin="round"/>
<path d="M52.8302 74.577C52.8076 74.6645 52.8027 74.7556 52.8156 74.845C52.8286 74.9344 52.8592 75.0203 52.9057 75.0978C52.9522 75.1753 53.0136 75.2427 53.0864 75.2962C53.1592 75.3497 53.2419 75.3882 53.3298 75.4094C53.4176 75.4306 53.5087 75.4341 53.5979 75.4198C53.6871 75.4054 53.7726 75.3735 53.8493 75.3258C53.9261 75.2781 53.9925 75.2156 54.0449 75.142C54.0972 75.0683 54.1344 74.985 54.1542 74.8969C54.1935 74.7225 54.1626 74.5396 54.0682 74.3877C53.9738 74.2359 53.8235 74.1272 53.6497 74.0852C53.4759 74.0432 53.2926 74.0713 53.1392 74.1633C52.9859 74.2553 52.8749 74.4039 52.8302 74.577Z" stroke="#242331" stroke-width="0.769171" stroke-linecap="round" stroke-linejoin="round"/>
<path d="M58.3414 71.9452C58.0828 73.0075 58.134 74.7723 59.1267 75.0134C59.9249 75.2078 60.8724 74.1555 61.2351 72.6577C61.7709 70.4337 60.7048 68.74 59.3739 69.9967C58.8561 70.5381 58.4987 71.2127 58.3414 71.9452Z" stroke="#242331" stroke-width="0.769171" stroke-linecap="round" stroke-linejoin="round"/>
<path d="M60.4496 69.5895L58.6028 69.1387C57.8031 68.9497 56.8579 69.9967 56.4944 71.4944C56.1308 72.9922 56.4798 74.359 57.2796 74.5481L59.1409 74.9988" stroke="#242331" stroke-width="0.769171" stroke-linecap="round" stroke-linejoin="round"/>
<path d="M19.749 43.3574V50.1045" stroke="#242331" stroke-width="0.769171" stroke-linecap="round" stroke-linejoin="round"/>
<path d="M23.1231 46.7307H16.376" stroke="#242331" stroke-width="0.769171" stroke-linecap="round" stroke-linejoin="round"/>
<path d="M40.6001 128.001C40.6595 128.253 40.6428 128.517 40.5521 128.76C40.4614 129.003 40.3007 129.213 40.0905 129.364C39.8802 129.515 39.6298 129.601 39.371 129.61C39.1121 129.618 38.8565 129.55 38.6364 129.414C38.4163 129.277 38.2417 129.078 38.1346 128.843C38.0276 128.607 37.9929 128.345 38.035 128.089C38.0771 127.833 38.1941 127.596 38.3711 127.407C38.5482 127.218 38.7774 127.086 39.0296 127.027C39.2815 126.965 39.5463 126.98 39.7895 127.07C40.0327 127.161 40.2431 127.322 40.3934 127.534C40.4929 127.674 40.5633 127.833 40.6001 128.001Z" stroke="#242331" stroke-width="0.769171" stroke-linecap="round" stroke-linejoin="round"/>
<path d="M37.4461 100.039C37.7937 100.039 38.1379 99.9707 38.4591 99.8378C38.7802 99.7049 39.0721 99.5099 39.3179 99.2641C39.5636 99.0183 39.7586 98.7265 39.8915 98.4053C40.0244 98.0842 40.0928 97.7399 40.0925 97.3923V78.2271C40.0925 77.5252 39.8137 76.852 39.3174 76.3557C38.8211 75.8594 38.1479 75.5806 37.4461 75.5806H11.2275C10.5257 75.5806 9.85251 75.8594 9.3562 76.3557C8.85988 76.852 8.58105 77.5252 8.58105 78.2271V97.3923C8.58095 97.7399 8.64934 98.0841 8.7823 98.4052C8.91527 98.7264 9.1102 99.0181 9.35597 99.2639C9.60174 99.5097 9.89353 99.7046 10.2147 99.8376C10.5358 99.9705 10.88 100.039 11.2275 100.039H37.4453H37.4461Z" stroke="#242331" stroke-width="0.769171" stroke-linecap="round" stroke-linejoin="round"/>
<path d="M27.5576 110.145H19.749L20.7233 100.039H26.4525L27.5576 110.145Z" stroke="#242331" stroke-width="0.769171" stroke-linecap="round" stroke-linejoin="round"/>
<path d="M26.0595 88.4531C26.0912 89.2454 25.8075 90.0179 25.2705 90.6012C24.7335 91.1845 23.9871 91.5311 23.1949 91.5649C22.4144 91.4997 21.6868 91.1436 21.1564 90.5673C20.626 89.9909 20.3314 89.2364 20.3311 88.4531C20.3309 87.6697 20.6253 86.9149 21.1558 86.3384C21.6863 85.7619 22.4142 85.406 23.1949 85.3413C23.9871 85.3751 24.7335 85.7217 25.2705 86.305C25.8075 86.8884 26.0912 87.6609 26.0595 88.4531Z" stroke="#242331" stroke-width="0.769171" stroke-linecap="round" stroke-linejoin="round"/>
<path d="M24.9266 84.029C24.4709 84.3705 23.9094 84.5405 23.3408 84.5089C23.3969 83.9419 23.6489 83.4123 24.0533 83.0111C24.5099 82.672 25.0703 82.5023 25.6383 82.5313C25.5825 83.0981 25.3308 83.6277 24.9266 84.029Z" stroke="#242331" stroke-width="0.769171" stroke-linecap="round" stroke-linejoin="round"/>
<path d="M94.4327 110.145H86.6387L87.6129 100.039H93.3276L94.4327 110.145Z" stroke="#242331" stroke-width="0.769171" stroke-linecap="round" stroke-linejoin="round"/>
<path d="M106.981 96.4907V96.0835" stroke="#242331" stroke-width="0.769171" stroke-linecap="round" stroke-linejoin="round"/>
<path d="M105.527 99.7625C105.161 99.9426 104.758 100.037 104.349 100.039H78.1172C77.7696 100.039 77.4254 99.9707 77.1042 99.8378C76.783 99.7049 76.4912 99.5099 76.2454 99.2641C75.9996 99.0183 75.8047 98.7265 75.6717 98.4053C75.5388 98.0842 75.4705 97.7399 75.4707 97.3923V78.2271C75.4707 77.5252 75.7495 76.852 76.2458 76.3557C76.7422 75.8594 77.4153 75.5806 78.1172 75.5806H104.335C104.683 75.5805 105.027 75.6489 105.348 75.7818C105.669 75.9148 105.961 76.1097 106.207 76.3555C106.452 76.6013 106.647 76.893 106.78 77.2142C106.913 77.5353 106.982 77.8795 106.981 78.2271V94.9349" stroke="#242331" stroke-width="0.769171" stroke-linejoin="round"/>
<path d="M90.9278 83.0111C91.3832 82.6698 91.9445 82.4999 92.5128 82.5313C92.5052 82.8165 92.4381 83.097 92.3157 83.3548C92.1934 83.6125 92.0185 83.8418 91.8023 84.0281C91.5861 84.2143 91.3334 84.3532 91.0604 84.436C90.7873 84.5188 90.5 84.5436 90.2168 84.5089C90.2775 83.9436 90.5282 83.4156 90.9278 83.0111Z" stroke="#242331" stroke-width="0.769171" stroke-linecap="round" stroke-linejoin="round"/>
<path d="M90.0843 91.5467C89.4578 91.599 88.8302 91.4608 88.2837 91.1503C87.7371 90.8397 87.2972 90.3713 87.0214 89.8064C86.7447 89.2419 86.6451 88.6069 86.7356 87.9848C86.8262 87.3627 87.1027 86.7825 87.5289 86.3203C87.8469 85.9743 88.239 85.7045 88.6759 85.5312C89.1128 85.3579 89.5832 85.2855 90.052 85.3194C90.5208 85.3533 90.9758 85.4927 91.3832 85.7271C91.7906 85.9615 92.1398 86.2849 92.4047 86.6731C92.7591 87.192 92.9489 87.8066 92.9489 88.4349C92.98 89.227 92.696 89.9992 92.1592 90.5824C91.6223 91.1656 90.8762 91.5123 90.0843 91.5467Z" stroke="#242331" stroke-width="0.769171" stroke-linecap="round" stroke-linejoin="round"/>
<path d="M148.642 112.791C148.985 112.779 149.31 112.635 149.549 112.388C149.788 112.141 149.921 111.811 149.921 111.468C149.921 111.124 149.788 110.794 149.549 110.547C149.31 110.301 148.985 110.156 148.642 110.144H5.87684C5.69928 110.138 5.52232 110.168 5.3565 110.232C5.19069 110.296 5.0394 110.392 4.91166 110.516C4.78392 110.639 4.68233 110.787 4.61295 110.951C4.54357 111.114 4.50781 111.29 4.50781 111.468C4.50781 111.645 4.54357 111.821 4.61295 111.985C4.68233 112.148 4.78392 112.296 4.91166 112.42C5.0394 112.543 5.19069 112.64 5.3565 112.703C5.52232 112.767 5.69928 112.797 5.87684 112.791H148.642Z" stroke="#242331" stroke-width="0.769171" stroke-linecap="round" stroke-linejoin="round"/>
<path d="M25.8536 71.3301C25.2008 70.8709 24.4423 70.3811 24.0681 70.1714C22.9949 69.5669 21.9038 68.9947 20.7963 68.4556C19.8129 67.9788 15.3572 65.8259 14.3837 65.5619C11.7211 64.8409 11.7456 65.5328 13.9183 66.827C15.404 67.693 16.7848 68.7274 18.0335 69.9097C18.9731 70.8534 19.8428 71.8643 20.6356 72.9342" stroke="#242331" stroke-width="0.769171" stroke-linecap="round" stroke-linejoin="round"/>
<path d="M26.2488 71.2336C25.0419 69.6923 24.9562 69.6043 24.0531 68.3109C23.2403 67.1468 22.9258 66.5705 22.2791 65.548C20.6719 63.0148 20.7798 64.2102 20.9015 65.2863C20.9872 66.0715 22.152 68.878 20.7852 68.4708" stroke="#242331" stroke-width="0.769171" stroke-linecap="round" stroke-linejoin="round"/>
<path d="M20.6649 72.9629C19.5597 71.756 16.9148 70.3463 15.6903 69.633C14.7451 69.0812 13.2412 68.4743 12.1568 67.888C11.9111 67.7549 11.882 67.2421 13.6109 67.5972C14.2369 67.7258 15.3558 67.9462 15.8793 68.1062" stroke="#242331" stroke-width="0.769171" stroke-linecap="round" stroke-linejoin="round"/>
<path d="M20.374 72.6723C19.3955 72.0859 18.3632 71.5942 17.2913 71.2037C16.3316 70.8394 14.5736 70.4292 13.5106 70.0695C13.2489 69.9815 13.1463 69.5169 14.8882 69.546C15.0191 69.546 15.2808 69.5605 15.5716 69.5751" stroke="#242331" stroke-width="0.769171" stroke-linecap="round" stroke-linejoin="round"/>
<path d="M41.0957 93.4951L46.8395 91.2412" stroke="#242331" stroke-width="0.769171" stroke-linecap="round" stroke-linejoin="round"/>
<path d="M19.2691 75.5805L18.865 74.4609C18.5589 73.5157 27.6333 70.3021 27.9532 71.2465L29.5795 75.5805" stroke="#242331" stroke-width="0.769171" stroke-linecap="round" stroke-linejoin="round"/>
<path d="M59.3008 92.7539L59.6207 101.711" stroke="#242331" stroke-width="0.769171" stroke-linecap="round" stroke-linejoin="round"/>
<path d="M65.7717 110.145C67.5212 109.905 67.9605 107.641 67.9965 105.87C68.3026 91.0577 67.8916 82.9499 62.18 81.368C61.1815 81.1206 60.2487 80.6592 59.4463 80.0156" stroke="#242331" stroke-width="0.769171" stroke-linecap="round" stroke-linejoin="round"/>
<path d="M43.32 110.145C42.622 110.145 42.6511 102.482 43.3636 102.482C43.3636 102.482 57.3231 102.075 62.5289 101.435" stroke="#242331" stroke-width="0.769171" stroke-linecap="round" stroke-linejoin="round"/>
<path d="M50.1251 102.235C47.4465 96.5636 46.7447 92.2854 46.8097 90.0782C46.8529 88.9806 47.0841 87.8986 47.4931 86.8792" stroke="#242331" stroke-width="0.769171" stroke-linecap="round" stroke-linejoin="round"/>
<path d="M67.999 106.248C68.402 106.06 68.7593 105.788 69.046 105.448C70.4248 106.773 71.5095 108.373 72.2297 110.145" stroke="#242331" stroke-width="0.769171" stroke-linecap="round" stroke-linejoin="round"/>
<path d="M69.0434 105.448C68.5342 103.454 68.2417 101.412 68.1709 99.3552" stroke="#242331" stroke-width="0.769171" stroke-linecap="round" stroke-linejoin="round"/>
<path d="M129.942 73.1958C128.154 78.2416 131.367 79.5939 132.909 80.5246C133.534 80.9026 136.557 81.8639 138.478 84.8433C140.411 87.8403 143.665 98.949 144.018 104.823C144.19 107.687 142.956 109.472 140.121 109.97C137.169 110.49 123.762 109.011 114.95 105.085C113.656 104.663 116.754 95.1675 118.048 95.5892L136.268 99.9661" stroke="#242331" stroke-width="0.769171" stroke-linecap="round" stroke-linejoin="round"/>
<path d="M126.589 66.0882L126.249 65.9251C125.653 65.6955 124.577 66.594 124.024 67.9915C123.484 69.3484 123.618 70.6763 124.293 71.0345" stroke="#242331" stroke-width="0.769171" stroke-linecap="round" stroke-linejoin="round"/>
<path d="M128.959 72.2139L128.837 72.2651C128.04 72.5901 127.181 72.7379 126.321 72.6983" stroke="#242331" stroke-width="0.769171" stroke-linecap="round" stroke-linejoin="round"/>
<path d="M131.062 73.5594C130.15 72.654 130.859 69.895 132.255 68.8909C133.491 68.0039 134.345 69.1519 133.938 70.9849C133.738 71.9066 133.265 72.7468 132.581 73.3964C132.11 73.8028 131.505 73.9987 131.062 73.5594Z" stroke="#242331" stroke-width="0.769171" stroke-linecap="round" stroke-linejoin="round"/>
<path d="M131.291 73.7267L129.579 73.0501C128.823 72.744 128.656 71.3611 129.215 69.9529C129.661 68.8317 130.698 67.5972 131.588 67.9462L133.318 68.6296" stroke="#242331" stroke-width="0.769171" stroke-linecap="round" stroke-linejoin="round"/>
<path d="M126.588 66.0881C123.229 71.8357 123.221 74.7187 126.336 74.6085C126.117 76.1391 124.984 78.3525 120.708 77.7035C117.612 77.2343 111.693 75.6532 103.913 71.8143" stroke="#242331" stroke-width="0.769171" stroke-linecap="round" stroke-linejoin="round"/>
<path d="M102.898 73.6059C106.591 67.0624 108.469 63.486 112.306 58.1923C112.985 57.2547 104.429 51.2117 103.741 52.1462C98.5843 59.1229 91.1882 70.0854 91.2188 75.2896" stroke="#242331" stroke-width="0.769171" stroke-linecap="round" stroke-linejoin="round"/>
<path d="M107.752 85.6138C110.36 86.7433 113.079 87.5962 115.864 88.1585" stroke="#242331" stroke-width="0.769171" stroke-linecap="round" stroke-linejoin="round"/>
<path d="M114.994 95.9532C115.154 91.5327 115.852 87.3885 116.71 85.2073" stroke="#242331" stroke-width="0.769171" stroke-linecap="round" stroke-linejoin="round"/>
<path d="M131.294 91.5469L133.272 99.2392" stroke="#242331" stroke-width="0.769171" stroke-linecap="round" stroke-linejoin="round"/>
<path d="M108.714 96.4034C108.436 96.3037 108.149 96.2306 107.856 96.1852C103.471 95.6939 105.457 94.8 109.004 94.8329C110.943 94.8873 112.864 95.2255 114.704 95.8363C115.438 96.124 116.156 96.4493 116.857 96.8105" stroke="#242331" stroke-width="0.769171" stroke-linecap="round" stroke-linejoin="round"/>
<path d="M114.703 103.441C112.348 102.595 109.911 101.996 107.432 101.653C105.876 101.512 105.834 101.005 107.563 100.606C109.124 100.245 110.716 100.03 112.318 99.9661" stroke="#242331" stroke-width="0.769171" stroke-linecap="round" stroke-linejoin="round"/>
<path d="M110.835 100.053C109.119 99.8354 106.589 99.9096 105.687 99.7917C104.146 99.5904 104.306 99.0922 106.051 98.7011C107.752 98.3297 109.487 98.1396 111.228 98.134" stroke="#242331" stroke-width="0.769171" stroke-linecap="round" stroke-linejoin="round"/>
<path d="M109.293 98.221C107.621 97.9148 105.849 97.9914 104.945 97.872C103.404 97.6707 103.433 97.0003 105.193 96.724C106.986 96.4399 108.804 96.3521 110.617 96.4622" stroke="#242331" stroke-width="0.769171" stroke-linecap="round" stroke-linejoin="round"/>
<path d="M110.384 94.9203C109.57 94.1351 108.959 93.4662 109.542 93.1172C110.051 92.8111 112.494 95.2402 113.934 95.5892" stroke="#242331" stroke-width="0.769171" stroke-linecap="round" stroke-linejoin="round"/>
<path d="M109.25 46.2364C109.467 45.9493 109.774 45.7442 110.122 45.6547C110.923 45.5713 111.797 47.3277 111.126 49.3482C110.764 50.4395 109.919 50.7877 109.73 48.9992" stroke="#242331" stroke-width="0.769171" stroke-linecap="round" stroke-linejoin="round"/>
<path d="M110.877 46.1107C111.948 45.363 113.189 46.9993 112.566 49.2294C112.26 50.3055 111.576 50.4096 111.242 48.9409" stroke="#242331" stroke-width="0.769171" stroke-linecap="round" stroke-linejoin="round"/>
<path d="M104.626 52.1837C105.714 50.6806 106.614 49.0495 107.305 47.3269C107.628 46.6596 108.032 46.0772 108.671 46.0182C109.457 45.9463 110.227 47.3706 109.631 49.3336C109.384 50.1479 108.293 49.8135 108.407 47.6614" stroke="#242331" stroke-width="0.769171" stroke-linecap="round" stroke-linejoin="round"/>
<path d="M111.897 57.2733C113.423 55.1212 117.483 49.6369 117.131 49.4065C116.683 49.1126 113.772 51.0206 113.772 51.0206C113.772 51.0206 110.69 50.977 110.588 52.94" stroke="#242331" stroke-width="0.769171" stroke-linecap="round" stroke-linejoin="round"/>
<path d="M113.835 50.9798C115.663 46.3167 115.443 41.8456 115.081 42.5429C114.404 43.8439 113.233 47.5244 112.566 49.2295" stroke="#242331" stroke-width="0.769171" stroke-linecap="round" stroke-linejoin="round"/>
<path d="M107.578 48.4612C107.882 48.4276 108.188 48.4934 108.451 48.6503" stroke="#242331" stroke-width="0.769171" stroke-linecap="round" stroke-linejoin="round"/>
<path d="M102.954 128.627C102.994 128.726 103.01 128.834 103.001 128.94C102.992 129.047 102.958 129.15 102.901 129.241C102.844 129.332 102.767 129.408 102.675 129.463C102.583 129.518 102.479 129.55 102.372 129.558C98.3239 130.266 94.1934 130.374 90.1138 129.877C89.9752 129.886 89.8372 129.852 89.7188 129.78C89.6004 129.707 89.5074 129.599 89.4526 129.472C89.3983 129.344 89.3852 129.202 89.4151 129.066C89.445 128.931 89.5164 128.808 89.6194 128.714L99.2625 121.255C99.3806 121.145 99.5344 121.082 99.6953 121.078C99.8562 121.073 100.013 121.127 100.137 121.23C100.219 121.298 100.283 121.385 100.324 121.484L101.215 123.645C99.2327 125.173 97.1524 126.569 94.9874 127.824C97.3807 127.229 99.7054 126.386 101.924 125.308L102.954 128.627Z" stroke="#242331" stroke-width="0.769171" stroke-linecap="round" stroke-linejoin="round"/>
<path d="M127.847 47.8651C124.88 43.5609 128.298 37.9158 133.911 37.9771C137.822 38.0191 140.963 40.9435 140.934 44.5206C140.905 48.0977 137.691 50.9493 133.78 50.9187C132.32 50.9125 130.894 50.4776 129.679 49.6682L126.684 50.8315L127.847 47.8651Z" stroke="#242331" stroke-width="0.769171" stroke-linecap="round" stroke-linejoin="round"/>
<path d="M131.003 44.4336C131.003 44.6533 130.916 44.8639 130.761 45.0198C130.684 45.097 130.593 45.1581 130.492 45.1998C130.391 45.2414 130.283 45.2627 130.175 45.2624C129.956 45.2591 129.747 45.1707 129.592 45.016C129.437 44.8612 129.349 44.6524 129.346 44.4336C129.346 44.2139 129.433 44.0032 129.588 43.8473C129.665 43.7704 129.757 43.7094 129.857 43.6677C129.958 43.6261 130.066 43.6047 130.175 43.6047C130.393 43.6081 130.602 43.6965 130.757 43.8512C130.912 44.0059 131 44.2148 131.003 44.4336Z" stroke="#242331" stroke-width="0.769171" stroke-linecap="round" stroke-linejoin="round"/>
<path d="M134.639 44.4336C134.639 44.6533 134.551 44.8639 134.397 45.0198C134.32 45.097 134.228 45.1581 134.128 45.1998C134.027 45.2414 133.919 45.2627 133.81 45.2624C133.592 45.2591 133.383 45.1707 133.228 45.016C133.073 44.8612 132.985 44.6524 132.981 44.4336C132.982 44.2139 133.069 44.0032 133.224 43.8473C133.301 43.7704 133.392 43.7094 133.493 43.6677C133.594 43.6261 133.701 43.6047 133.81 43.6047C134.029 43.6081 134.238 43.6965 134.393 43.8512C134.547 44.0059 134.636 44.2148 134.639 44.4336Z" stroke="#242331" stroke-width="0.769171" stroke-linecap="round" stroke-linejoin="round"/>
<path d="M138.274 44.4336C138.274 44.5975 138.225 44.7578 138.134 44.8941C138.043 45.0304 137.914 45.1366 137.762 45.1993C137.611 45.2621 137.444 45.2785 137.283 45.2465C137.123 45.2145 136.975 45.1356 136.859 45.0197C136.743 44.9037 136.664 44.7561 136.632 44.5953C136.6 44.4345 136.617 44.2678 136.679 44.1164C136.742 43.9649 136.848 43.8355 136.985 43.7444C137.121 43.6533 137.281 43.6047 137.445 43.6047C137.664 43.6081 137.873 43.6965 138.027 43.8512C138.182 44.0059 138.271 44.2148 138.274 44.4336Z" stroke="#242331" stroke-width="0.769171" stroke-linecap="round" stroke-linejoin="round"/>
<path d="M79.2224 25.7043C79.2369 24.6718 79.6295 23.9157 80.9528 22.1998C81.5804 21.4881 82.0549 20.6539 82.3472 19.7508C82.4862 19.3186 82.5237 18.8602 82.4568 18.4112C82.3899 17.9622 82.2204 17.5346 81.9615 17.1617C81.7032 16.7884 81.3625 16.4796 80.9656 16.2591C80.5688 16.0387 80.1266 15.9126 79.6732 15.8905C79.0352 15.8547 78.4035 16.0324 77.8777 16.3955C77.3519 16.7585 76.962 17.2864 76.7695 17.8957C76.6421 18.3001 76.6058 18.7276 76.6631 19.1477" stroke="#242331" stroke-width="0.769171" stroke-linecap="round" stroke-linejoin="round"/>
<path d="M122.991 77.7617C121.615 69.7187 118.099 62.1945 112.812 55.979" stroke="#242331" stroke-width="0.769171" stroke-linecap="round" stroke-linejoin="round"/>
<path d="M41.5752 112.791C45.9862 118.674 51.7546 123.404 58.3884 126.577C65.0223 129.749 72.325 131.27 79.6738 131.011C87.0229 130.752 94.2001 128.718 100.593 125.085C106.987 121.451 112.406 116.325 116.39 110.144" stroke="#242331" stroke-width="0.769171" stroke-linecap="round" stroke-linejoin="round"/>
<path d="M39.2344 109.374C39.3943 109.636 39.5543 109.898 39.7288 110.145" stroke="#242331" stroke-width="0.769171" stroke-linecap="round" stroke-linejoin="round"/>
<path d="M37.4014 106.103C37.7075 106.699 38.0136 107.28 38.3473 107.863" stroke="#242331" stroke-width="0.769171" stroke-linecap="round" stroke-linejoin="round"/>
<path d="M34.8604 100.039C35.1948 101.042 35.5729 102.029 35.98 103.005" stroke="#242331" stroke-width="0.769171" stroke-linecap="round" stroke-linejoin="round"/>
<path d="M106.234 49.62C97.0847 42.4321 85.5337 39.0138 73.9461 40.065C62.3585 41.1162 51.6112 46.5572 43.9045 55.2742C38.801 61.0463 35.2433 68.0175 33.5635 75.5369" stroke="#242331" stroke-width="0.769171" stroke-linecap="round" stroke-linejoin="round"/>
<path d="M53.9067 78.8521C53.2225 79.0816 50.8155 78.9577 49.2244 79.6082C46.5343 80.7133 44.4695 81.8766 41.0967 83.4761" stroke="#242331" stroke-width="0.769171" stroke-linecap="round" stroke-linejoin="round"/>
<path d="M52.4236 79.0266L51.5947 81.8621L55.9571 79.7682L58.4 83.5198L60.7266 80.8297" stroke="#242331" stroke-width="0.769171" stroke-linecap="round" stroke-linejoin="round"/>
<path d="M55.9563 79.7683C52.6555 86.2537 50.7797 91.0813 53.8624 102.06" stroke="#242331" stroke-width="0.769171" stroke-linecap="round" stroke-linejoin="round"/>
<path d="M47.5085 102.336C46.5779 102.336 46.5779 110.072 47.5085 110.072" stroke="#242331" stroke-width="0.769171" stroke-linecap="round" stroke-linejoin="round"/>
<path d="M109.934 110.087L116.71 107.833" stroke="#242331" stroke-width="0.769171" stroke-linecap="round" stroke-linejoin="round"/>
<path d="M116.709 107.833C116.312 107.103 116.023 106.32 115.852 105.506" stroke="#242331" stroke-width="0.769171" stroke-linecap="round" stroke-linejoin="round"/>
<path d="M116.71 107.833L124.897 108.269" stroke="#242331" stroke-width="0.769171" stroke-linecap="round" stroke-linejoin="round"/>
<path d="M123.704 77.6309L122.934 80.6554L126.569 78.4597L128.837 82.095L130.291 78.5469" stroke="#242331" stroke-width="0.769171" stroke-linecap="round" stroke-linejoin="round"/>
<path d="M130.291 78.547C127.877 78.9549 125.943 78.547 124.489 77.3225" stroke="#242331" stroke-width="0.769171" stroke-linecap="round" stroke-linejoin="round"/>
<path d="M120.33 77.6453C119.036 82.8074 131.105 85.2067 134.042 81.077" stroke="#242331" stroke-width="0.769171" stroke-linecap="round" stroke-linejoin="round"/>
<path d="M119.2 77.427C117.426 84.0578 131.516 87.126 135.093 81.6439" stroke="#242331" stroke-width="0.769171" stroke-linecap="round" stroke-linejoin="round"/>
<path d="M124.021 83.7673C122.599 87.8617 121.843 92.1573 121.781 96.4909" stroke="#242331" stroke-width="0.769171" stroke-linecap="round" stroke-linejoin="round"/>
<path d="M124.021 97.0289C122.537 96.6217 119.687 106.902 121.171 107.309" stroke="#242331" stroke-width="0.769171" stroke-linecap="round" stroke-linejoin="round"/>
<path d="M99.7109 57.7094C100.351 56.7642 109.221 62.7261 108.581 63.6712" stroke="#242331" stroke-width="0.769171" stroke-linecap="round" stroke-linejoin="round"/>
<path d="M44.8467 92.0122L47.4932 86.8792" stroke="#242331" stroke-width="0.769171" stroke-linecap="round" stroke-linejoin="round"/>
<path d="M111.62 87.0533L116.71 85.2065" stroke="#242331" stroke-width="0.769171" stroke-linecap="round" stroke-linejoin="round"/>
<path d="M38.4487 75.5806H37.4453C38.1472 75.5806 38.8204 75.8594 39.3167 76.3557C39.813 76.852 40.0918 77.5252 40.0918 78.2271V97.3923C40.0919 97.7399 40.0235 98.0841 39.8906 98.4052C39.7576 98.7264 39.5627 99.0181 39.3169 99.2639C39.0711 99.5097 38.7793 99.7046 38.4582 99.8376C38.1371 99.9705 37.7929 100.039 37.4453 100.039H38.4487C38.7963 100.039 39.1405 99.9707 39.4617 99.8378C39.7828 99.7049 40.0747 99.5099 40.3205 99.2641C40.5662 99.0183 40.7612 98.7265 40.8941 98.4053C41.027 98.0842 41.0953 97.7399 41.0951 97.3923V78.2271C41.0951 77.5252 40.8163 76.852 40.32 76.3557C39.8237 75.8594 39.1505 75.5806 38.4487 75.5806Z" stroke="#242331" stroke-width="0.769171" stroke-linejoin="round"/>
<path d="M32.3558 110.145H27.5435L26.4414 100.039H27.4302L28.2721 108.151C28.3045 108.464 28.452 108.753 28.6859 108.962C28.9197 109.172 29.2231 109.287 29.5371 109.285H31.5002C31.7269 109.288 31.9435 109.38 32.1035 109.541C32.2635 109.701 32.3541 109.918 32.3558 110.145Z" stroke="#242331" stroke-width="0.769171" stroke-linejoin="round"/>
<path d="M99.2455 110.145H94.4324L93.3311 100.039H94.3199L95.1617 108.151C95.1944 108.464 95.3419 108.753 95.5757 108.962C95.8095 109.172 96.1128 109.287 96.4268 109.285H98.3899C98.6164 109.289 98.8326 109.381 98.9925 109.541C99.1523 109.702 99.2431 109.918 99.2455 110.145Z" stroke="#242331" stroke-width="0.769171" stroke-linejoin="round"/>
<path d="M104.352 100.039C105.027 100.102 105.709 100.034 106.359 99.8406" stroke="#242331" stroke-width="0.769171" stroke-linecap="round" stroke-linejoin="round"/>
<path d="M106.981 78.2271V94.9349C107.288 94.8913 107.621 94.8767 107.985 94.8476V78.2271C107.985 77.8795 107.917 77.5353 107.784 77.2141C107.651 76.8929 107.456 76.6011 107.21 76.3553C106.964 76.1095 106.672 75.9146 106.351 75.7816C106.03 75.6487 105.686 75.5804 105.338 75.5806H104.335C104.683 75.5794 105.028 75.647 105.349 75.7796C105.671 75.9121 105.963 76.107 106.209 76.353C106.455 76.599 106.65 76.8912 106.782 77.2129C106.915 77.5345 106.983 77.8792 106.981 78.2271Z" stroke="#242331" stroke-width="0.769171" stroke-linejoin="round"/>
<path d="M126.336 74.6084C126.718 74.5968 127.098 74.5473 127.47 74.4607L125.815 76.1015" stroke="#242331" stroke-width="0.769171" stroke-linecap="round" stroke-linejoin="round"/>
<path d="M80.0659 29.1652C80.0631 29.3828 79.9744 29.5905 79.8191 29.743C79.6639 29.8955 79.4547 29.9805 79.2371 29.9795C79.129 29.9809 79.0217 29.9609 78.9214 29.9207C78.821 29.8805 78.7296 29.8209 78.6523 29.7453C78.5749 29.6699 78.5134 29.5796 78.4715 29.48C78.4295 29.3804 78.408 29.2733 78.4082 29.1652C78.411 28.9476 78.4997 28.7399 78.655 28.5874C78.8102 28.4349 79.0194 28.3499 79.2371 28.3509C79.3451 28.3495 79.4524 28.3695 79.5528 28.4097C79.6531 28.4499 79.7445 28.5095 79.8218 28.5851C79.8989 28.6608 79.9602 28.751 80.0021 28.8506C80.044 28.9502 80.0657 29.0572 80.0659 29.1652Z" stroke="#242331" stroke-width="0.769171" stroke-linejoin="round"/>
<path d="M106.705 98.5698C106.796 98.3815 106.864 98.1841 106.907 97.9797" stroke="#242331" stroke-width="0.769171" stroke-linecap="round" stroke-linejoin="round"/>
<path d="M55.2729 76.2845C55.7643 76.1123 56.2449 75.911 56.7125 75.6807C56.2954 76.455 55.7382 77.1453 55.0693 77.7164" stroke="#242331" stroke-width="0.769171" stroke-linecap="round" stroke-linejoin="round"/>
<path d="M117.523 129.703V132.165" stroke="#242331" stroke-width="0.769171" stroke-linecap="round" stroke-linejoin="round"/>
<path d="M122.315 134.494H119.853" stroke="#242331" stroke-width="0.769171" stroke-linecap="round" stroke-linejoin="round"/>
<path d="M117.523 139.285V136.823" stroke="#242331" stroke-width="0.769171" stroke-linecap="round" stroke-linejoin="round"/>
<path d="M112.733 134.494H115.197" stroke="#242331" stroke-width="0.769171" stroke-linecap="round" stroke-linejoin="round"/>
<path d="M119.853 134.495C119.392 134.496 118.941 134.36 118.557 134.104C118.174 133.848 117.876 133.484 117.7 133.057C117.583 132.775 117.523 132.472 117.524 132.166C117.525 132.472 117.465 132.775 117.348 133.057C117.231 133.34 117.06 133.597 116.843 133.813C116.406 134.249 115.814 134.495 115.196 134.495C115.814 134.494 116.406 134.739 116.843 135.176C117.06 135.392 117.232 135.649 117.348 135.932C117.465 136.214 117.525 136.518 117.524 136.824C117.523 136.518 117.584 136.215 117.701 135.932C117.817 135.649 117.989 135.393 118.205 135.176C118.422 134.96 118.678 134.788 118.961 134.672C119.244 134.555 119.547 134.494 119.853 134.495Z" stroke="#242331" stroke-width="0.769171" stroke-linecap="round" stroke-linejoin="round"/>
<path d="M73.8716 68.6443C74.3219 68.3911 74.6864 68.0092 74.9183 67.5476C75.1501 67.0859 75.2389 66.5656 75.1731 66.0532C75.1073 65.5407 74.89 65.0597 74.5491 64.6715C74.2081 64.2834 73.759 64.006 73.2593 63.8748C73.026 63.818 72.7869 63.7887 72.5468 63.7875C72.9044 63.3397 73.1038 62.7861 73.1139 62.2131C73.124 61.6401 72.9442 61.0799 72.6027 60.6197C72.2611 60.1595 71.7769 59.8252 71.2256 59.669C70.6742 59.5127 70.0866 59.5432 69.5544 59.7558C69.7567 59.1943 69.759 58.5803 69.561 58.0173C69.3629 57.4543 68.9766 56.977 68.4673 56.6659C67.958 56.3548 67.3569 56.229 66.7657 56.3098C66.1744 56.3906 65.6291 56.673 65.2219 57.1093C65.2695 56.5016 65.1015 55.8966 64.7474 55.4004C64.3934 54.9043 63.8758 54.5487 63.2856 54.3962L63.1111 54.3526C62.5017 54.1938 61.8554 54.2627 61.2932 54.5465C60.731 54.8303 60.2916 55.3094 60.0575 55.894C59.8923 55.3196 59.5335 54.8201 59.042 54.48C58.5505 54.14 57.9566 53.9804 57.3608 54.0284C56.7651 54.0763 56.2043 54.3288 55.7735 54.743C55.3427 55.1573 55.0684 55.7077 54.9971 56.3011C54.6852 55.9494 54.2834 55.6891 53.8349 55.5483C53.3863 55.4075 52.9079 55.3913 52.4509 55.5017C51.9938 55.612 51.5755 55.8447 51.2406 56.1746C50.9057 56.5046 50.6669 56.9195 50.5498 57.3749C50.4534 57.7605 50.4435 58.1627 50.5208 58.5527C50.0937 58.3188 49.6091 58.2106 49.1231 58.2406C48.6371 58.2706 48.1695 58.4375 47.7744 58.7221C47.3793 59.0067 47.0729 59.3974 46.8905 59.8489C46.7081 60.3004 46.6573 60.7943 46.7439 61.2734C46.8059 61.637 46.9429 61.9829 47.1472 62.2898C46.5446 62.1691 45.9187 62.2669 45.3816 62.5656C44.8445 62.8644 44.4314 63.3447 44.2161 63.9203C44.0009 64.496 43.9977 65.1295 44.207 65.7073C44.4164 66.2852 44.8246 66.7696 45.3586 67.0738C44.7454 67.1103 44.165 67.3633 43.7208 67.7877C43.2766 68.2121 42.9975 68.7804 42.9332 69.3914C42.8689 70.0024 43.0235 70.6164 43.3696 71.124C43.7157 71.6316 44.2307 71.9999 44.8229 72.1632C44.3765 72.4212 44.0168 72.8059 43.7894 73.2687C43.562 73.7314 43.4772 74.2512 43.5458 74.7622C43.6143 75.2732 43.8331 75.7523 44.1744 76.1388C44.5157 76.5252 44.9641 76.8016 45.4627 76.9327C45.7007 76.9894 45.9449 77.0185 46.1898 77.02C45.8649 77.4338 45.673 77.9363 45.6392 78.4613C45.6055 78.9863 45.7315 79.5092 46.0008 79.9611C46.1791 80.2611 46.4171 80.5214 46.6987 80.728C47.5306 80.3292 48.3744 79.9558 49.2289 79.6083C50.7703 78.983 53.0555 79.0726 53.8208 78.8813C54.1025 78.8003 54.3611 78.6542 54.5759 78.4548C54.7906 78.2554 54.9554 78.0082 55.0568 77.7333C55.7388 77.1616 56.3062 76.4659 56.7291 75.683C52.9537 77.5129 51.2088 76.6886 51.6818 73.2546C51.6328 73.2446 50.5016 72.9898 50.9999 70.2446C51.0566 69.7313 51.2574 69.2446 51.579 68.8406C51.9007 68.4366 52.33 68.1319 52.8175 67.9616C53.7359 66.5366 55.2459 65.4896 56.7727 65.8677C57.5857 66.0385 58.317 66.4793 58.8477 67.1185C59.3783 67.7577 59.6771 68.5576 59.6955 69.3882L60.5373 69.5917C61.3371 69.7808 61.6853 71.1622 61.3226 72.6454C60.959 74.1431 60.0139 75.1909 59.2141 75.0011L57.8472 74.6773C57.6436 77.6001 57.9054 80.1303 62.3695 81.439C63.8083 81.8607 65.2341 82.9658 66.2666 85.2342C66.8991 85.0608 67.4419 84.6533 67.7849 84.0942C68.1279 83.5352 68.2453 82.8666 68.1133 82.2242C68.6227 82.5032 69.2111 82.6027 69.7839 82.5067C70.3567 82.4106 70.8805 82.1246 71.271 81.6946C71.6619 81.2653 71.897 80.717 71.9386 80.1379C71.9803 79.5588 71.826 78.9825 71.5006 78.5017C71.9504 78.5931 72.4165 78.5634 72.8511 78.4156C73.2857 78.2679 73.6732 78.0074 73.9742 77.6608C74.2751 77.3142 74.4786 76.8939 74.5638 76.4428C74.6491 75.9918 74.613 75.5262 74.4594 75.0937C74.2543 74.5144 73.8502 74.0267 73.319 73.7176C73.9313 73.6841 74.5118 73.4341 74.9569 73.0123C75.402 72.5905 75.6827 72.0243 75.7491 71.4147C75.8155 70.8051 75.6632 70.1917 75.3193 69.684C74.9754 69.1763 74.4623 68.8073 73.8716 68.6427V68.6443Z" stroke="#242331" stroke-width="0.769171" stroke-linejoin="round"/>
</svg>
