<svg width="420" height="420" viewBox="0 0 420 420" fill="none" xmlns="http://www.w3.org/2000/svg">
<rect width="420" height="420" fill="white"/>
<path d="M240.95 191.372L217.169 169.658C214.55 176.744 211.312 183.585 207.493 190.102C208.211 190.912 208.886 191.761 209.517 192.642C202.292 207.896 194.312 223.686 185.223 238.889L192.118 278.191L227.568 271.958L214.196 196.096L240.95 191.372Z" fill="#EFECFF"/>
<path d="M186.326 141.464L152.026 207.054L173.383 203.282C177.433 195.858 181.601 187.682 185.889 178.988L187.715 179.266C187.715 179.266 191.842 174.065 192.993 163.385C194.144 152.787 196.884 152.549 197.837 165.212C199.957 162.684 201.832 159.959 203.434 157.075C203.434 157.075 186.326 141.433 186.326 141.464Z" fill="#EFECFF"/>
<path d="M212.366 274.618L192.161 278.151L185.213 238.85C184.975 239.802 175.646 253.737 175.646 253.737C180.969 263.533 183.754 274.506 183.744 285.654C194.345 285.767 204.586 281.818 212.366 274.618Z" fill="#5236FF"/>
<path d="M302.875 184.703C296.812 183.411 290.496 184.05 284.813 186.529L264.855 195.227C276.301 174.234 286.93 152.756 296.949 131.865C294.772 135.441 284.945 134.093 274.73 128.771C264.673 123.528 257.98 116.38 259.416 112.517C249.482 134.931 238.619 156.922 226.855 178.432L240.988 191.333L214.19 196.057L225.346 259.256C227.737 255.911 230.083 252.534 232.384 249.126C251.607 242.139 270.797 233.277 286.878 222.217C305.297 223.329 323.444 229.641 341.343 239.326C349.145 229.221 354.599 217.505 357.309 205.029C340.282 195.571 321.934 188.72 302.875 184.703Z" fill="#5236FF"/>
<path d="M110.303 182.918C110.025 182.164 108.755 181.568 107.127 181.767C107.722 183.229 108.874 185.695 108.874 185.695C110.025 184.663 110.581 183.672 110.303 182.916V182.918Z" fill="#5236FF"/>
<path d="M84.5393 191.888C84.8005 192.649 85.8098 193.04 87.3581 193.159C87.3184 193 86.5223 190.86 85.9289 189.149C84.8173 190.181 84.2844 191.14 84.5393 191.888Z" fill="#5236FF"/>
<path d="M226.895 59.2196C214.053 61.4679 202.625 73.8315 204.625 91.2558C221.623 83.2629 240.789 81.1269 259.13 85.1816C258.891 79.2783 256.756 73.6091 253.043 69.0138C249.329 64.4185 244.234 61.1417 238.513 59.6688C234.716 58.6922 230.755 58.539 226.895 59.2196Z" fill="#5236FF"/>
<path d="M281.251 114.757C271.127 109.635 261.553 108.488 259.616 112.176C257.702 115.824 264.023 122.935 273.787 128.265C274.213 127.818 277.429 121.982 281.251 114.757Z" fill="#5236FF"/>
<path d="M112.565 260.775C107.563 259.663 108.558 255.133 111.97 256.368C115.464 257.638 112.288 253.861 109.032 251.961C112.266 248.694 115.957 245.912 119.989 243.703L119.672 243.465C117.091 241.401 112.645 241.794 108.675 243.624C102.285 213.096 97.6799 220.64 100.062 226.237C94.3847 214.923 87.4371 214.327 89.2634 223.3C90.1837 228.01 92.0034 232.498 94.6229 236.52C85.5712 224.094 85.0112 234.098 90.4147 241.679C93.3284 245.353 97.3536 247.986 101.888 249.182C98.9503 253.779 100.856 258.472 108 262.085C110.858 263.547 113.717 265.06 116.496 266.682C117.727 267.392 114.67 261.193 112.565 260.775Z" fill="#5236FF"/>
<path d="M94.9011 198.598C94.9746 198.986 94.91 199.388 94.7186 199.734C94.5271 200.079 94.2207 200.347 93.8526 200.491C93.4844 200.635 93.0775 200.646 92.7023 200.521C92.3271 200.397 92.0073 200.145 91.7981 199.81C91.6624 199.598 91.5753 199.359 91.5432 199.109C91.5111 198.86 91.5347 198.607 91.6124 198.368C91.6901 198.128 91.8198 197.91 91.9924 197.727C92.1649 197.544 92.3759 197.401 92.61 197.31C92.8442 197.219 93.0958 197.18 93.3466 197.198C93.5974 197.215 93.8412 197.288 94.0604 197.411C94.2795 197.535 94.4686 197.705 94.614 197.91C94.7594 198.115 94.8574 198.35 94.9011 198.598Z" fill="#5236FF"/>
<path d="M203.791 193.595C203.838 193.818 203.839 194.048 203.796 194.271C203.752 194.495 203.664 194.707 203.537 194.896C203.41 195.085 203.246 195.246 203.055 195.37C202.864 195.494 202.65 195.579 202.426 195.619C202.202 195.658 201.972 195.653 201.751 195.602C201.529 195.552 201.319 195.457 201.135 195.324C200.95 195.191 200.794 195.022 200.676 194.827C200.558 194.632 200.48 194.416 200.447 194.191C200.384 193.754 200.493 193.31 200.751 192.952C201.009 192.594 201.396 192.351 201.831 192.274C202.265 192.196 202.712 192.291 203.078 192.538C203.444 192.784 203.7 193.164 203.791 193.595Z" fill="#5236FF"/>
<path d="M167.109 265.648L175.676 253.738C176.391 254.968 176.947 256.159 177.542 257.39L167.109 265.648Z" fill="#5236FF"/>
<path d="M127.93 262.35C126.444 263.081 124.908 263.704 123.333 264.216C126.152 265.407 129.725 266.28 131.986 265.369C130.441 264.652 129.06 263.625 127.93 262.35Z" fill="#5236FF"/>
<path d="M212.368 274.618C204.587 281.82 194.343 285.77 183.741 285.655C183.751 274.506 180.966 263.533 175.643 253.738" stroke="#242331" stroke-width="0.769171" stroke-linecap="round" stroke-linejoin="round"/>
<path d="M259.396 112.694C249.477 135.06 238.635 157.005 226.896 178.472" stroke="#242331" stroke-width="0.769171" stroke-linecap="round" stroke-linejoin="round"/>
<path d="M395.015 219.194C390.038 208.209 381.548 199.192 370.882 193.564C360.216 187.937 347.98 186.018 336.103 188.11C332.577 188.739 329.12 189.71 325.781 191.008" stroke="#242331" stroke-width="0.769171" stroke-linecap="round" stroke-linejoin="round"/>
<path d="M398.429 229.205C398.667 230.157 398.846 231.11 399.024 232.103C401.478 246.284 398.222 260.86 389.966 272.649C381.71 284.438 369.125 292.481 354.959 295.022L87.1202 342.224C71.1432 345.04 54.7018 341.394 41.413 332.088C28.1241 322.782 19.0763 308.578 16.2601 292.601C13.4438 276.624 17.0897 260.183 26.3957 246.894C35.7017 233.605 49.9056 224.557 65.8825 221.741C70.4794 220.945 75.1537 220.663 79.8153 220.905C72.8191 209.391 70.6646 195.577 73.8226 182.479" stroke="#242331" stroke-width="0.769171" stroke-linecap="round" stroke-linejoin="round"/>
<path d="M78.349 170.571C77.1929 172.696 76.2104 174.912 75.4111 177.195" stroke="#242331" stroke-width="0.769171" stroke-linecap="round" stroke-linejoin="round"/>
<path d="M289.42 98.6004C277.538 90.2321 263.7 85.0693 249.241 83.6106C234.781 82.152 220.191 84.4468 206.877 90.2734C193.564 96.1 181.978 105.261 173.239 116.873C164.5 128.484 158.903 142.153 156.989 156.559C148.176 148.696 136.9 144.149 125.098 143.7C113.296 143.251 101.706 146.927 92.3213 154.097" stroke="#242331" stroke-width="0.769171" stroke-linecap="round" stroke-linejoin="round"/>
<path d="M190.532 268.941C189.021 270.088 187.313 270.949 185.492 271.482" stroke="#242331" stroke-width="0.769171" stroke-linecap="round" stroke-linejoin="round"/>
<path d="M322.329 189.824C325.85 176.812 326.214 163.147 323.389 149.966C320.565 136.785 314.635 124.469 306.092 114.042" stroke="#242331" stroke-width="0.769171" stroke-linecap="round" stroke-linejoin="round"/>
<path d="M283.55 132.461L281.962 135.637" stroke="#242331" stroke-width="0.769171" stroke-linecap="round" stroke-linejoin="round"/>
<path d="M224.474 240.398C223.847 241.43 223.164 242.423 222.528 243.375" stroke="#242331" stroke-width="0.769171" stroke-linecap="round" stroke-linejoin="round"/>
<path d="M207.92 161.4C210.819 153.899 210.303 151.58 206.729 151.279C204.179 151.183 201.686 152.047 199.742 153.701" stroke="#242331" stroke-width="0.769171" stroke-linecap="round" stroke-linejoin="round"/>
<path d="M185.214 238.85L192.159 278.191L227.57 271.918L214.191 196.057L240.989 191.332L217.208 169.618" stroke="#242331" stroke-width="0.769171" stroke-linecap="round" stroke-linejoin="round"/>
<path d="M203.434 157.075L186.325 141.433L151.986 207.014L173.343 203.283" stroke="#242331" stroke-width="0.769171" stroke-linecap="round" stroke-linejoin="round"/>
<path d="M116.457 266.678C121.33 269.541 126.036 272.68 130.551 276.08C146.322 287.631 164.451 292.872 183.745 285.648" stroke="#242331" stroke-width="0.769171" stroke-linecap="round" stroke-linejoin="round"/>
<path d="M132.087 265.347C129.135 265.645 126.154 265.272 123.365 264.258C124.932 263.75 126.462 263.13 127.939 262.403" stroke="#242331" stroke-width="0.769171" stroke-linecap="round" stroke-linejoin="round"/>
<path d="M132.086 265.347C130.484 264.718 129.06 263.708 127.938 262.403C134.999 258.794 133.183 254.21 119.998 243.693" stroke="#242331" stroke-width="0.769171" stroke-linecap="round" stroke-linejoin="round"/>
<path d="M128.526 269.576C152.225 241.946 170.168 210.944 185.85 178.948C190.528 179.445 195.051 180.917 199.126 183.269C203.201 185.62 206.738 188.8 209.509 192.603C195.336 221.542 185.651 240.993 167.071 265.645L177.519 257.408" stroke="#242331" stroke-width="0.769171" stroke-linecap="round" stroke-linejoin="round"/>
<path d="M110.304 182.918C119.196 206.401 130.478 228.908 143.972 250.085" stroke="#242331" stroke-width="0.769171" stroke-linecap="round" stroke-linejoin="round"/>
<path d="M108.755 243.574C99.2075 227.076 91.1055 209.783 84.54 191.888" stroke="#242331" stroke-width="0.769171" stroke-linecap="round" stroke-linejoin="round"/>
<path d="M80.1729 168.944C85.8145 165.648 90.495 165.212 97.0059 165.688" stroke="#242331" stroke-width="0.769171" stroke-linecap="round" stroke-linejoin="round"/>
<path d="M81.3242 172.04C84.425 171.905 87.5199 172.417 90.4114 173.545C93.3029 174.673 95.9275 176.391 98.1175 178.591" stroke="#242331" stroke-width="0.769171" stroke-linecap="round" stroke-linejoin="round"/>
<path d="M87.3584 193.159C87.279 192.921 85.2689 187.363 85.1749 187.124C84.76 185.938 83.9959 184.905 82.983 184.162C81.97 183.418 80.7558 182.998 79.4998 182.958C75.0513 182.789 68.7117 182.162 68.5425 180.298C68.2792 177.398 77.7948 177.68 80.3314 175.492C81.2069 174.738 79.2303 171.633 78.3882 170.569C76.0248 167.629 73.6427 164.703 71.2421 161.793C66.4362 156.187 69.0627 155.119 73.8226 159.495C76.3079 161.776 78.7958 164.054 81.2863 166.33" stroke="#242331" stroke-width="0.769171" stroke-linecap="round" stroke-linejoin="round"/>
<path d="M91.9242 165.494C91.1618 161.565 89.9357 157.741 88.2717 154.102C85.1646 147.357 87.7828 147.257 91.4875 152.832C92.3568 154.133 93.1929 155.457 93.9949 156.802C95.9267 160.093 97.8986 163.362 99.9102 166.605C102.054 170.059 108.88 185.699 108.88 185.699" stroke="#242331" stroke-width="0.769171" stroke-linecap="round" stroke-linejoin="round"/>
<path d="M82.1224 167.792L74.502 154.733C70.7576 148.341 73.3925 147.823 77.4001 152.867C81.2135 157.673 85.9671 163.465 85.9671 163.465" stroke="#242331" stroke-width="0.769171" stroke-linecap="round" stroke-linejoin="round"/>
<path d="M86.928 165.767C85.2508 161.482 83.3288 157.296 81.1714 153.23C77.7488 146.684 80.3356 146.45 84.2284 151.603C86.7055 154.727 88.9481 158.031 90.9378 161.486" stroke="#242331" stroke-width="0.769171" stroke-linecap="round" stroke-linejoin="round"/>
<path d="M213.042 157.708C216.057 159.296 216.534 161.797 213.995 168.268" stroke="#242331" stroke-width="0.769171" stroke-linecap="round" stroke-linejoin="round"/>
<path d="M209.866 153.82C213.558 155.845 213.876 157.867 211.329 164.299" stroke="#242331" stroke-width="0.769171" stroke-linecap="round" stroke-linejoin="round"/>
<path d="M195.494 167.911C202.481 160.051 203.99 155.884 204.061 155.686" stroke="#242331" stroke-width="0.769171" stroke-linecap="round" stroke-linejoin="round"/>
<path d="M197.797 165.212C196.845 152.549 194.101 152.785 192.954 163.385C191.798 174.065 187.676 179.266 187.676 179.266C195.322 180.484 202.316 184.296 207.484 190.062" stroke="#242331" stroke-width="0.769171" stroke-linecap="round" stroke-linejoin="round"/>
<path d="M207.492 190.062C210.829 184.186 213.811 178.116 216.423 171.884C218.652 165.653 218.686 163.317 215.668 161.482" stroke="#242331" stroke-width="0.769171" stroke-linecap="round" stroke-linejoin="round"/>
<path d="M148.97 295.498L151.471 309.592L276.557 287.52L274.056 273.427" stroke="#242331" stroke-width="0.769171" stroke-linecap="round" stroke-linejoin="round"/>
<path d="M273.777 128.301C274.69 127.308 288.076 102.499 293.001 90.8651C296.657 82.2125 300.226 74.8031 301.892 74.7091C307.811 74.3685 302.368 97.3363 305.266 107.775C308.59 119.8 301.852 120.482 297.048 131.713" stroke="#242331" stroke-width="0.769171" stroke-linecap="round" stroke-linejoin="round"/>
<path d="M408.471 225.274C408.193 223.603 400.454 220.828 391.481 218.049C382.35 215.27 365.638 208.523 357.341 204.99C355.644 212.542 353.004 219.85 349.482 226.743C356.865 229.562 364.17 233.453 368.417 233.492C370.992 233.474 373.539 232.961 375.921 231.984C386.003 228.053 409.464 231.104 408.471 225.274Z" stroke="#242331" stroke-width="0.769171" stroke-linecap="round" stroke-linejoin="round"/>
<path d="M11.4971 195.977L19.2784 193.159" stroke="#242331" stroke-width="0.769171" stroke-linecap="round" stroke-linejoin="round"/>
<path d="M33.0527 188.156L40.834 185.298" stroke="#242331" stroke-width="0.769171" stroke-linecap="round" stroke-linejoin="round"/>
<path d="M20.8271 175.97L23.6459 183.752" stroke="#242331" stroke-width="0.769171" stroke-linecap="round" stroke-linejoin="round"/>
<path d="M28.6855 197.565L31.5043 205.307" stroke="#242331" stroke-width="0.769171" stroke-linecap="round" stroke-linejoin="round"/>
<path d="M12.0127 184.03L19.5161 187.561" stroke="#242331" stroke-width="0.769171" stroke-linecap="round" stroke-linejoin="round"/>
<path d="M32.8145 193.754L40.3178 197.248" stroke="#242331" stroke-width="0.769171" stroke-linecap="round" stroke-linejoin="round"/>
<path d="M32.7749 176.487L29.2812 183.99" stroke="#242331" stroke-width="0.769171" stroke-linecap="round" stroke-linejoin="round"/>
<path d="M23.09 197.288L19.5566 204.791" stroke="#242331" stroke-width="0.769171" stroke-linecap="round" stroke-linejoin="round"/>
<path d="M347.814 151.12L351.624 172.397" stroke="#242331" stroke-width="0.769171" stroke-linecap="round" stroke-linejoin="round"/>
<path d="M360.357 159.852L339.08 163.663" stroke="#242331" stroke-width="0.769171" stroke-linecap="round" stroke-linejoin="round"/>
<path d="M70.4082 278.509L71.2419 283.074" stroke="#242331" stroke-width="0.769171" stroke-linecap="round" stroke-linejoin="round"/>
<path d="M67.7088 288.156L63.1035 288.989" stroke="#242331" stroke-width="0.769171" stroke-linecap="round" stroke-linejoin="round"/>
<path d="M80.8867 285.813L76.3232 286.608" stroke="#242331" stroke-width="0.769171" stroke-linecap="round" stroke-linejoin="round"/>
<path d="M73.6237 296.253L72.79 291.689" stroke="#242331" stroke-width="0.769171" stroke-linecap="round" stroke-linejoin="round"/>
<path d="M76.3233 286.608C75.1806 286.812 74.0033 286.556 73.049 285.895C72.5768 285.567 72.174 285.149 71.8638 284.665C71.5536 284.181 71.3422 283.64 71.2416 283.074C71.4447 284.216 71.1862 285.392 70.5229 286.343C69.8596 287.294 68.8457 287.943 67.7041 288.148C68.8468 287.943 70.024 288.199 70.9783 288.86C71.4508 289.188 71.8537 289.606 72.1639 290.09C72.4741 290.574 72.6854 291.115 72.7858 291.681C72.5827 290.539 72.8412 289.363 73.5045 288.412C74.1678 287.461 75.1817 286.812 76.3233 286.608Z" stroke="#242331" stroke-width="0.769171" stroke-linecap="round" stroke-linejoin="round"/>
<path d="M281.252 114.757C271.128 109.635 261.56 108.488 259.617 112.176C257.632 115.937 264.381 123.372 274.741 128.771C285.1 134.17 295.067 135.478 297.05 131.707C276.381 174.809 253.012 220.563 225.357 259.256" stroke="#242331" stroke-width="0.769171" stroke-linecap="round" stroke-linejoin="round"/>
<path d="M119.99 243.693C117.464 241.349 112.8 241.718 108.676 243.614C102.286 213.088 97.6809 220.629 100.063 226.227C94.3857 214.912 87.4444 214.317 89.2643 223.289C90.1862 227.999 92.0058 232.487 94.6239 236.509C85.5722 224.083 85.0122 234.085 90.4157 241.668C93.3301 245.342 97.355 247.974 101.889 249.172C98.9513 253.769 100.867 258.436 108.001 262.074C110.871 263.536 113.704 265.068 116.497 266.671C117.761 267.396 114.712 261.184 112.646 260.716C107.65 259.584 108.559 255.114 111.971 256.349C115.467 257.603 112.289 253.842 109.033 251.942C112.268 248.678 115.959 245.9 119.99 243.693Z" stroke="#242331" stroke-width="0.769171" stroke-linecap="round" stroke-linejoin="round"/>
<path d="M232.374 249.172C251.609 242.529 269.924 233.472 286.879 222.217C305.298 223.329 323.445 229.641 341.344 239.326C349.146 229.221 354.6 217.505 357.309 205.029C340.283 195.578 321.938 188.726 302.884 184.702C296.821 183.412 290.505 184.05 284.823 186.528L264.855 195.263" stroke="#242331" stroke-width="0.769171" stroke-linecap="round" stroke-linejoin="round"/>
<path d="M221.218 337.579L218.201 350.281L227.769 348.494L224.712 361.198" stroke="#242331" stroke-width="0.769171" stroke-linecap="round" stroke-linejoin="round"/>
<path d="M276.834 145.681C265.968 166.879 244.004 208.88 227.49 235.676" stroke="#242331" stroke-width="0.769171" stroke-linecap="round" stroke-linejoin="round" stroke-dasharray="1.25 2.08"/>
<path d="M348.534 228.49C347.184 227.418 305.58 206.101 284.779 209.793C284.779 209.793 256.792 228.927 244.207 230.912" stroke="#242331" stroke-width="0.769171" stroke-linecap="round" stroke-linejoin="round" stroke-dasharray="1.31 2.18"/>
<path d="M231.662 58.802C227.597 58.8029 223.583 59.7049 219.909 61.4432C216.234 63.1815 212.991 65.7128 210.412 68.8549C207.833 71.997 205.983 75.6717 204.995 79.6146C204.007 83.5574 203.905 87.6704 204.697 91.6573C206.024 98.3544 209.796 104.318 215.278 108.387C220.76 112.457 227.56 114.341 234.354 113.673C241.149 113.004 247.452 109.832 252.036 104.773C256.621 99.7133 259.158 93.1292 259.156 86.3019C259.157 82.6907 258.447 79.1145 257.066 75.778C255.684 72.4414 253.659 69.41 251.105 66.857C248.553 64.3021 245.522 62.2755 242.185 60.8933C238.849 59.5111 235.273 58.8005 231.662 58.802Z" stroke="#242331" stroke-width="0.769171" stroke-linecap="round" stroke-linejoin="round"/>
<path d="M107.127 181.767C108.755 181.568 110.025 182.164 110.303 182.918C111.314 185.66 102.49 189.736 99.7028 190.777C95.9689 192.17 85.5507 194.843 84.5393 191.888C84.2844 191.14 84.8173 190.181 85.9289 189.149" stroke="#242331" stroke-width="0.769171" stroke-linecap="round" stroke-linejoin="round"/>
</svg>
