<svg width="155" height="155" viewBox="0 0 155 155" fill="none" xmlns="http://www.w3.org/2000/svg">
<path d="M88.514 51.843C88.6983 51.6733 88.8282 51.453 88.8876 51.2096C88.947 50.9663 88.9331 50.7108 88.8477 50.4753C88.7839 50.2991 88.6816 50.1392 88.5484 50.0073C88.4152 49.8754 88.2543 49.7748 88.0773 49.7128C87.9004 49.6507 87.7119 49.6288 87.5255 49.6486C87.3391 49.6683 87.1594 49.7293 86.9994 49.8271C86.8392 49.9243 86.7026 50.0559 86.5994 50.2124C86.4963 50.3688 86.4291 50.5462 86.4028 50.7317C86.3765 50.9173 86.3918 51.1063 86.4474 51.2853C86.5031 51.4642 86.5978 51.6286 86.7247 51.7665C86.8921 51.9542 87.1123 52.087 87.3565 52.1474C87.6007 52.2078 87.8575 52.1929 88.0931 52.1047C88.2492 52.0466 88.3923 51.957 88.514 51.843ZM84.7088 72.5741C84.7876 72.354 84.805 72.1166 84.759 71.8873C84.713 71.6581 84.6055 71.4457 84.4478 71.2731C84.3372 71.1474 84.2024 71.0455 84.0514 70.9733C83.9004 70.9011 83.7363 70.8602 83.5691 70.8531C83.4019 70.8459 83.235 70.8727 83.0783 70.9317C82.9217 70.9907 82.7787 71.0808 82.6577 71.1965C82.4783 71.3716 82.3518 71.5936 82.2925 71.8372C82.2332 72.0808 82.2436 72.3362 82.3225 72.5741C83.1169 72.62 83.9136 72.62 84.7088 72.5741ZM85.6808 57.8095C85.8657 57.6402 85.996 57.4198 86.0553 57.1763C86.1146 56.9328 86.1001 56.6771 86.0137 56.4418C85.949 56.2666 85.8464 56.1078 85.7131 55.9769C85.5798 55.8461 85.4192 55.7463 85.2428 55.6848C85.0664 55.6233 84.8786 55.6016 84.6929 55.6213C84.5071 55.641 84.328 55.7015 84.1684 55.7986C84.0088 55.8956 83.8727 56.0268 83.7698 56.1827C83.6668 56.3386 83.5997 56.5153 83.5732 56.7002C83.5466 56.8851 83.5613 57.0736 83.6162 57.2522C83.6711 57.4307 83.7648 57.5949 83.8907 57.7329C84.0581 57.9207 84.2783 58.0535 84.5225 58.1139C84.7667 58.1742 85.0235 58.1594 85.2591 58.0712C85.416 58.013 85.5591 57.9243 85.6808 57.8095ZM94.0695 60.7544C94.3163 60.5264 94.4629 60.21 94.4774 59.8743C94.4886 59.6239 94.425 59.3758 94.2945 59.1618C94.164 58.9478 93.9727 58.7775 93.745 58.6727C93.5177 58.5672 93.2643 58.5315 93.0167 58.5702C92.7691 58.6089 92.5386 58.7202 92.3544 58.8901C92.1683 59.0586 92.0369 59.2791 91.9772 59.5229C91.9174 59.7668 91.9321 60.023 92.0192 60.2585C92.1055 60.4937 92.26 60.6979 92.4631 60.8447C92.6661 60.9916 92.9083 61.0745 93.1588 61.0828C93.4932 61.0965 93.8208 60.9787 94.0695 60.7544ZM95.1134 53.6706C95.2976 53.5009 95.4276 53.2805 95.487 53.0372C95.5464 52.7939 95.5325 52.5384 95.4471 52.3029C95.3833 52.1267 95.281 51.9668 95.1478 51.8349C95.0146 51.703 94.8537 51.6024 94.6767 51.5403C94.4998 51.4783 94.3113 51.4564 94.1249 51.4762C93.9385 51.4959 93.7588 51.5569 93.5988 51.6547C93.4386 51.7519 93.302 51.8835 93.1988 52.04C93.0957 52.1964 93.0285 52.3738 93.0022 52.5593C92.9759 52.7449 92.9912 52.9339 93.0468 53.1129C93.1025 53.2918 93.1972 53.4562 93.3241 53.5941C93.5569 53.8329 93.8722 53.9739 94.2055 53.9881C94.5388 54.0023 94.8649 53.8888 95.1172 53.6706H95.1134ZM104.547 61.0544C104.688 60.9373 104.791 60.782 104.845 60.6067C104.791 60.4788 104.729 60.3543 104.659 60.234V60.1973C104.437 59.7474 104.188 59.3114 103.913 58.8916C103.913 58.8867 103.912 58.8818 103.911 58.8771C103.909 58.8727 103.906 58.8685 103.902 58.8648C103.899 58.8615 103.895 58.8589 103.89 58.8572C103.697 58.8177 103.498 58.8239 103.308 58.8752C103.117 58.9265 102.942 59.0215 102.795 59.1526C102.605 59.3188 102.47 59.5391 102.409 59.7839C102.348 60.0287 102.363 60.2865 102.452 60.5225C102.512 60.6794 102.602 60.8218 102.718 60.9427C102.95 61.1934 103.27 61.345 103.61 61.3658C103.951 61.3866 104.286 61.2751 104.547 61.0544ZM101.486 54.455C100.964 53.3736 100.815 53.1869 100.33 52.2922L100.292 52.3297C100.061 52.5607 99.9284 52.872 99.9215 53.1986C99.9147 53.5253 100.034 53.8419 100.256 54.0823C100.404 54.2559 100.599 54.3832 100.818 54.449C101.037 54.5148 101.27 54.5164 101.489 54.4535L101.486 54.455ZM95.669 67.0576C95.7955 67.1959 95.9511 67.3043 96.1245 67.375C96.298 67.4458 96.4851 67.4771 96.6721 67.4667C96.8592 67.4563 97.0416 67.4044 97.2061 67.3149C97.3707 67.2254 97.5133 67.1004 97.6237 66.949C97.7721 66.7471 97.8571 66.5056 97.8679 66.2552C97.8787 66.0049 97.8147 65.757 97.6841 65.5431C97.587 65.3829 97.4555 65.2464 97.2991 65.1432C97.1428 65.04 96.9655 64.9729 96.7801 64.9465C96.5946 64.9201 96.4056 64.9353 96.2267 64.9908C96.0478 65.0463 95.8835 65.1408 95.7456 65.2676C95.5592 65.4359 95.4276 65.6563 95.3679 65.9003C95.3081 66.1442 95.3229 66.4005 95.4104 66.636C95.4693 66.7921 95.5581 66.9344 95.6729 67.0561L95.669 67.0576ZM84.558 63.2547C84.3738 63.4244 84.2438 63.6448 84.1845 63.8881C84.1251 64.1315 84.139 64.3869 84.2244 64.6224C84.2885 64.7984 84.3909 64.958 84.5242 65.0897C84.6575 65.2213 84.8184 65.3217 84.9952 65.3837C85.172 65.4456 85.3604 65.4675 85.5467 65.4479C85.733 65.4282 85.9126 65.3674 86.0726 65.2698C86.2327 65.1726 86.3692 65.0411 86.4723 64.8847C86.5754 64.7283 86.6425 64.551 86.6688 64.3656C86.6951 64.1801 86.6799 63.9912 86.6243 63.8123C86.5687 63.6335 86.4741 63.4692 86.3474 63.3313C86.2365 63.2071 86.1017 63.1065 85.9512 63.0354C85.8007 62.9643 85.6374 62.9241 85.4711 62.9172C85.3048 62.91 85.1387 62.9359 84.9826 62.9936C84.8265 63.0513 84.6835 63.1396 84.5619 63.2532L84.558 63.2547ZM62.0782 65.3403C61.8934 65.5096 61.7631 65.7299 61.7036 65.9734C61.6442 66.2168 61.6584 66.4724 61.7444 66.7078C61.8303 66.9432 61.9842 67.1478 62.1866 67.2956C62.3889 67.4434 62.6306 67.5279 62.881 67.5383C63.1312 67.5489 63.3789 67.4851 63.5928 67.355C63.8068 67.2249 63.9774 67.0342 64.083 66.8072C64.1887 66.5802 64.2247 66.3269 64.1864 66.0794C64.1482 65.832 64.0375 65.6014 63.8682 65.4168C63.757 65.2922 63.6219 65.1912 63.471 65.1197C63.32 65.0482 63.1562 65.0076 62.9894 65.0005C62.8225 64.9934 62.6559 65.0198 62.4994 65.0781C62.3429 65.1365 62.1996 65.2256 62.0782 65.3403ZM69.2722 53.7441C69.4568 53.5747 69.587 53.3543 69.6464 53.1109C69.7057 52.8675 69.6916 52.612 69.6057 52.3767C69.5198 52.1413 69.3661 51.9367 69.1639 51.7887C68.9618 51.6408 68.7202 51.5561 68.4699 51.5454C68.2196 51.5347 67.9718 51.5984 67.7577 51.7286C67.5437 51.8588 67.373 52.0495 67.2674 52.2767C67.1617 52.5038 67.1258 52.7572 67.1641 53.0048C67.2025 53.2524 67.3134 53.483 67.4829 53.6675C67.7147 53.9077 68.0299 54.0495 68.3634 54.0638C68.6969 54.078 69.0231 53.9635 69.2745 53.7441H69.2722ZM62.5978 57.4727C62.598 57.2218 62.5237 56.9766 62.3844 56.7679C62.2451 56.5592 62.0471 56.3966 61.8153 56.3005C61.5836 56.2044 61.3285 56.1792 61.0825 56.2281C60.8364 56.277 60.6104 56.3978 60.433 56.5752C60.2556 56.7526 60.1348 56.9787 60.0859 57.2247C60.0369 57.4708 60.0621 57.7259 60.1582 57.9576C60.2543 58.1894 60.4169 58.3874 60.6256 58.5267C60.8343 58.666 61.0796 58.7402 61.3304 58.7401C61.4974 58.7418 61.663 58.7103 61.8176 58.6473C61.9723 58.5843 62.1128 58.4911 62.231 58.3732C62.3492 58.2552 62.4427 58.115 62.5061 57.9605C62.5695 57.806 62.6014 57.6404 62.6001 57.4735L62.5978 57.4727ZM74.6417 55.6834C74.8112 55.8678 75.0316 55.9977 75.2749 56.0569C75.5183 56.1161 75.7737 56.1018 76.0089 56.0158C76.2441 55.9299 76.4486 55.7761 76.5965 55.574C76.7443 55.3719 76.829 55.1305 76.8396 54.8802C76.8503 54.63 76.7866 54.3823 76.6565 54.1683C76.5265 53.9543 76.3359 53.7836 76.1088 53.6779C75.8818 53.5722 75.6285 53.5362 75.381 53.5744C75.1335 53.6126 74.9029 53.7233 74.7183 53.8925C74.5949 54.0048 74.495 54.1403 74.4244 54.2915C74.3538 54.4426 74.3139 54.6062 74.307 54.7728C74.3001 54.9395 74.3263 55.1058 74.3842 55.2623C74.442 55.4187 74.5303 55.5621 74.644 55.6842L74.6417 55.6834ZM65.6208 58.1462C65.4363 58.3156 65.306 58.5359 65.2467 58.7793C65.1873 59.0227 65.2015 59.2782 65.2874 59.5136C65.3732 59.7489 65.527 59.9535 65.7291 60.1015C65.9313 60.2495 66.1728 60.3342 66.4231 60.3449C66.6734 60.3556 66.9213 60.2918 67.1353 60.1617C67.3494 60.0315 67.52 59.8408 67.6257 59.6136C67.7313 59.3864 67.7673 59.1331 67.7289 58.8855C67.6905 58.6379 67.5796 58.4073 67.4102 58.2227C67.1817 57.9775 66.866 57.8321 66.5312 57.8177C66.1964 57.8034 65.8694 57.9214 65.6208 58.1462ZM74.0471 67.3186C73.8629 67.488 73.733 67.7082 73.6739 67.9514C73.6148 68.1946 73.6291 68.4499 73.715 68.6849C73.8009 68.92 73.9546 69.1243 74.1566 69.2721C74.3586 69.4198 74.5998 69.5044 74.8498 69.5151C75.0999 69.5258 75.3475 69.4621 75.5613 69.3321C75.7752 69.2021 75.9458 69.0117 76.0514 68.7848C76.1571 68.5579 76.1931 68.3048 76.155 68.0575C76.1168 67.8102 76.0063 67.5797 75.8372 67.3952C75.726 67.2705 75.5909 67.1695 75.44 67.0979C75.2891 67.0263 75.1254 66.9857 74.9586 66.9784C74.7917 66.9711 74.6251 66.9974 74.4686 67.0555C74.312 67.1137 74.1687 67.2026 74.0471 67.3171V67.3186ZM74.2705 48.862C74.4933 48.6564 74.6348 48.3776 74.6691 48.0763C74.7034 47.7751 74.6282 47.4716 74.4573 47.2212C73.6613 47.3651 72.8853 47.6023 72.1452 47.9299C72.1468 48.2475 72.2669 48.5529 72.4812 48.787C72.5921 48.9123 72.7271 49.0138 72.8781 49.0856C73.0292 49.1573 73.1932 49.1979 73.3602 49.2047C73.5273 49.2116 73.6941 49.1846 73.8505 49.1255C74.0069 49.0663 74.1498 48.9762 74.2705 48.8605V48.862ZM73.4134 62.3547C73.6645 62.3549 73.91 62.2805 74.1188 62.1411C74.3276 62.0016 74.4904 61.8034 74.5865 61.5714C74.6826 61.3394 74.7077 61.0841 74.6586 60.8379C74.6095 60.5916 74.4885 60.3655 74.3109 60.188C74.1332 60.0106 73.9069 59.8898 73.6606 59.8411C73.4143 59.7923 73.159 59.8177 72.9271 59.9141C72.6953 60.0105 72.4972 60.1735 72.358 60.3824C72.2188 60.5914 72.1448 60.837 72.1452 61.0881C72.1488 61.4233 72.2836 61.7437 72.5207 61.9806C72.7578 62.2175 73.0782 62.3521 73.4134 62.3555V62.3547ZM125.685 102.214C125.253 99.1814 124.413 96.2209 123.187 93.4131C122.299 91.695 122.329 90.9151 120.018 91.5488C118.116 92.0708 104.47 96.0604 103.127 96.6199C102.866 87.224 101.657 81.2468 98.5413 75.516C97.9114 74.3581 96.6395 73.0922 94.8869 71.1537C89.5181 73.6892 75.4239 72.421 75.4239 72.421C75.4239 72.421 70.3437 92.1067 68.712 101.392C67.7779 105.821 68.3282 110.433 70.2778 114.518C76.1992 127.605 78.7477 132.766 81.949 139.126C82.944 141.107 84.105 140.274 85.6402 139.203C87.1999 138.112 91.5684 135.101 91.5684 135.101C91.974 134.89 92.2901 134.541 92.4608 134.117C92.632 133.693 92.6461 133.222 92.5006 132.789C90.0095 124.505 87.0975 116.354 83.7759 108.367C83.0649 106.653 83.4774 105.682 84.1111 104.415C85.3792 101.879 87.7655 96.8081 87.7655 96.8081C88.9962 100.052 90.2612 104.079 92.6123 108.106C95.444 112.954 98.6515 114.884 103.537 113.699C108.793 112.423 123.262 106.131 124.455 105.608C125.987 104.94 125.978 104.12 125.688 102.217L125.685 102.214Z" fill="#EFECFF"/>
<path d="M51.0039 85.811C51.4134 86.519 52.3455 88.4583 53.2777 90.3601C57.8222 88.1529 53.7124 84.2222 51.0039 85.811Z" fill="#5236FF"/>
<path d="M59.8034 71.3096C59.9535 70.4586 60.0537 69.5991 60.1019 68.7366C59.6175 69.035 57.5664 69.9297 57.5664 69.9297C58.1771 70.5792 58.9489 71.0554 59.8034 71.3096Z" fill="#5236FF"/>
<path d="M130.646 25.5937C131.021 25.8115 131.435 25.9532 131.865 26.011C132.294 26.0687 132.731 26.0413 133.15 25.9303C133.569 25.8192 133.962 25.6267 134.307 25.3638C134.651 25.1009 134.941 24.7727 135.158 24.3979C135.376 24.0231 135.518 23.6091 135.576 23.1795C135.633 22.75 135.606 22.3132 135.495 21.8942C135.384 21.4753 135.191 21.0823 134.929 20.7377C134.666 20.3931 134.337 20.1037 133.963 19.8859C133.206 19.4462 132.305 19.3251 131.459 19.5494C130.613 19.7736 129.89 20.3248 129.451 21.0817C129.011 21.8386 128.89 22.7392 129.114 23.5854C129.338 24.4315 129.89 25.154 130.646 25.5937Z" fill="#5236FF"/>
<path d="M13.3103 89.8643C13.3103 89.8643 12.9858 90.0219 11.9656 90.5462C9.24338 91.9444 11.4391 96.3833 14.2394 94.985C15.2711 94.4692 15.9484 94.046 15.9484 94.046C14.8494 92.8034 13.9585 91.3913 13.3103 89.8643Z" fill="#5236FF"/>
<path d="M69.0133 61.7614C70.0963 57.725 70.9619 55.8056 65.8066 68.249C70.3221 66.0548 69.8552 66.3051 69.908 66.198C69.4213 65.5805 69.0866 64.8572 68.9312 64.0864C68.7758 63.3157 68.8039 62.5192 69.0133 61.7614Z" fill="#5236FF"/>
<path d="M34.7842 78.8757C35.7147 80.1235 36.3278 81.5789 36.5704 83.1164C37.4976 82.7821 38.3964 82.3739 39.2583 81.8957C38.9577 81.176 38.609 80.4775 38.2144 79.8048C38.0624 79.5065 37.8495 79.2433 37.5896 79.0323C37.3297 78.8213 37.0285 78.667 36.7053 78.5795C36.3822 78.4919 36.0443 78.4731 35.7134 78.5241C35.3825 78.5751 35.066 78.6949 34.7842 78.8757Z" fill="#5236FF"/>
<path d="M130.536 91.9252C129.277 89.5948 127.539 90.1596 125.166 91.4783C126.467 92.187 127.913 92.8674 128.41 93.4919C130.111 95.9602 131.419 98.6768 132.288 101.545C132.404 102.095 132.408 102.662 132.299 103.214C132.19 103.765 131.97 104.288 131.654 104.752C133.966 106.43 135.682 107.698 135.494 105.349C135.235 102.105 132.422 95.4174 130.536 91.9252Z" fill="#5236FF"/>
<path d="M95.8588 43.044C95.747 39.7248 92.4661 39.1286 90.676 39.3528C90.7525 35.0272 87.4693 33.8341 85.605 33.4981C84.6261 28.9612 76.7012 26.8956 74.4565 30.9258C73.8151 32.0738 74.3447 33.7223 75.3511 34.878C71.8743 34.2458 69.6066 38.5462 71.921 41.2172C66.9991 41.5149 66.5514 46.8094 69.3112 49.2707C74.6792 46.3425 77.7749 47.2326 78.6925 46.6066C79.2292 46.1183 79.7288 45.5908 80.1872 45.0285C80.2438 44.9755 80.2833 44.9069 80.3008 44.8314C80.3182 44.7559 80.3128 44.6769 80.2852 44.6045C80.2566 44.5324 80.2072 44.4704 80.1433 44.4264C80.0794 44.3824 80.0038 44.3583 79.9263 44.3573C78.8747 44.3573 76.8879 44.7124 75.8631 44.1277C74.2506 43.2093 74.3769 42.1072 75.4636 39.5357C76.268 37.6301 77.3395 34.8749 79.3408 34.8749C81.8021 34.8749 82.4136 36.44 82.51 37.8206C82.5988 39.0872 81.4737 40.4572 82.1373 40.9148C82.4013 41.0978 82.7342 40.8383 83.1444 40.6164C84.8955 39.8388 85.9448 42.5519 83.5914 43.8231C83.1843 44.0285 82.8264 44.3195 82.5422 44.6762C82.2581 45.0328 82.0544 45.4467 81.9452 45.8895C81.8348 46.3317 81.8214 46.7926 81.9061 47.2404C81.9908 47.6883 82.1715 48.1125 82.4358 48.4839C83.4934 50.1523 86.6864 50.535 87.8795 48.2237C88.5339 48.9217 89.4371 49.3337 90.3932 49.3703C91.3493 49.407 92.2813 49.0654 92.9873 48.4196C93.4543 47.9918 93.8015 47.4494 93.9944 46.8461C96.9027 48.6354 98.5435 49.6778 99.4382 51.0967C102.123 48.5995 100.333 43.4167 95.8588 43.044Z" fill="#5236FF"/>
<path d="M93.3974 136.93C92.8012 138.421 92.3114 140.169 91.7198 140.808C89.5249 142.845 87.0188 144.519 84.2961 145.767C83.3835 146.11 82.377 146.11 81.4644 145.767C80.0478 148.489 78.8149 150.68 81.2785 150.052C84.4071 149.258 90.9889 144.518 94.142 142.073C96.3462 140.369 95.1308 139.064 93.3974 136.93Z" fill="#5236FF"/>
<path d="M94.8868 71.1949C92.5623 68.4727 90.4788 65.5535 88.6602 62.4702C89.1821 65.1182 91.2699 69.7041 92.2771 71.9036C93.1638 71.7343 94.0363 71.4974 94.8868 71.1949Z" fill="#5236FF"/>
<path d="M81.8767 46.5485C81.843 45.9769 81.9767 45.4079 82.2615 44.9112C82.5463 44.4145 82.9698 44.0116 83.4801 43.752C84.4183 43.2032 84.8997 42.7831 84.9717 41.8509C85.0482 40.8445 84.3762 40.181 83.6293 40.3202C82.9964 40.4396 82.5035 41.0726 82.1377 40.693C81.6433 40.1802 82.6198 38.9411 82.5854 37.748C82.621 37.1331 82.4544 36.5234 82.1109 36.0121C81.7675 35.5008 81.2662 35.1159 80.6836 34.9163C78.8988 34.3806 77.8128 35.028 76.9549 36.5196C75.9784 38.1592 75.2392 39.9289 74.7592 41.7759C74.453 43.1917 75.2811 44.2716 76.8845 44.4982C77.4911 44.5634 78.1014 44.589 78.7113 44.5747L77.9659 46.6625L76.5485 46.8156C76.5485 46.8156 76.2064 48.0814 76.0265 48.6799C75.3684 50.8726 76.4735 53.1731 78.4503 53.1915C81.2093 53.2175 82.5311 51.3333 83.1487 49.5378C83.1869 49.4261 83.2252 49.3143 83.2604 49.1651C82.8428 48.866 82.5004 48.4739 82.2602 48.0198C82.0201 47.5657 81.8888 47.062 81.8767 46.5485Z" stroke="#242331" stroke-width="0.769171" stroke-linecap="round" stroke-linejoin="round"/>
<path d="M69.8335 66.2738L59.8406 71.1566C59.8406 71.1566 60.6059 68.543 59.7289 64.1845C59.0751 61.4543 58.189 58.7851 57.0801 56.206L66.7745 50.613C71.4353 48.0032 73.2996 47.1828 76.5806 46.8093" stroke="#242331" stroke-width="0.769171" stroke-linecap="round" stroke-linejoin="round"/>
<path d="M71.1761 53.4836L68.9758 61.7614C68.7737 62.526 68.7492 63.3268 68.9044 64.1023C69.0597 64.8779 69.3904 65.6075 69.8713 66.2355C69.908 66.273 69.9478 66.3472 69.983 66.3847C71.0644 67.7271 72.8147 69.6657 75.4635 72.3542C91.8698 73.1372 99.4388 72.6145 105.293 61.355C102.682 56.6192 99.5307 51.0384 99.448 50.9083C98.6957 49.7198 97.4788 48.8006 95.4117 47.5592C94.9678 47.2914 94.517 46.9998 93.9951 46.6638C93.8008 47.266 93.4529 47.8071 92.9855 48.2337C92.5182 48.6602 91.9476 48.9575 91.3302 49.096C90.7131 49.235 90.0704 49.2108 89.4654 49.0259C88.8605 48.841 88.3141 48.5017 87.8801 48.0414C86.948 49.9057 84.6734 50.0175 83.2568 49.1228" stroke="#242331" stroke-width="0.769171" stroke-linecap="round" stroke-linejoin="round"/>
<path d="M78.7819 59.0769L78.3724 62.4696C78.2811 63.2596 78.3715 64.06 78.6368 64.8097C78.9021 65.5594 79.3352 66.2385 79.9031 66.7952C79.9406 66.8319 79.9758 66.8717 80.0523 66.9483C80.4534 67.3309 80.9095 67.7312 81.4299 68.1782" stroke="#242331" stroke-width="0.769171" stroke-linecap="round" stroke-linejoin="round"/>
<path d="M99.4607 50.9247C99.8135 50.6188 100.102 50.2459 100.31 49.8276C100.517 49.4093 100.64 48.9539 100.67 48.4879C100.75 47.4702 100.519 46.4522 100.009 45.5681C99.4985 44.6839 98.7324 43.975 97.8114 43.5347C97.2004 43.2421 96.5367 43.0753 95.8599 43.0441C95.8599 40.8071 93.8838 39.0912 90.6771 39.353C90.9381 36.78 89.0362 33.9835 85.606 33.4982C84.7114 30.1806 80.9452 28.6484 78.8199 28.7257C75.8742 28.8328 73.9983 30.4423 74.2341 32.3801C74.3588 33.2985 74.7621 34.1572 75.3897 34.8406C75.1684 34.797 74.9439 34.7714 74.7185 34.7641C74.2237 34.7729 73.7355 34.8794 73.2819 35.0774C72.8284 35.2754 72.4183 35.5609 72.0754 35.9177C71.7324 36.2746 71.4633 36.6956 71.2835 37.1566C71.1036 37.6177 71.0166 38.1097 71.0274 38.6045C71.0337 39.5324 71.3633 40.429 71.9595 41.14C66.7767 41.4385 66.7767 47.1096 69.349 49.1935" stroke="#242331" stroke-width="0.769171" stroke-linecap="round" stroke-linejoin="round"/>
<path d="M45.4367 41.1237C43.2823 37.7425 42.354 35.996 42.3907 34.9529C42.4274 33.9097 43.1736 33.6855 43.7683 34.2442C46.35 36.8175 48.7307 39.5849 50.8896 42.5219C51.821 44.2378 52.2014 46.5085 53.1642 48.5994C53.765 49.9004 57.0796 56.2067 57.0796 56.2067" stroke="#242331" stroke-width="0.769171" stroke-linecap="round" stroke-linejoin="round"/>
<path d="M48.0952 49.569C47.1051 48.172 46.3495 46.6228 45.8582 44.9824C43.7329 44.3487 42.578 43.826 42.0928 43.2298C41.4231 42.4086 41.7193 41.664 42.5773 41.664C44.7473 41.6067 46.9156 41.8323 49.0274 42.3352" stroke="#242331" stroke-width="0.769171" stroke-linecap="round" stroke-linejoin="round"/>
<path d="M43.1817 41.667C40.4403 38.5153 38.7742 36.2576 38.6999 35.2137C38.6257 34.1698 39.3015 33.8637 40.001 34.3558C40.79 34.9076 41.7911 35.7724 42.8327 36.6678" stroke="#242331" stroke-width="0.769171" stroke-linecap="round" stroke-linejoin="round"/>
<path d="M38.0283 38.5323C37.3571 38.1956 36.8076 38.6777 37.0594 39.688C37.4856 41.3992 39.5627 44.7184 40.4895 46.1756C42.0271 48.594 43.4039 49.3441 43.8447 51.3584C48.2293 71.3678 52.5296 71.9326 56.3356 70.4862C58.0124 69.8486 60.1393 68.7711 60.1393 68.7711" stroke="#242331" stroke-width="0.769171" stroke-linecap="round" stroke-linejoin="round"/>
<path d="M41.5296 43.4764C38.9444 40.2223 37.3969 37.8896 37.3571 36.8541C37.3173 35.8186 38.0237 35.5178 38.6995 36.0336C38.8479 36.1469 38.9979 36.2946 39.1847 36.4439" stroke="#242331" stroke-width="0.769171" stroke-linecap="round" stroke-linejoin="round"/>
<path d="M44.3076 41.6916C45.1855 41.2204 46.0896 40.7996 47.0153 40.4312" stroke="#242331" stroke-width="0.769171" stroke-linecap="round" stroke-linejoin="round"/>
<path d="M40.3779 44.4232C40.8966 43.959 41.4439 43.5278 42.0165 43.1321" stroke="#242331" stroke-width="0.769171" stroke-linecap="round" stroke-linejoin="round"/>
<path d="M116.743 48.1104C118.791 45.1302 119.666 43.5284 119.651 42.5235C119.632 41.4796 118.944 41.2225 118.309 41.7773C115.633 44.2562 113.151 46.9363 110.885 49.7941C109.912 51.4702 109.431 53.7087 108.387 55.7973C107.98 56.6109 106.378 59.4326 105.292 61.3528" stroke="#242331" stroke-width="0.769171" stroke-linecap="round" stroke-linejoin="round"/>
<path d="M115.583 57.7712C115.64 56.068 115.413 54.3672 114.912 52.7384C116.329 51.0233 116.996 49.9786 117.075 49.1949C117.18 48.151 116.511 47.6972 115.807 48.1518C114.303 49.0949 112.903 50.1949 111.631 51.4335" stroke="#242331" stroke-width="0.769171" stroke-linecap="round" stroke-linejoin="round"/>
<path d="M117.688 50.2532C118.68 48.8955 118.823 48.7348 119.722 47.4804C120.904 45.8319 122.059 45.3451 122.854 44.4191C123.696 43.4395 123.299 42.2509 122.369 42.5923C120.575 43.252 120.058 43.4502 119.126 44.2331" stroke="#242331" stroke-width="0.769171" stroke-linecap="round" stroke-linejoin="round"/>
<path d="M118.944 51.3897C119.911 50.2372 120.543 49.4558 121.027 48.9346C121.996 47.8907 123.195 47.9741 124.234 47.3312C125.245 46.706 125.202 45.3077 124.234 45.4302C121.769 45.7401 121.172 45.8404 120.654 46.3623" stroke="#242331" stroke-width="0.769171" stroke-linecap="round" stroke-linejoin="round"/>
<path d="M88.6631 62.4699C90.6294 65.8352 92.9276 68.9952 95.5235 71.9026C97.6212 74.2062 100.483 76.5634 101.974 77.1986C105.741 78.7997 112.701 78.714 117.672 58.8155C118.091 57.1395 119.174 56.5854 120.282 54.7884C121.45 52.8942 121.168 52.0233 122.146 50.7628C122.552 50.237 123.605 50.3969 124.682 49.7923C125.73 49.2038 125.764 47.8216 124.758 47.9655C122.299 48.3153 121.697 48.264 121.216 48.7852" stroke="#242331" stroke-width="0.769171" stroke-linecap="round" stroke-linejoin="round"/>
<path d="M119.947 52.7007C119.181 51.4987 118.155 50.4835 116.945 49.7297" stroke="#242331" stroke-width="0.769171" stroke-linecap="round" stroke-linejoin="round"/>
<path d="M75.3891 72.4998C75.3891 72.4998 70.3088 92.1847 68.6772 101.471C67.7426 105.899 68.2932 110.512 70.2438 114.596C76.1643 127.683 78.7136 132.844 81.9142 139.205C82.9091 141.185 84.0709 140.353 85.6054 139.281C87.1651 138.191 91.5336 135.18 91.5336 135.18C91.9396 134.969 92.2569 134.621 92.4279 134.196C92.5989 133.772 92.6123 133.301 92.4658 132.868C89.9714 124.585 87.0595 116.434 83.7411 108.446C83.0308 106.731 83.4426 105.761 84.077 104.493C85.3444 101.958 87.7307 96.8868 87.7307 96.8868" stroke="#242331" stroke-width="0.769171" stroke-linecap="round" stroke-linejoin="round"/>
<path d="M84.4863 86.2957C88.6627 100.091 89.7671 103.233 92.5781 108.146C95.3585 113.002 98.6165 114.924 103.502 113.738C108.758 112.463 123.23 106.177 124.42 105.647C125.991 104.948 125.959 104.116 125.688 102.217C125.273 99.1802 124.432 96.2173 123.19 93.4155C122.302 91.6974 122.332 90.9175 120.02 91.5512C118.119 92.0731 104.472 96.0628 103.13 96.6222C102.869 87.2263 101.228 77.7187 96.642 73.0579" stroke="#242331" stroke-width="0.769171" stroke-linecap="round" stroke-linejoin="round"/>
<path d="M83.5553 140.398C83.1076 144.574 77.2536 151.099 81.2808 150.092C84.4125 149.309 90.9912 144.557 94.1443 142.113C95.1936 141.299 95.861 140.322 94.778 138.72C93.8756 137.442 92.8652 136.245 91.7581 135.14" stroke="#242331" stroke-width="0.769171" stroke-linecap="round" stroke-linejoin="round"/>
<path d="M125.613 101.657C130.052 102.03 135.873 109.599 135.531 105.311C135.276 102.104 132.451 95.385 130.573 91.9257C129.944 90.767 129.042 89.8594 127.03 90.6201C125.6 91.2148 124.227 91.9387 122.929 92.7829" stroke="#242331" stroke-width="0.769171" stroke-linecap="round" stroke-linejoin="round"/>
<path d="M32.7344 76.527C33.4362 76.1677 34.2023 75.9511 34.9884 75.8899C35.7745 75.8286 36.5649 75.9238 37.3139 76.17C38.0629 76.4162 38.7557 76.8085 39.3521 77.3241C39.9486 77.8398 40.4368 78.4686 40.7887 79.1742C40.983 79.5799 41.5716 80.7401 41.5716 80.7401" stroke="#242331" stroke-width="0.769171" stroke-linecap="round" stroke-linejoin="round"/>
<path d="M59.3566 102.217L62.2648 107.884C62.994 109.308 63.1287 110.964 62.6394 112.488C62.1501 114.011 61.0766 115.279 59.6543 116.012L33.8912 129.249C31.3842 130.539 28.4676 130.781 25.7827 129.92C23.0978 129.06 20.8644 127.169 19.5735 124.663L5.5527 97.2543C4.82366 95.8299 4.68897 94.1746 5.17815 92.6511C5.66733 91.1276 6.74049 89.8602 8.16246 89.1265L12.6366 86.8145" stroke="#242331" stroke-width="0.769171" stroke-linecap="round" stroke-linejoin="round"/>
<path d="M15.8066 93.9388C22.8163 90.3226 41.5713 80.74 41.5713 80.74C42.9956 80.0107 44.651 79.8759 46.1745 80.3651C47.6981 80.8543 48.9655 81.9276 49.6991 83.3497L53.2785 90.3226" stroke="#242331" stroke-width="0.769171" stroke-linecap="round" stroke-linejoin="round"/>
<path d="M51.0041 85.811C51.3663 85.6243 51.7617 85.511 52.1678 85.4774C52.5738 85.4437 52.9825 85.4905 53.3705 85.615C53.7585 85.7397 54.1181 85.9397 54.4285 86.2037C54.739 86.4677 54.9943 86.7904 55.1797 87.1534L60.7727 98.0034C60.9596 98.3655 61.0731 98.761 61.1068 99.1671C61.1405 99.5733 61.0936 99.982 60.9689 100.37C60.8441 100.758 60.644 101.117 60.38 101.428C60.116 101.738 59.7932 101.994 59.4303 102.179L59.3928 102.216L48.5084 107.809C48.1462 107.996 47.7507 108.109 47.3447 108.143C46.9386 108.177 46.5299 108.13 46.142 108.005C45.754 107.881 45.3944 107.681 45.0839 107.417C44.7734 107.153 44.5182 106.83 44.3327 106.467L41.0518 100.129C40.8647 99.7668 40.7508 99.3715 40.7168 98.9655C40.6829 98.5595 40.7294 98.1508 40.8537 97.7628C40.9781 97.3749 41.1779 97.0153 41.4416 96.7047C41.7053 96.3941 42.0277 96.1387 42.3904 95.9531L53.3529 90.3233" stroke="#242331" stroke-width="0.769171" stroke-linecap="round" stroke-linejoin="round"/>
<path d="M55.1803 87.1521C55.6656 88.121 54.8451 89.5384 53.3535 90.3213" stroke="#242331" stroke-width="0.769171" stroke-linecap="round" stroke-linejoin="round"/>
<path d="M48.916 103.969C49.9346 103.969 50.9115 103.565 51.6318 102.844C52.3521 102.124 52.7568 101.147 52.7568 100.128C52.7568 99.1097 52.3521 98.1328 51.6318 97.4125C50.9115 96.6923 49.9346 96.2876 48.916 96.2876C47.8973 96.2876 46.9204 96.6923 46.2001 97.4125C45.4798 98.1328 45.0752 99.1097 45.0752 100.128C45.0752 101.147 45.4798 102.124 46.2001 102.844C46.9204 103.565 47.8973 103.969 48.916 103.969Z" stroke="#242331" stroke-width="0.769171" stroke-linecap="round" stroke-linejoin="round"/>
<path d="M25.5378 73.5812C23.1151 73.4239 20.7009 73.9967 18.6072 75.2256C16.5134 76.4545 14.8362 78.2831 13.7924 80.4751C12.7486 82.667 12.3861 85.1216 12.7517 87.5217C13.1173 89.9218 14.1943 92.1571 15.8434 93.9388L36.6863 83.2756C36.1395 80.665 34.7542 78.3048 32.7414 76.5546C30.7287 74.8044 28.199 73.7602 25.5378 73.5812Z" stroke="#242331" stroke-width="0.769171" stroke-linecap="round" stroke-linejoin="round"/>
<path d="M15.9167 89.353C15.3469 88.0124 15.104 86.5554 15.2081 85.1024C15.3242 83.3595 15.9139 81.6812 16.9135 80.2487C17.9132 78.8162 19.2848 77.6836 20.8806 76.9731" stroke="#242331" stroke-width="0.769171" stroke-linecap="round" stroke-linejoin="round"/>
<path d="M34.2237 84.5062C34.1099 83.5345 33.8325 82.5889 33.4033 81.7097" stroke="#242331" stroke-width="0.769171" stroke-linecap="round" stroke-linejoin="round"/>
<path d="M25.9111 76.2285C27.4533 76.4122 28.9265 76.9755 30.197 77.8686" stroke="#242331" stroke-width="0.769171" stroke-linecap="round" stroke-linejoin="round"/>
<path d="M19.4602 65.3033C27.141 65.3033 33.3677 59.0766 33.3677 51.3958C33.3677 43.715 27.141 37.4883 19.4602 37.4883C11.7794 37.4883 5.55273 43.715 5.55273 51.3958C5.55273 59.0766 11.7794 65.3033 19.4602 65.3033Z" stroke="#242331" stroke-width="0.769171" stroke-linecap="round" stroke-linejoin="round"/>
<path d="M8.65137 53.1855C8.9831 55.1565 9.84566 56.9998 11.1464 58.5173C12.447 60.0348 14.1367 61.1692 16.0337 61.7985C17.6179 62.3266 19.3016 62.4804 20.9555 62.2462" stroke="#242331" stroke-width="0.769171" stroke-linecap="round" stroke-linejoin="round"/>
<path d="M9.28125 47.3688C9.93539 45.7111 10.9866 44.2394 12.3426 43.083" stroke="#242331" stroke-width="0.769171" stroke-linecap="round" stroke-linejoin="round"/>
<path d="M26.3584 59.8971C27.7443 58.7882 28.8337 57.353 29.5291 55.72" stroke="#242331" stroke-width="0.769171" stroke-linecap="round" stroke-linejoin="round"/>
<path d="M17.5215 40.6204C18.983 40.3551 20.4832 40.3908 21.9305 40.7251C23.3778 41.0595 24.7416 41.6856 25.9386 42.565C27.1357 43.4445 28.1407 44.5589 28.8924 45.8401C29.644 47.1213 30.1264 48.5423 30.3101 50.0163" stroke="#242331" stroke-width="0.769171" stroke-linecap="round" stroke-linejoin="round"/>
<path d="M139.297 61.2395C141.023 62.0568 142.512 63.3016 143.622 64.8557C144.731 66.4098 145.426 68.2218 145.638 70.1195C145.851 72.0173 145.576 73.938 144.838 75.6994C144.1 77.4607 142.924 79.0043 141.422 80.1836C139.919 81.3623 138.141 82.1376 136.254 82.4361C134.368 82.7345 132.437 82.5461 130.644 81.8887C128.851 81.2304 127.256 80.1251 126.011 78.6776C124.765 77.2302 123.91 75.4886 123.526 73.6179C123.295 72.5277 123.232 71.4086 123.339 70.2994" stroke="#242331" stroke-width="0.769171" stroke-linecap="round" stroke-linejoin="round"/>
<path d="M138.74 63.6257C139.921 64.2726 140.942 65.1774 141.725 66.273C142.657 67.5844 143.21 69.1275 143.321 70.7326C143.433 72.3376 143.1 73.9424 142.359 75.3704" stroke="#242331" stroke-width="0.769171" stroke-linecap="round" stroke-linejoin="round"/>
<path d="M125.725 70.8965C125.607 72.8658 126.173 74.8154 127.329 76.4145C128.177 77.6104 129.303 78.5822 130.61 79.2462" stroke="#242331" stroke-width="0.769171" stroke-linecap="round" stroke-linejoin="round"/>
<path d="M135.159 80.1431C136.586 80.0358 137.966 79.5898 139.186 78.842" stroke="#242331" stroke-width="0.769171" stroke-linecap="round" stroke-linejoin="round"/>
<path d="M54.5092 27.3463C60.6869 27.3463 65.6952 22.3381 65.6952 16.1604C65.6952 9.98265 60.6869 4.97437 54.5092 4.97437C48.3315 4.97437 43.3232 9.98265 43.3232 16.1604C43.3232 22.3381 48.3315 27.3463 54.5092 27.3463Z" stroke="#242331" stroke-width="0.769171" stroke-linecap="round" stroke-linejoin="round"/>
<path d="M46.3804 12.7305C45.7517 14.21 45.541 15.8337 45.7712 17.4247C46.0014 19.0157 46.6638 20.513 47.686 21.7536C48.5484 22.7879 49.6312 23.6161 50.8553 24.1774" stroke="#242331" stroke-width="0.769171" stroke-linecap="round" stroke-linejoin="round"/>
<path d="M55.5166 24.881C56.939 24.727 58.299 24.2139 59.4687 23.3901" stroke="#242331" stroke-width="0.769171" stroke-linecap="round" stroke-linejoin="round"/>
<path d="M62.675 12.8389C63.1345 13.9622 63.3552 15.1688 63.323 16.3821C63.2909 17.5953 63.0066 18.7886 62.4883 19.886" stroke="#242331" stroke-width="0.769171" stroke-linecap="round" stroke-linejoin="round"/>
<path d="M49.3262 9.03907C50.4885 8.20606 51.8292 7.65574 53.2416 7.43188" stroke="#242331" stroke-width="0.769171" stroke-linecap="round" stroke-linejoin="round"/>
<path d="M61.2948 10.5635C60.3574 9.44522 59.1693 8.56393 57.8271 7.99121" stroke="#242331" stroke-width="0.769171" stroke-linecap="round" stroke-linejoin="round"/>
<path d="M24.1213 88.4207L23.3008 86.8174L26.5076 85.214C26.773 85.0808 27.072 85.0294 27.3668 85.0663C27.6615 85.1033 27.9386 85.2268 28.163 85.4214C28.3114 85.5508 28.4339 85.7084 28.5211 85.8852L24.1213 88.4207ZM23.0774 88.9802L20.5418 83.9834L19.3862 84.5803L18.8643 83.5364L20.7653 82.5668L20.1691 81.4119L21.213 80.8899L21.8092 82.0456L22.6297 81.6354L22.0335 80.4797L23.0774 79.9578L23.6736 81.1134L23.7861 81.0369C24.2107 80.821 24.6886 80.7327 25.1623 80.7824C25.636 80.8322 26.0852 81.018 26.4557 81.3173C26.8262 81.6167 27.1021 82.0169 27.2502 82.4696C27.3984 82.9222 27.4123 83.4081 27.2905 83.8686C27.765 83.8855 28.2263 84.0293 28.6263 84.2851C29.0264 84.5408 29.3505 84.8991 29.565 85.3227L23.0774 88.9802ZM26.0973 82.6387C25.9388 82.3324 25.6652 82.1015 25.3367 81.9967C25.0082 81.8918 24.6514 81.9215 24.3447 82.0792L21.6233 83.4568L22.8164 85.8064L25.5379 84.4288C25.8411 84.2581 26.0677 83.9782 26.1717 83.6461C26.2756 83.3141 26.2491 82.9549 26.0973 82.6418V82.6387Z" stroke="#242331" stroke-width="0.769171" stroke-linecap="round" stroke-linejoin="round"/>
<path d="M95.7842 147.333C99.4075 135.846 106.706 125.868 116.556 118.935C126.405 112.002 138.261 108.499 150.297 108.964" stroke="#242331" stroke-width="0.769171" stroke-linecap="round" stroke-linejoin="round"/>
<path d="M103.056 28.9499C104.659 25.6682 106.789 23.1074 109.729 21.8653C113.838 20.1295 119.2 21.0824 127.515 25.7807C135.831 30.4798 139.423 34.6148 140.042 39.017C140.462 42.0018 139.482 44.9865 137.693 47.8948" stroke="#242331" stroke-width="0.769171" stroke-linecap="round" stroke-linejoin="round"/>
<path d="M121.028 66.6459C122.03 66.9436 123.053 67.1678 124.089 67.3171C130.433 68.0931 134.038 65.1879 135.834 62.0968C139.437 55.8976 136.591 51.6547 135.872 47.1829C135.211 43.0792 136.578 40.6585 134.157 37.451C132.44 35.1772 129.504 32.8881 124.947 30.2922C120.406 27.7054 116.931 26.3722 114.097 26.0783C110.07 25.6619 108.724 28.0467 104.849 29.621C101.379 31.0307 97.2429 31.0751 93.9619 34.692" stroke="#242331" stroke-width="0.769171" stroke-linecap="round" stroke-linejoin="round"/>
<path d="M130.648 18.5101C130.363 17.9815 129.937 17.5424 129.417 17.242C129.043 17.0197 128.629 16.8741 128.198 16.8138C127.767 16.7535 127.329 16.7797 126.909 16.8909C126.488 17.0021 126.094 17.196 125.749 17.4613C125.405 17.7265 125.117 18.0579 124.902 18.4359C124.623 18.9208 124.472 19.4681 124.462 20.027C124.451 20.5859 124.582 21.1385 124.842 21.6334C125.103 22.128 125.484 22.5487 125.951 22.8565C126.418 23.1644 126.955 23.3494 127.512 23.3944" stroke="#242331" stroke-width="0.769171" stroke-linecap="round" stroke-linejoin="round"/>
<path d="M20.2051 54.3427L24.3815 50.0163L17.1109 43.8271L14.3887 52.9621L20.2051 54.3419V54.3427Z" stroke="#242331" stroke-width="0.769171" stroke-linecap="round" stroke-linejoin="round"/>
<path d="M14.3887 52.9618L18.751 49.3081L24.3815 50.016" stroke="#242331" stroke-width="0.769171" stroke-linecap="round" stroke-linejoin="round"/>
<path d="M24.1588 51.657L21.5858 59.0026L15.6201 54.3785" stroke="#242331" stroke-width="0.769171" stroke-linecap="round" stroke-linejoin="round"/>
<path d="M21.5853 59.0034L20.4297 55.1248" stroke="#242331" stroke-width="0.769171" stroke-linecap="round" stroke-linejoin="round"/>
<path d="M20.2055 54.3427L17.1113 43.8271" stroke="#242331" stroke-width="0.769171" stroke-linecap="round" stroke-linejoin="round"/>
<path d="M55.8516 10.269L51.3401 13.1007L52.4215 14.8158L55.218 13.0632L56.9705 15.8597L58.6879 14.7806L55.8516 10.269ZM50.2586 13.7742L48.5811 14.8181L49.625 16.4965L51.3025 15.4518L50.2586 13.7742ZM59.3568 15.8238L57.6785 16.8677L58.7224 18.5453L60.4007 17.5014L59.3568 15.8238ZM56.5971 17.5014L53.8013 19.254L52.0487 16.4575L50.3336 17.5389L53.1654 22.0543L57.6769 19.2226L56.5971 17.5014ZM54.8077 14.7806L53.1301 15.8238L54.1725 17.5029L55.8501 16.459L54.8077 14.7806Z" stroke="#242331" stroke-width="0.769171" stroke-linecap="round" stroke-linejoin="round"/>
<path d="M137.545 69.3342L135.345 67.6934L133.742 69.8187L135.867 71.422L135.047 72.5034L132.924 70.8962L131.06 73.3943L133.259 75.0351C133.527 75.2395 133.833 75.3882 134.159 75.4727C134.485 75.5572 134.825 75.5756 135.159 75.527C135.492 75.4784 135.812 75.3637 136.101 75.1896C136.389 75.0155 136.64 74.7855 136.839 74.5132L138.032 72.9098C138.235 72.643 138.384 72.3387 138.47 72.0142C138.555 71.6898 138.576 71.3516 138.531 71.0191C138.486 70.6866 138.375 70.3663 138.206 70.0765C138.037 69.7867 137.812 69.5332 137.545 69.3304V69.3342Z" stroke="#242331" stroke-width="0.769171" stroke-linecap="round" stroke-linejoin="round"/>
<path d="M135.904 66.4221L138.328 68.2489C139.15 68.8781 139.692 69.8047 139.839 70.8296C139.985 71.8546 139.724 72.896 139.111 73.7302L137.917 75.3374C137.294 76.167 136.366 76.7153 135.339 76.8621C134.311 77.0089 133.267 76.7421 132.436 76.1203L129.155 73.659L131.84 70.1171L130.982 69.4459" stroke="#242331" stroke-width="0.769171" stroke-linecap="round" stroke-linejoin="round"/>
<path d="M74.1582 77.4591C86.1646 77.8318 94.8518 77.8686 98.3195 75.1846" stroke="#242331" stroke-width="0.769171" stroke-linecap="round" stroke-linejoin="round"/>
<path d="M92.9141 79.7703C93.25 80.479 93.5478 81.1478 93.8087 81.8213" stroke="#242331" stroke-width="0.769171" stroke-linecap="round" stroke-linejoin="round"/>
<path d="M95.2998 86.072C98.805 97.5932 96.0077 104.04 102.417 102.366C108.569 100.759 111.926 99.7185 115.543 98.7121" stroke="#242331" stroke-width="0.769171" stroke-linecap="round" stroke-linejoin="round" stroke-dasharray="2.26 2.26"/>
<path d="M117.746 98.1526C118.455 97.9658 119.163 97.8166 119.909 97.6306" stroke="#242331" stroke-width="0.769171" stroke-linecap="round" stroke-linejoin="round"/>
<path d="M81.3175 93.939C81.0334 94.6287 80.7351 95.3126 80.4229 95.99" stroke="#242331" stroke-width="0.769171" stroke-linecap="round" stroke-linejoin="round"/>
<path d="M78.7081 100.129C77.0305 104.342 76.4351 106.653 76.8063 108.63C77.4438 112.023 78.7081 116.348 85.2333 131.673" stroke="#242331" stroke-width="0.769171" stroke-linecap="round" stroke-linejoin="round" stroke-dasharray="2.24 2.24"/>
<path d="M86.1279 133.724C86.4264 134.395 86.7249 135.066 87.0226 135.774" stroke="#242331" stroke-width="0.769171" stroke-linecap="round" stroke-linejoin="round"/>
<path d="M83.8906 12.4318C84.245 11.4794 84.763 10.5962 85.4213 9.82202" stroke="#242331" stroke-width="0.769171" stroke-linecap="round" stroke-linejoin="round"/>
<path d="M84.3388 18.845C83.8519 17.9439 83.5476 16.9556 83.4434 15.9368" stroke="#242331" stroke-width="0.769171" stroke-linecap="round" stroke-linejoin="round"/>
<path d="M89.5212 22.8347C88.4974 22.6018 87.5331 22.1588 86.6895 21.5337" stroke="#242331" stroke-width="0.769171" stroke-linecap="round" stroke-linejoin="round"/>
<path d="M95.9336 21.604C95.0541 22.2157 94.0676 22.657 93.0254 22.9051" stroke="#242331" stroke-width="0.769171" stroke-linecap="round" stroke-linejoin="round"/>
<path d="M99.2496 15.9368C99.1385 16.9945 98.8218 18.0204 98.3174 18.9567" stroke="#242331" stroke-width="0.769171" stroke-linecap="round" stroke-linejoin="round"/>
<path d="M97.1641 9.71021C97.8775 10.4918 98.4345 11.4029 98.8049 12.3942" stroke="#242331" stroke-width="0.769171" stroke-linecap="round" stroke-linejoin="round"/>
<path d="M88.4023 7.73433C89.3379 7.3559 90.339 7.16603 91.3481 7.17564C92.3721 7.18253 93.3846 7.38457 94.3329 7.77183" stroke="#242331" stroke-width="0.769171" stroke-linecap="round" stroke-linejoin="round"/>
<path d="M67.8574 133.127C67.901 133.461 67.9263 133.797 67.9339 134.134C67.9301 135.384 67.5536 136.604 66.8525 137.638" stroke="#242331" stroke-width="0.769171" stroke-linecap="round" stroke-linejoin="round"/>
<path d="M58.1631 128.951C59.1977 128.25 60.4178 127.874 61.6675 127.87C63.2106 127.866 64.6998 128.437 65.8439 129.473" stroke="#242331" stroke-width="0.769171" stroke-linecap="round" stroke-linejoin="round"/>
<path d="M56.0004 136.781C55.6144 135.951 55.4109 135.049 55.4035 134.134C55.3995 133.568 55.4744 133.004 55.6262 132.459" stroke="#242331" stroke-width="0.769171" stroke-linecap="round" stroke-linejoin="round"/>
<path d="M63.5321 140.099C62.9293 140.293 62.3007 140.393 61.6678 140.398C60.7528 140.39 59.8502 140.187 59.0205 139.801" stroke="#242331" stroke-width="0.769171" stroke-linecap="round" stroke-linejoin="round"/>
</svg>
