<svg width="155" height="154" viewBox="0 0 155 154" fill="none" xmlns="http://www.w3.org/2000/svg">
<path d="M84.9384 138.401C88.5469 138.651 88.9946 133.201 85.3976 132.83L50.909 128.076C50.5425 127.998 50.1642 127.994 49.7962 128.064C49.4281 128.134 49.0779 128.277 48.7661 128.485C48.4538 128.692 48.1862 128.96 47.9789 129.272C47.7716 129.585 47.6289 129.935 47.5592 130.303C47.4894 130.672 47.4941 131.05 47.5728 131.417C47.6515 131.783 47.8027 132.13 48.0176 132.437C48.2319 132.745 48.5056 133.006 48.8227 133.206C49.1398 133.406 49.4937 133.54 49.8635 133.601C49.4786 133.58 49.0933 133.637 48.7309 133.769C48.3686 133.901 48.0366 134.104 47.7552 134.368C47.4738 134.632 47.2487 134.949 47.0934 135.302C46.9382 135.655 46.8561 136.036 46.852 136.421C46.8521 137.108 47.1041 137.77 47.5601 138.283C48.0162 138.797 48.6446 139.124 49.3263 139.205C48.7662 139.146 48.2014 139.257 47.7048 139.523C47.2083 139.789 46.803 140.197 46.5413 140.696C46.2803 141.195 46.1749 141.761 46.2389 142.32C46.3029 142.88 46.5333 143.407 46.9002 143.834C47.1437 144.118 47.4415 144.351 47.7761 144.518C48.1108 144.685 48.4755 144.783 48.8487 144.807L83.3036 149.565C87.2313 150.003 87.728 144.68 84.3751 144.028C87.855 144.108 88.2676 138.955 84.9384 138.401Z" fill="#EFECFF"/>
<path fill-rule="evenodd" clip-rule="evenodd" d="M38.0902 56.2529C46.9178 54.527 55.8772 53.5625 64.8697 53.3699C64.2788 57.2137 64.0559 61.1052 64.2039 64.9913L63.2243 64.9791H63.2197H63.2143C55.3835 64.8773 47.4953 64.7755 38.8173 66.2273C37.3664 63.1025 37.1078 59.5551 38.0902 56.2529ZM41.7424 57.9702C41.8788 57.8338 41.9554 57.6488 41.9554 57.4559C41.9554 57.263 41.8788 57.078 41.7424 56.9416C41.606 56.8052 41.421 56.7286 41.2281 56.7286C41.0352 56.7286 40.8502 56.8052 40.7138 56.9416C40.6462 57.0092 40.5927 57.0894 40.5561 57.1776C40.5196 57.2659 40.5008 57.3604 40.5008 57.4559C40.5008 57.6488 40.5774 57.8338 40.7138 57.9702C40.8502 58.1066 41.0352 58.1833 41.2281 58.1833C41.421 58.1833 41.606 58.1066 41.7424 57.9702ZM51.9005 62.5155C51.9005 62.7083 51.8239 62.8933 51.6876 63.0296C51.5512 63.166 51.3663 63.2426 51.1735 63.2426C50.9807 63.2426 50.7957 63.166 50.6594 63.0296C50.523 62.8933 50.4464 62.7083 50.4464 62.5155C50.4464 62.3227 50.523 62.1378 50.6594 62.0014C50.7957 61.8651 50.9807 61.7884 51.1735 61.7884C51.3663 61.7884 51.5512 61.8651 51.6876 62.0014C51.8239 62.1378 51.9005 62.3227 51.9005 62.5155ZM62.563 56.2835C62.6306 56.2159 62.6842 56.1357 62.7207 56.0475C62.7573 55.9593 62.7761 55.8647 62.7761 55.7692C62.7761 55.6737 62.7573 55.5791 62.7207 55.4908C62.6842 55.4026 62.6306 55.3224 62.563 55.2549C62.4955 55.1873 62.4153 55.1338 62.3271 55.0972C62.2388 55.0607 62.1443 55.0418 62.0487 55.0418C61.9532 55.0418 61.8587 55.0607 61.7704 55.0972C61.6822 55.1338 61.602 55.1873 61.5345 55.2549C61.3981 55.3913 61.3214 55.5763 61.3214 55.7692C61.3214 55.9621 61.3981 56.1471 61.5345 56.2835C61.6709 56.4199 61.8559 56.4965 62.0487 56.4965C62.2416 56.4965 62.4266 56.4199 62.563 56.2835Z" fill="#EFECFF"/>
<path fill-rule="evenodd" clip-rule="evenodd" d="M78.1153 52.2795C78.1153 53.0066 78.5523 53.4283 79.7294 53.4574C80.8108 53.4797 81.8918 53.5187 82.972 53.5745C80.6896 56.9801 78.8754 60.6771 77.578 64.5661L67.6472 64.3479C67.2767 61.3303 67.7627 56.1674 68.0689 53.341L71.7761 53.4283C72.2452 53.455 72.7136 53.3655 73.1398 53.1676C73.566 52.9697 73.9367 52.6697 74.219 52.2941V52.2795H78.1153ZM73.3121 62.303C73.4485 62.1666 73.5251 61.9816 73.5251 61.7887C73.5251 61.5958 73.4485 61.4108 73.3121 61.2744C73.1757 61.138 72.9907 61.0614 72.7978 61.0614C72.6049 61.0614 72.4199 61.138 72.2835 61.2744C72.1471 61.4108 72.0705 61.5958 72.0705 61.7887C72.0705 61.9816 72.1471 62.1666 72.2835 62.303C72.4199 62.4394 72.6049 62.516 72.7978 62.516C72.9907 62.516 73.1757 62.4394 73.3121 62.303Z" fill="#EFECFF"/>
<path fill-rule="evenodd" clip-rule="evenodd" d="M85.8945 53.7358C92.5543 54.1721 108.795 55.6553 115.367 58.2428C116.125 61.6784 115.821 65.2624 114.495 68.5212C102.049 65.9642 93.4704 65.0022 82.4053 65.0458L81.3875 68.5663C79.0754 66.865 83.6268 57.4576 85.8945 53.7358ZM89.767 57.0107C89.8346 56.9431 89.8881 56.8629 89.9246 56.7746C89.9612 56.6863 89.98 56.5916 89.9799 56.4961C89.9799 56.4005 89.961 56.3059 89.9244 56.2177C89.8878 56.1294 89.8342 56.0492 89.7666 55.9817C89.699 55.9141 89.6188 55.8606 89.5305 55.8241C89.4422 55.7875 89.3476 55.7687 89.2521 55.7688C89.1565 55.7688 89.0619 55.7877 88.9736 55.8243C88.8854 55.8609 88.8052 55.9145 88.7377 55.9821C88.6013 56.1186 88.5247 56.3037 88.5247 56.4966C88.5248 56.6896 88.6015 56.8746 88.738 57.011C88.8745 57.1474 89.0596 57.224 89.2526 57.224C89.4456 57.2239 89.6306 57.1472 89.767 57.0107ZM100.726 63.8098C100.726 64.0027 100.649 64.1878 100.513 64.3242C100.376 64.4606 100.191 64.5373 99.9983 64.5373C99.8053 64.5373 99.6203 64.4606 99.4839 64.3242C99.3475 64.1878 99.2708 64.0027 99.2708 63.8098C99.2708 63.6169 99.3475 63.4319 99.4839 63.2954C99.6203 63.159 99.8053 63.0824 99.9983 63.0824C100.191 63.0824 100.376 63.159 100.513 63.2954C100.649 63.4319 100.726 63.6169 100.726 63.8098ZM112.813 60.3253C112.881 60.2577 112.934 60.1775 112.971 60.0892C113.007 60.0009 113.026 59.9063 113.026 59.8107C113.026 59.7152 113.007 59.6206 112.971 59.5323C112.934 59.444 112.88 59.3638 112.813 59.2963C112.745 59.2288 112.665 59.1752 112.577 59.1387C112.488 59.1021 112.394 59.0834 112.298 59.0834C112.203 59.0834 112.108 59.1023 112.02 59.1389C111.932 59.1755 111.851 59.2291 111.784 59.2967C111.647 59.4332 111.571 59.6183 111.571 59.8113C111.571 60.0042 111.648 60.1893 111.784 60.3257C111.921 60.4621 112.106 60.5387 112.299 60.5386C112.492 60.5385 112.677 60.4618 112.813 60.3253Z" fill="#EFECFF"/>
<path d="M76.9374 49.9241L74.7998 51.2909C75.0023 50.8528 75.1582 50.3947 75.2651 49.9241C75.8223 49.9562 76.3802 49.9562 76.9374 49.9241Z" fill="#5236FF"/>
<path d="M98.1367 45.0535C102.746 34.5991 85.7775 43.3697 85.7775 43.3697C88.4821 38.252 80.9506 39.4153 77.6934 41.8865C81.0087 39.6334 81.5904 42.9044 80.6743 44.7657C80.5143 45.1583 80.7034 45.3473 81.5031 45.1438C83.1754 44.7221 83.2205 47.3632 80.3689 47.4122C80.1343 47.5215 79.9297 47.6862 79.7727 47.892C78.9003 49.7962 78.1005 51.323 78.1005 52.2973C78.1005 53.0389 78.5367 53.4605 79.7146 53.4751C89.3353 53.7723 98.9224 54.7587 108.402 56.4269C109.755 55.9421 110.987 55.1716 112.016 54.168C113.045 53.1643 113.845 51.951 114.363 50.6105C120.063 37.0129 98.1367 45.0535 98.1367 45.0535Z" fill="#5236FF"/>
<path d="M65.6834 110.337C63.9795 112.345 61.6929 113.773 59.1406 114.423C60.173 116.284 60.682 119.541 61.1305 121.664C61.8939 125.776 63.0877 129.797 64.6923 133.659C67.8913 126.465 68.2694 120.297 69.3164 116.022C68.2697 114.027 67.0542 112.125 65.6834 110.337Z" fill="#5236FF"/>
<path d="M112.167 85.0815C110.032 86.2172 107.998 87.5357 106.09 89.0222C107.937 90.8384 109.272 93.1106 109.958 95.6086C114.358 93.4083 121.826 93.419 129.746 89.9965C122.593 86.7247 116.428 86.1867 112.167 85.0815Z" fill="#5236FF"/>
<path d="M92.3792 94.0818L85.851 99.5049L83.6553 97.5862C86.6836 96.7435 89.6094 95.5682 92.3792 94.0818Z" fill="#5236FF"/>
<path d="M64.9424 92.3513C65.146 93.2092 65.3932 94.0817 65.684 94.9534C69.6482 94.2697 73.5182 93.1222 77.2144 91.5347C73.4482 93.047 68.9328 92.9827 64.9424 92.3513Z" fill="#5236FF"/>
<path d="M66.0654 130.165L85.3876 132.803C89.0994 133.187 88.4336 138.832 84.7753 138.372C88.4297 138.793 87.7708 144.342 84.1531 143.991C87.8167 144.454 87.1272 149.972 83.55 149.611L48.7415 144.799C48.187 144.742 47.6619 144.521 47.2333 144.165C46.8047 143.808 46.4918 143.332 46.3346 142.797C46.2301 142.442 46.1971 142.07 46.2373 141.702C46.2776 141.334 46.3904 140.977 46.5693 140.653C46.7481 140.329 46.9894 140.043 47.2792 139.813C47.569 139.582 47.9017 139.412 48.2578 139.311C48.6138 139.21 48.9862 139.18 49.3538 139.223C48.8893 139.177 48.4436 139.016 48.0564 138.755C47.6693 138.495 47.3529 138.142 47.1356 137.729C46.9183 137.316 46.8069 136.855 46.8114 136.389C46.8158 135.922 46.936 135.464 47.1611 135.055C47.3409 134.728 47.5839 134.44 47.8758 134.209C48.1677 133.977 48.5029 133.805 48.8617 133.704C49.2204 133.602 49.5958 133.573 49.966 133.617C49.5894 133.573 49.2257 133.453 48.897 133.264C48.5682 133.075 48.2813 132.821 48.0536 132.517C47.8259 132.214 47.6621 131.868 47.5723 131.499C47.4824 131.131 47.4683 130.748 47.5308 130.374C47.5927 130 47.73 129.642 47.9343 129.323C48.1386 129.003 48.4057 128.729 48.7193 128.516C49.0327 128.302 49.3862 128.155 49.7584 128.082C50.1306 128.009 50.5137 128.013 50.8844 128.093L63.161 129.769" stroke="#242331" stroke-width="0.769171" stroke-linecap="round" stroke-linejoin="round"/>
<path d="M111.281 42.7995C109.053 36.1008 104.992 30.1607 99.559 25.6531C94.126 21.1456 87.5383 18.2511 80.5435 17.2981C60.5953 14.5613 42.7319 28.1458 40.5882 47.6272C40.2961 50.3297 40.3156 53.0568 40.6464 55.7549" stroke="#242331" stroke-width="0.769171" stroke-linecap="round" stroke-linejoin="round"/>
<path d="M112.821 57.4272C112.98 55.9417 113.043 54.4478 113.01 52.9539" stroke="#242331" stroke-width="0.769171" stroke-linecap="round" stroke-linejoin="round"/>
<path d="M110.107 67.6565C109.912 68.1142 109.678 68.5542 109.409 68.9728C103.041 79.4578 99.3618 85.5804 96.7734 91.6265" stroke="#242331" stroke-width="0.769171" stroke-linecap="round" stroke-linejoin="round"/>
<path d="M68.2773 121.382L89.2817 124.255C89.8779 121.028 91.2715 111.301 91.7973 108.756" stroke="#242331" stroke-width="0.769171" stroke-linecap="round" stroke-linejoin="round"/>
<path d="M49.8765 105.278C49.8474 107.28 48.9351 116.306 48.8594 118.712L60.8543 120.297" stroke="#242331" stroke-width="0.769171" stroke-linecap="round" stroke-linejoin="round"/>
<path d="M43.3799 65.584C44.9786 70.44 46.2292 74.2635 47.1744 77.6371" stroke="#242331" stroke-width="0.769171" stroke-linecap="round" stroke-linejoin="round"/>
<path d="M73.5351 46.0421L64.9566 44.8642C63.8652 44.6924 62.7503 44.7428 61.6789 45.0125C60.6075 45.2822 59.6016 45.7656 58.7217 46.4337C57.8417 47.1018 57.1058 47.9408 56.5582 48.9004C56.0105 49.86 55.6624 50.9203 55.5347 52.0177C55.4735 52.6269 55.4765 53.2407 55.5462 53.8491" stroke="#242331" stroke-width="0.769171" stroke-linecap="round" stroke-linejoin="round"/>
<path d="M69.0723 121.49L71.0491 104.463" stroke="#242331" stroke-width="0.769171" stroke-linecap="round" stroke-linejoin="round"/>
<path d="M64.8691 53.3557C64.8691 53.3557 62.8792 64.9588 65.567 73.7845C65.1434 74.8421 64.8409 75.9443 64.6655 77.0701" stroke="#242331" stroke-width="0.769171" stroke-linecap="round" stroke-linejoin="round"/>
<path d="M64.1713 64.9878C56.0144 64.886 47.8431 64.7115 38.7847 66.223C37.3418 63.0972 37.0884 59.5524 38.0722 56.2531C49.1584 54.074 60.4524 53.1328 71.7465 53.4467C73.2297 53.5087 74.2024 52.5734 74.8001 51.2946C75.0022 50.8563 75.1581 50.3982 75.2654 49.9277C73.199 49.7532 70.3673 48.6213 76.2397 43.0796C76.6951 42.6477 77.1811 42.2492 77.6938 41.8872" stroke="#242331" stroke-width="0.769171" stroke-linecap="round" stroke-linejoin="round"/>
<path d="M115.366 58.2553C108.829 55.7068 92.926 54.1991 85.8788 53.7483C83.6112 57.4708 79.0598 66.8782 81.3718 68.5788L82.4043 65.0453C93.4693 65.0016 102.048 65.9636 114.494 68.5206C115.837 65.271 116.142 61.6851 115.366 58.2553Z" stroke="#242331" stroke-width="0.769171" stroke-linecap="round" stroke-linejoin="round"/>
<path d="M80.7049 44.6968C81.5766 42.8255 80.9705 39.654 77.6934 41.8819C80.9506 39.4107 88.4844 38.2474 85.7775 43.3651C85.7775 43.3651 102.746 34.5975 98.1367 45.0488C122.015 36.2973 116.559 53.4398 108.402 56.4192C98.9234 54.7412 89.336 53.7498 79.7146 53.4528C78.5367 53.4368 78.1005 53.0166 78.1005 52.275C78.1005 51.3008 78.924 49.7846 79.7727 47.8698C79.9304 47.6647 80.1347 47.5001 80.3689 47.3899C83.2205 47.3387 83.1746 44.6983 81.5031 45.1215C80.7141 45.3259 80.5427 45.0473 80.7049 44.6968Z" stroke="#242331" stroke-width="0.769171" stroke-linecap="round" stroke-linejoin="round"/>
<path d="M122.127 61.5706C123.319 61.9897 124.489 62.4702 125.631 63.0101C132.443 66.2949 127.943 65.5258 125.995 64.7704" stroke="#242331" stroke-width="0.769171" stroke-linecap="round" stroke-linejoin="round"/>
<path d="M125.035 67.9097C125.856 68.4582 126.625 69.0812 127.331 69.771C129.004 71.4433 128.059 71.6751 126.445 70.8761C125.122 70.221 123.552 69.5797 121.894 68.9567C119.678 68.0443 117.349 67.4338 114.971 67.1414" stroke="#242331" stroke-width="0.769171" stroke-linecap="round" stroke-linejoin="round"/>
<path d="M125.123 69.0585C125.087 67.0462 124.363 65.1068 123.072 63.5627" stroke="#242331" stroke-width="0.769171" stroke-linecap="round" stroke-linejoin="round"/>
<path d="M126.112 68.6949C126.766 69.0294 127.594 69.4082 128.452 69.8146C130.022 70.5577 130.691 70.3243 129.194 68.9727C127.78 67.6988 126.176 66.6539 124.439 65.8762" stroke="#242331" stroke-width="0.769171" stroke-linecap="round" stroke-linejoin="round"/>
<path d="M126.955 67.2411C132.64 70.193 133.522 69.3128 128.844 66.3227C127.016 65.2176 125.083 64.2972 123.072 63.5752" stroke="#242331" stroke-width="0.769171" stroke-linecap="round" stroke-linejoin="round"/>
<path d="M117.926 64.5372C118.693 64.7125 119.499 64.6085 120.197 64.2438C120.895 63.8792 121.44 63.2777 121.735 62.5474C122.284 61.4843 121.88 60.9769 122.491 60.2353C123.436 59.0873 123.251 58.5279 121.895 59.1156C121.01 59.4983 118.943 60.5407 117.359 60.0754C116.694 59.8902 116.027 59.7118 115.618 59.6078" stroke="#242331" stroke-width="0.769171" stroke-linecap="round" stroke-linejoin="round"/>
<path d="M31.226 59.1392C29.9946 59.5056 28.7856 59.9436 27.6053 60.4509C20.6691 63.4609 25.1914 62.8648 27.169 62.1959" stroke="#242331" stroke-width="0.769171" stroke-linecap="round" stroke-linejoin="round"/>
<path d="M27.9828 65.3658C27.1402 65.8818 26.3477 66.4755 25.6157 67.1391C23.8845 68.7532 24.8006 69.0142 26.4445 68.2871C27.7961 67.6901 29.3971 67.1284 31.0678 66.5712C36.0424 64.9128 38.3384 65.0306 38.3384 65.0306" stroke="#242331" stroke-width="0.769171" stroke-linecap="round" stroke-linejoin="round"/>
<path d="M27.8516 66.514C27.9735 64.5043 28.7775 62.5963 30.1307 61.1055" stroke="#242331" stroke-width="0.769171" stroke-linecap="round" stroke-linejoin="round"/>
<path d="M26.8917 66.1066C26.2228 66.4128 25.3794 66.761 24.507 67.1245C22.9074 67.7927 22.2516 67.5447 23.7945 66.2521C25.2534 65.0312 26.9026 64.0578 28.6765 63.3706" stroke="#242331" stroke-width="0.769171" stroke-linecap="round" stroke-linejoin="round"/>
<path d="M26.0924 64.6099C20.2759 67.3138 19.444 66.3778 24.2456 63.6066C26.1214 62.5834 28.0925 61.7457 30.131 61.1055" stroke="#242331" stroke-width="0.769171" stroke-linecap="round" stroke-linejoin="round"/>
<path d="M37.7229 57.718C36.1096 58.1098 32.3741 57.1333 31.5146 56.7146C30.1937 56.0702 29.9755 56.6105 30.8748 57.8044C31.4434 58.5598 31.0516 58.9961 31.3692 59.9275C31.6914 60.8719 32.5172 62.3268 34.4228 61.9632" stroke="#242331" stroke-width="0.769171" stroke-linecap="round" stroke-linejoin="round"/>
<path d="M65.6836 110.323L66.5415 111.486" stroke="#242331" stroke-width="0.769171" stroke-linecap="round" stroke-linejoin="round"/>
<path d="M66.542 111.486C67.5832 112.924 68.5118 114.441 69.3193 116.022C68.2724 120.297 67.8943 126.462 64.6952 133.659C63.091 129.797 61.8971 125.776 61.1334 121.664C60.6245 119.292 60.2464 116.589 59.1436 114.438" stroke="#242331" stroke-width="0.769171" stroke-linecap="round" stroke-linejoin="round"/>
<path d="M106.09 89.0366C108 87.5525 110.033 86.2342 112.167 85.0959C116.428 86.1865 122.593 86.7246 129.746 89.994C125.87 91.5601 121.84 92.7144 117.722 93.438C114.457 94.1008 112.747 94.2125 109.95 95.6077" stroke="#242331" stroke-width="0.769171" stroke-linecap="round" stroke-linejoin="round"/>
<path d="M38.901 110.032L29.4209 94.8376" stroke="#242331" stroke-width="0.769171" stroke-linecap="round" stroke-linejoin="round"/>
<path d="M28.3301 99.5046L29.4207 94.8376L34.0884 95.9282" stroke="#242331" stroke-width="0.769171" stroke-linecap="round" stroke-linejoin="round"/>
<path d="M138.223 54.8243C138.224 55.2879 138.087 55.7412 137.83 56.1269C137.573 56.5126 137.207 56.8133 136.779 56.9906C136.351 57.168 135.879 57.2142 135.425 57.1232C134.97 57.0322 134.553 56.8083 134.226 56.4797C133.981 56.2351 133.794 55.9391 133.677 55.6132C133.56 55.2872 133.517 54.9394 133.551 54.5949C133.585 54.2503 133.695 53.9176 133.873 53.6208C134.052 53.3239 134.293 53.0702 134.581 52.8781C134.934 52.6424 135.344 52.5069 135.767 52.486C136.19 52.4651 136.612 52.5596 136.986 52.7595C137.359 52.9593 137.672 53.257 137.89 53.6206C138.108 53.9843 138.223 54.4004 138.223 54.8243Z" stroke="#242331" stroke-width="0.769171" stroke-linecap="round" stroke-linejoin="round"/>
<path d="M101.641 138.821C101.64 139.126 101.55 139.424 101.381 139.677C101.211 139.931 100.971 140.128 100.689 140.245C100.408 140.361 100.098 140.391 99.7991 140.332C99.5003 140.272 99.2259 140.125 99.0105 139.91C98.7951 139.694 98.6482 139.42 98.5885 139.121C98.5288 138.822 98.5589 138.513 98.6749 138.231C98.7919 137.949 98.9896 137.709 99.243 137.54C99.4965 137.37 99.7944 137.28 100.099 137.28C100.302 137.278 100.503 137.317 100.691 137.394C100.879 137.471 101.049 137.584 101.192 137.728C101.336 137.871 101.45 138.042 101.527 138.229C101.604 138.417 101.642 138.618 101.641 138.821Z" stroke="#242331" stroke-width="0.769171" stroke-linecap="round" stroke-linejoin="round"/>
<path d="M36.8506 25.3225L42.0709 28.3907" stroke="#242331" stroke-width="0.769171" stroke-linecap="round" stroke-linejoin="round"/>
<path d="M63.7061 4.21118L65.5237 9.93964" stroke="#242331" stroke-width="0.769171" stroke-linecap="round" stroke-linejoin="round"/>
<path d="M96.915 11.7718L99.8087 6.52319" stroke="#242331" stroke-width="0.769171" stroke-linecap="round" stroke-linejoin="round"/>
<path d="M119.277 32.7967L124.716 30.1648" stroke="#242331" stroke-width="0.769171" stroke-linecap="round" stroke-linejoin="round"/>
<path d="M20.2027 38.3215L19.5928 43.9191" stroke="#242331" stroke-width="0.769171" stroke-linecap="round" stroke-linejoin="round"/>
<path d="M22.6894 41.4327L17.0918 40.8228" stroke="#242331" stroke-width="0.769171" stroke-linecap="round" stroke-linejoin="round"/>
<path d="M82.9567 53.5745C80.6743 56.9804 78.8601 60.6776 77.5627 64.5669L67.6464 64.348C67.1811 60.6254 68.0536 53.3411 68.0536 53.3411" stroke="#242331" stroke-width="0.769171" stroke-linecap="round" stroke-linejoin="round"/>
<path d="M67.9668 66.8774L68.5194 72.6939L71.9794 75.107L75.6438 72.6357L76.9379 67.0083L67.9668 66.8774Z" stroke="#242331" stroke-width="0.769171" stroke-linecap="round" stroke-linejoin="round"/>
<path d="M74.1895 52.2942H78.0857" stroke="#242331" stroke-width="0.769171" stroke-linecap="round" stroke-linejoin="round"/>
<path d="M92.3795 94.0818L85.8512 99.5049L83.667 97.5832" stroke="#242331" stroke-width="0.769171" stroke-linecap="round" stroke-linejoin="round"/>
<path d="M81.3722 68.5786L79.9617 73.4354C79.9617 73.4354 88.5249 85.5153 78.8137 90.8082C76.5047 92.0672 73.2154 92.9228 68.8645 92.7476C64.6931 92.5182 60.5839 91.6339 56.6874 90.1271C59.8749 96.2185 63.4646 102.091 67.4326 107.705C66.3313 109.92 64.6154 111.77 62.4901 113.036C60.5731 114.117 58.4446 114.769 56.2512 114.949C50.7722 107.01 45.7561 98.7608 41.2278 90.2434C40.556 88.9913 40.2021 87.5933 40.1973 86.1723C40.1925 84.7513 40.537 83.3509 41.2005 82.0943C41.8639 80.8377 42.826 79.7634 44.0021 78.9659C45.1782 78.1684 46.5322 77.6721 47.9451 77.5207C55.3167 76.7339 63.8225 76.59 70.2926 77.6952" stroke="#242331" stroke-width="0.769171" stroke-linecap="round" stroke-linejoin="round"/>
<path d="M56.6875 90.1271C55.8732 88.6294 55.2334 87.2043 55.2334 87.2043" stroke="#242331" stroke-width="0.769171" stroke-linecap="round" stroke-linejoin="round"/>
<path d="M64.9424 92.3512C66.4663 98.9811 70.3078 104.849 75.7748 108.897C77.2638 110.027 79.0029 110.782 80.8451 111.099C82.6873 111.415 84.5786 111.284 86.3592 110.715C95.0476 107.919 103.213 103.703 110.525 98.2403C109.771 93.4861 107.912 90.1149 103.909 87.2043C97.8361 91.0501 90.5586 95.7967 83.6668 97.5829C81.7018 95.5972 80.0963 93.2856 78.9218 90.7509" stroke="#242331" stroke-width="0.769171" stroke-linecap="round" stroke-linejoin="round"/>
<path d="M77.214 91.5344C73.5177 93.1215 69.6477 94.2684 65.6836 94.9516" stroke="#242331" stroke-width="0.769171" stroke-linecap="round" stroke-linejoin="round"/>
<path d="M75.2661 49.9241C75.8233 49.9562 76.3812 49.9562 76.9383 49.9241L74.8008 51.2909" stroke="#242331" stroke-width="0.769171" stroke-linecap="round" stroke-linejoin="round"/>
</svg>
