<svg width="504" height="468" viewBox="0 0 504 468" fill="none" xmlns="http://www.w3.org/2000/svg" >
<path d="M19.9922 114.26C16.1305 90.2685 32.4491 67.6888 56.4409 63.8272L366.056 13.9921C390.047 10.1305 412.627 26.4491 416.489 50.4408L457.31 304.053C461.171 328.045 444.853 350.624 420.861 354.486L111.246 404.321C87.2545 408.183 64.6748 391.864 60.8131 367.872L19.9922 114.26Z" fill="white"/>
<path d="M207.33 167.058C199.647 173.486 175.845 178.005 153.5 234.395L120.61 204.819C105.429 212.523 93.6653 225.611 87.6193 241.526L137.08 285.97C142.809 291.101 150.34 293.75 158.019 293.336C165.699 292.921 172.9 289.478 178.044 283.761L198.54 260.945L190.397 314.944L157.055 352.102C165.421 366.792 178.316 378.381 193.812 385.138L229.112 345.87C234.338 340.058 238.032 333.033 239.858 325.433C247.541 293.191 244.929 236.303 249.901 187.294C229.976 183.579 222.595 179.059 207.33 167.058Z" fill="#FFD1F8"/>
<path d="M479.451 169.318L422.206 229.725L444.903 129.799L502.147 69.3916L479.451 169.318Z" fill="#FFD1F8"/>
<path d="M297.966 147.174C297.213 146.672 295.907 147.123 294.2 148.329L298.164 151.593C298.82 149.283 298.82 147.676 297.966 147.174Z" fill="#5236FF"/>
<path d="M262.515 178.055C261.458 180.766 261.598 183.044 262.415 183.578C263.231 184.112 265.586 183.578 267.172 181.519L262.515 178.055Z" fill="#5236FF"/>
<path d="M285.37 149.383C284.617 148.881 283.312 149.332 281.604 150.538L285.569 153.802C286.216 151.542 286.163 149.935 285.37 149.383Z" fill="#5236FF"/>
<path d="M167.912 339.745L156.812 352.097C165.178 366.787 178.072 378.376 193.568 385.133L205.168 372.228C189.916 365.159 176.993 353.891 167.912 339.745Z" fill="#5236FF"/>
<path d="M231.784 157.618L250.363 186.491L255.284 177.553L231.784 157.618Z" fill="#5236FF"/>
<path d="M250.815 84.8076L253.376 90.3312L254.782 86.5651L250.815 84.8076Z" fill="#5236FF"/>
<path d="M237.508 217.573L198.492 260.958L194.525 287.572L237.508 217.573Z" fill="#5236FF"/>
<path d="M142.704 384.435C139.368 388.01 136.003 391.558 132.611 395.08C129.85 411.4 131.155 448.86 136.428 466.284C150.435 442.985 155.509 428.227 162.592 404.219C154.961 398.714 148.249 392.037 142.704 384.435Z" fill="#5236FF"/>
<path d="M87.4211 191.864C85.0109 189.453 82.2491 186.491 78.5835 182.524C50.157 186.541 18.8763 196.032 5.61974 202.308C25.8392 209.954 47.4977 213.041 69.0481 211.347L70.1528 212.351C74.8924 204.726 80.7086 197.826 87.4211 191.864Z" fill="#5236FF"/>
<path d="M131.456 214.31L120.621 204.531C105.451 212.25 93.692 225.333 87.63 241.238L98.6269 251.13C106.235 236.246 117.539 223.568 131.456 214.31Z" fill="#5236FF"/>
<path d="M272.909 52.118C273.125 50.9011 272.899 49.6474 272.273 48.5818C271.648 47.5162 270.662 46.7085 269.495 46.3038C270.055 45.7843 270.496 45.1489 270.785 44.4419C271.075 43.7349 271.207 42.9732 271.172 42.21C271.138 41.4467 270.937 40.7001 270.584 40.0224C270.232 39.3446 269.735 38.7518 269.13 38.2854C268.319 37.6629 267.343 37.2909 266.323 37.215C266.635 36.5532 266.806 35.8339 266.825 35.1027C266.844 34.3714 266.711 33.6442 266.434 32.9671C266.157 32.29 265.743 31.6778 265.217 31.1694C264.691 30.6609 264.065 30.2672 263.379 30.0132C262.462 29.6725 261.469 29.5929 260.509 29.7833C260.634 28.8082 260.483 27.8174 260.071 26.9247C259.659 26.0319 259.004 25.2732 258.181 24.7355C257.359 24.1976 256.403 23.9008 255.421 23.8789C254.439 23.8569 253.471 24.1106 252.626 24.6113C252.491 23.8631 252.197 23.1527 251.763 22.5284C251.329 21.9042 250.766 21.3808 250.112 20.9938C249.457 20.6068 248.727 20.3654 247.971 20.2859C247.215 20.2065 246.451 20.2909 245.73 20.5334C244.767 20.8589 243.918 21.4554 243.286 22.2512C242.807 21.2925 242.059 20.4941 241.134 19.9534C240.208 19.4127 239.146 19.1531 238.075 19.2064C237.005 19.2596 235.973 19.6234 235.106 20.2533C234.239 20.8832 233.574 21.7519 233.193 22.7533C232.586 22.1143 231.828 21.6382 230.988 21.3689C230.149 21.0995 229.255 21.0455 228.39 21.2118C227.524 21.3781 226.714 21.7595 226.035 22.3207C225.355 22.882 224.827 23.6051 224.5 24.4236C224.587 23.168 224.313 21.914 223.71 20.8089C223.108 19.7038 222.203 18.7937 221.101 18.1857C219.999 17.5777 218.746 17.297 217.49 17.3768C216.234 17.4565 215.027 17.8933 214.011 18.6358C213.455 17.3515 212.519 16.2676 211.33 15.5293C210.141 14.791 208.755 14.4335 207.357 14.5045C205.959 14.5754 204.616 15.0716 203.508 15.9266C202.4 16.7815 201.579 17.9545 201.156 19.2886C200.007 18.5934 198.672 18.267 197.332 18.3534C195.991 18.4398 194.709 18.9348 193.659 19.7717C192.608 20.6087 191.839 21.7474 191.456 23.0346C191.072 24.3218 191.092 25.6957 191.512 26.9713C190.168 27.1235 188.903 27.6865 187.89 28.5836C186.877 29.4806 186.165 30.6681 185.851 31.9844C185.538 33.3006 185.637 34.6816 186.137 35.9392C186.636 37.1967 187.511 38.2698 188.642 39.0121C187.583 39.8698 186.816 41.0352 186.447 42.3474C186.078 43.6596 186.126 45.0539 186.583 46.3379C187.041 47.6219 187.885 48.7323 189.001 49.5158C190.116 50.2993 191.447 50.7172 192.81 50.712C192.535 52.0216 192.667 53.3839 193.187 54.6165C193.708 55.8491 194.593 56.8931 195.724 57.6087C196.855 58.3243 198.177 58.6773 199.514 58.6203C200.851 58.5634 202.139 58.0992 203.204 57.2901C203.627 58.373 204.337 59.32 205.258 60.0289C206.179 60.7378 207.277 61.1816 208.432 61.3125C208.219 62.0623 208.176 62.8501 208.305 63.6187C208.435 64.3873 208.734 65.1175 209.18 65.7563C209.627 66.3951 210.21 66.9266 210.887 67.3122C211.565 67.6978 212.319 67.9278 213.097 67.9857C212.677 68.8736 212.514 69.8613 212.627 70.8369C212.74 71.8125 213.125 72.7369 213.736 73.5053C214.348 74.2737 215.162 74.8554 216.088 75.1845C217.013 75.5136 218.012 75.5769 218.972 75.3671C218.856 76.3434 219.017 77.3324 219.436 78.2219C219.854 79.1114 220.514 79.8657 221.34 80.3991C222.165 80.9325 223.124 81.2237 224.107 81.2396C225.09 81.2555 226.058 80.9954 226.9 80.489C227.079 81.4908 227.545 82.4193 228.241 83.1622C228.936 83.905 229.832 84.4304 230.82 84.6747C231.808 84.919 232.846 84.8719 233.808 84.539C234.77 84.2061 235.614 83.6017 236.24 82.7988C236.873 83.7067 237.694 84.468 238.647 85.0311C239.6 85.5942 240.663 85.946 241.763 86.0627C243.446 83.024 244.584 79.7147 245.128 76.2842C245.686 72.7911 245.034 69.212 243.278 66.141C235.796 63.6805 239.16 54.893 244.232 58.3076C246.642 59.9646 247.557 59.8589 247.747 58.2574C247.761 57.7947 247.9 57.3445 248.15 56.9546C248.399 56.5647 248.749 56.2495 249.163 56.0426C249.61 56.9844 250.325 57.7731 251.218 58.3097C252.111 58.8463 253.144 59.1068 254.185 59.0585C255.226 59.0102 256.229 58.6553 257.069 58.0382C257.909 57.4212 258.548 56.5697 258.905 55.5907C259.391 56.1041 259.975 56.5147 260.623 56.7984C261.27 57.0822 261.968 57.2332 262.675 57.2425C263.382 57.2519 264.083 57.1194 264.738 56.853C265.393 56.5865 265.988 56.1914 266.487 55.6911C267.73 58.6177 268.672 61.6629 269.299 64.7799C270.438 64.1397 271.3 63.0998 271.717 61.8613C272.134 60.6228 272.076 59.2738 271.556 58.075C271.213 57.2805 270.679 56.5826 270.002 56.0426C270.758 55.6592 271.415 55.1049 271.919 54.4237C272.424 53.7425 272.763 52.953 272.909 52.118Z" fill="#5236FF"/>
<path d="M382.577 37.7569C382.239 35.7211 381.305 33.8313 379.893 32.326C378.482 30.8208 376.656 29.7677 374.646 29.2998C372.466 28.793 370.18 29.0008 368.127 29.8925C366.074 30.7842 364.362 32.3125 363.244 34.2518C362.126 36.1911 361.661 38.4384 361.919 40.662C362.176 42.8856 363.141 44.9675 364.673 46.6003C366.204 48.233 368.22 49.3301 370.422 49.7294C372.625 50.1287 374.897 49.8091 376.904 48.8178C378.911 47.8265 380.546 46.2161 381.568 44.2244C382.589 42.2326 382.943 39.9652 382.577 37.7569Z" fill="#797979"/>
<path d="M70.8481 271.858L47.2977 279.438L57.0286 336.885L70.8481 271.858Z" fill="#5236FF"/>
<path d="M397.892 172.532L384.385 184.934C389.123 185.939 393.727 187.506 398.093 189.604C399.943 190.392 401.642 191.497 403.114 192.868C405.173 195.228 394.129 191.864 388.703 191.261H388.653C389.749 191.84 390.748 192.583 391.615 193.471C393.397 195.508 379.773 190.897 378.56 191.764C383.782 194.124 391.866 198.593 393.825 202.071C396.135 206.238 384.284 197.95 376.601 197.699C381.472 199.959 386.795 203.125 388.703 206.64C391.314 211.397 381.874 202.676 370.626 202.322H370.576C381.321 208.85 386.343 214.215 371.078 207.594C368.279 206.342 365.293 205.562 362.24 205.284L331.559 233.341L422.146 229.826L435.452 171.176L397.892 172.532Z" fill="#5236FF"/>
<path d="M479.45 169.318L422.206 229.725L444.903 129.799L502.147 69.3916L479.45 169.318Z" stroke="#242331" stroke-width="2" stroke-linejoin="round"/>
<path d="M397.892 172.532L384.384 184.934C389.123 185.939 393.727 187.506 398.093 189.604C399.943 190.392 401.642 191.497 403.114 192.868C405.173 195.228 394.129 191.864 388.703 191.261H388.653C389.749 191.84 390.748 192.583 391.615 193.471C393.397 195.508 379.773 190.897 378.56 191.764C383.782 194.124 391.866 198.593 393.825 202.071C396.135 206.238 384.284 197.95 376.601 197.699C381.472 199.959 386.795 203.125 388.703 206.64C391.314 211.397 381.874 202.676 370.626 202.322H370.576C381.321 208.85 386.343 214.215 371.078 207.594C368.279 206.342 365.293 205.562 362.24 205.284L331.559 233.341L422.145 229.826L435.452 171.176L397.892 172.532Z" stroke="#242331" stroke-width="2" stroke-linejoin="round"/>
<path d="M272.909 52.118C273.125 50.9011 272.899 49.6474 272.273 48.5818C271.648 47.5162 270.662 46.7085 269.495 46.3038C270.055 45.7843 270.495 45.1489 270.785 44.4419C271.075 43.7349 271.207 42.9732 271.172 42.21C271.138 41.4467 270.937 40.7001 270.584 40.0224C270.231 39.3446 269.735 38.7518 269.13 38.2854C268.319 37.6629 267.343 37.2909 266.323 37.215C266.635 36.5532 266.806 35.8339 266.825 35.1027C266.844 34.3714 266.711 33.6442 266.434 32.9671C266.157 32.29 265.743 31.6778 265.217 31.1694C264.691 30.6609 264.065 30.2672 263.379 30.0132C262.462 29.6725 261.469 29.5929 260.509 29.7833C260.634 28.8082 260.482 27.8174 260.071 26.9247C259.659 26.0319 259.004 25.2732 258.181 24.7355C257.359 24.1976 256.403 23.9008 255.421 23.8789C254.439 23.8569 253.471 24.1106 252.625 24.6113C252.491 23.8631 252.197 23.1527 251.763 22.5284C251.329 21.9042 250.766 21.3808 250.111 20.9938C249.457 20.6068 248.727 20.3654 247.971 20.2859C247.215 20.2065 246.451 20.2909 245.73 20.5334C244.767 20.8589 243.918 21.4554 243.286 22.2512C242.807 21.2925 242.059 20.4941 241.134 19.9534C240.208 19.4127 239.146 19.1531 238.075 19.2064C237.005 19.2596 235.973 19.6234 235.106 20.2533C234.239 20.8832 233.574 21.7519 233.193 22.7533C232.586 22.1143 231.827 21.6382 230.988 21.3689C230.149 21.0995 229.255 21.0455 228.39 21.2118C227.524 21.3781 226.714 21.7595 226.035 22.3207C225.355 22.882 224.827 23.6051 224.5 24.4236C224.587 23.168 224.313 21.914 223.71 20.8089C223.108 19.7038 222.203 18.7937 221.101 18.1857C219.999 17.5777 218.746 17.297 217.49 17.3768C216.234 17.4565 215.027 17.8933 214.011 18.6358C213.455 17.3515 212.519 16.2676 211.33 15.5293C210.141 14.791 208.755 14.4335 207.357 14.5045C205.959 14.5754 204.616 15.0716 203.508 15.9266C202.4 16.7815 201.579 17.9545 201.156 19.2886C200.007 18.5934 198.672 18.267 197.332 18.3534C195.991 18.4398 194.709 18.9348 193.659 19.7717C192.608 20.6087 191.839 21.7474 191.456 23.0346C191.072 24.3218 191.092 25.6957 191.512 26.9713C190.168 27.1235 188.903 27.6865 187.89 28.5836C186.877 29.4806 186.165 30.6681 185.851 31.9844C185.537 33.3006 185.637 34.6816 186.137 35.9392C186.636 37.1967 187.511 38.2698 188.642 39.0121C187.583 39.8698 186.816 41.0352 186.447 42.3474C186.078 43.6596 186.126 45.0539 186.583 46.3379C187.041 47.6219 187.885 48.7323 189.001 49.5158C190.116 50.2993 191.447 50.7172 192.81 50.712C192.535 52.0216 192.667 53.3839 193.187 54.6165C193.708 55.8491 194.593 56.8931 195.724 57.6087C196.855 58.3243 198.177 58.6773 199.514 58.6203C200.851 58.5633 202.139 58.0992 203.204 57.2901C203.627 58.373 204.337 59.32 205.258 60.0289C206.179 60.7378 207.277 61.1816 208.432 61.3125C208.219 62.0623 208.176 62.8501 208.305 63.6187C208.435 64.3873 208.734 65.1175 209.18 65.7563C209.627 66.3951 210.21 66.9266 210.887 67.3122C211.565 67.6978 212.319 67.9278 213.096 67.9857C212.677 68.8736 212.514 69.8613 212.627 70.8369C212.74 71.8125 213.125 72.7369 213.736 73.5053C214.348 74.2737 215.162 74.8554 216.088 75.1845C217.013 75.5136 218.012 75.5769 218.971 75.3671C218.856 76.3434 219.017 77.3324 219.436 78.2219C219.854 79.1114 220.514 79.8657 221.339 80.3991C222.165 80.9325 223.124 81.2237 224.107 81.2396C225.09 81.2555 226.057 80.9954 226.9 80.489C227.079 81.4908 227.545 82.4193 228.241 83.1622C228.936 83.905 229.832 84.4304 230.82 84.6747C231.808 84.919 232.846 84.8719 233.808 84.539C234.77 84.2061 235.614 83.6017 236.24 82.7988C236.873 83.7067 237.694 84.468 238.647 85.0311C239.6 85.5942 240.663 85.946 241.763 86.0627C243.446 83.024 244.584 79.7147 245.128 76.2842C245.686 72.7911 245.034 69.212 243.278 66.141C235.796 63.6805 239.16 54.893 244.232 58.3076C246.642 59.9646 247.557 59.8589 247.747 58.2574C247.761 57.7947 247.9 57.3445 248.15 56.9546C248.399 56.5647 248.749 56.2495 249.163 56.0426C249.61 56.9844 250.325 57.7731 251.218 58.3097C252.111 58.8463 253.143 59.1068 254.185 59.0585C255.226 59.0102 256.229 58.6553 257.069 58.0382C257.909 57.4212 258.548 56.5697 258.905 55.5907C259.391 56.1041 259.975 56.5147 260.623 56.7984C261.27 57.0822 261.968 57.2332 262.675 57.2425C263.382 57.2519 264.083 57.1194 264.738 56.853C265.393 56.5865 265.988 56.1914 266.487 55.6911C267.73 58.6177 268.672 61.6629 269.299 64.7799C270.438 64.1397 271.3 63.0998 271.717 61.8613C272.133 60.6228 272.076 59.2738 271.556 58.075C271.212 57.2805 270.679 56.5826 270.002 56.0426C270.758 55.6592 271.415 55.1049 271.919 54.4237C272.424 53.7425 272.763 52.953 272.909 52.118Z" stroke="#242331" stroke-width="2" stroke-linejoin="round"/>
<path d="M268.34 83.2006L418.229 57.9932" stroke="#242331" stroke-width="2" stroke-linecap="round" stroke-linejoin="round"/>
<path d="M22.3913 124.477L240.823 87.8203" stroke="#242331" stroke-width="2" stroke-linecap="round" stroke-linejoin="round"/>
<path d="M253.075 106.801L298.016 147.173" stroke="#242331" stroke-width="2" stroke-linecap="round" stroke-linejoin="round"/>
<path d="M298.217 151.592C298.82 149.333 298.823 147.72 298.016 147.173C297.266 146.666 295.902 147.115 294.2 148.328C291.649 150.342 289.343 152.649 287.329 155.2" stroke="#242331" stroke-width="2" stroke-linecap="round" stroke-linejoin="round"/>
<path d="M110.414 211.096C93.4415 197.588 92.0355 197.186 78.5781 182.474C50.157 186.491 18.8762 195.981 5.61969 202.258C25.854 209.903 47.5261 212.99 69.0903 211.297L92.1386 232.035" stroke="#242331" stroke-width="2" stroke-linecap="round" stroke-linejoin="round"/>
<path d="M238.061 106.901L285.413 149.382" stroke="#242331" stroke-width="2" stroke-linecap="round" stroke-linejoin="round"/>
<path d="M262.415 183.579L231.784 157.618L250.334 186.483" stroke="#242331" stroke-width="2" stroke-linecap="round" stroke-linejoin="round"/>
<path d="M371.731 189.242C373.581 189.644 390.521 195.564 394.076 201.896C396.454 206.111 384.435 197.728 376.652 197.477" stroke="#242331" stroke-width="2" stroke-linecap="round" stroke-linejoin="round"/>
<path d="M370.074 194.776C374.794 196.484 385.981 201.209 388.904 206.526C391.547 211.352 382.033 202.509 370.626 202.158" stroke="#242331" stroke-width="2" stroke-linecap="round" stroke-linejoin="round"/>
<path d="M368.768 201.103C380.719 208.083 387.305 214.545 371.078 207.531C362.695 203.907 301.571 202.057 301.571 202.057C296.207 201.503 291.084 199.544 286.718 196.378L262.515 178" stroke="#242331" stroke-width="2" stroke-linecap="round" stroke-linejoin="round"/>
<path d="M281.596 150.538L306.201 172.381C306.201 172.381 367.864 183.93 372.584 185.278C377.304 186.626 388.608 189.491 391.917 193.262C393.677 195.27 383.988 191.808 378.108 191.504" stroke="#242331" stroke-width="2" stroke-linecap="round" stroke-linejoin="round"/>
<path d="M285.614 153.801C286.216 151.542 286.219 149.929 285.413 149.382C284.662 148.875 283.298 149.327 281.596 150.537C274.648 155.482 264.323 170.811 262.164 179.21C261.635 181.271 261.73 183.129 262.415 183.578C263.208 184.107 265.478 183.478 267.172 181.57" stroke="#242331" stroke-width="2" stroke-linecap="round" stroke-linejoin="round"/>
<path d="M185.687 199.948C197.81 200.458 209.737 196.75 219.431 189.453" stroke="#242331" stroke-width="2" stroke-linecap="round" stroke-linejoin="round"/>
<path d="M249.911 187.244L255.284 177.553" stroke="#242331" stroke-width="2" stroke-linecap="round" stroke-linejoin="round"/>
<path d="M252.271 102.028C248.957 106.849 242.881 104.74 234.496 96.6553" stroke="#242331" stroke-width="2" stroke-linecap="round" stroke-linejoin="round"/>
<path d="M198.484 261.014L237.508 217.573L194.525 287.572" stroke="#242331" stroke-width="2" stroke-linecap="round" stroke-linejoin="round"/>
<path d="M137.08 285.915C139.914 288.461 143.222 290.424 146.815 291.69C150.408 292.957 154.216 293.504 158.02 293.299C161.824 293.094 165.551 292.141 168.987 290.495C172.423 288.849 175.5 286.542 178.044 283.706L198.473 261.014L190.397 314.928L157.055 352.087C165.421 366.776 178.316 378.365 193.812 385.122L229.112 345.805C234.338 339.992 238.032 332.968 239.858 325.367C247.543 293.125 244.929 236.187 249.901 187.228C229.915 183.513 222.534 178.993 207.319 166.992C197.488 174.178 175.544 179.511 153.492 234.345L120.61 204.769C105.44 212.488 93.6812 225.571 87.6193 241.476L137.08 285.915Z" stroke="#242331" stroke-width="2" stroke-linecap="round" stroke-linejoin="round"/>
<path d="M254.713 86.4853C253.384 85.9895 252.086 85.4123 250.828 84.7568L253.379 90.3068" stroke="#242331" stroke-width="2" stroke-linecap="round" stroke-linejoin="round"/>
<path d="M256.791 123.723C253.091 113.046 250.02 96.7214 254.7 86.4856C273.713 93.4601 272.103 68.8103 266.532 55.7837M207.317 166.958C209.453 160.243 210.9 153.328 211.635 146.32C212.914 135.537 216.043 125.056 220.885 115.338C225.616 105.398 236.478 96.2325 242.028 85.6611C243.691 82.7568 244.747 79.5452 245.133 76.2208C245.693 72.7277 245.04 69.1481 243.283 66.0776C235.801 63.6171 239.181 54.8085 244.237 58.2442C246.655 59.8907 247.601 59.8008 247.752 58.194C247.89 57.3483 248.059 56.5448 248.257 55.7837" stroke="#242331" stroke-width="2" stroke-linecap="round" stroke-linejoin="round"/>
<path d="M168.163 339.744C177.245 353.894 190.171 365.163 205.427 372.233" stroke="#242331" stroke-width="2" stroke-linecap="round" stroke-linejoin="round"/>
<path d="M98.5659 251.167C107.002 235.838 117.547 223.248 131.406 214.51" stroke="#242331" stroke-width="2" stroke-linecap="round" stroke-linejoin="round"/>
<path d="M163.041 361.186C152.433 374.136 142.942 384.3 132.611 395.081C129.849 411.4 131.155 448.86 136.427 466.284C150.435 442.985 155.509 428.172 162.592 404.177L184.083 380.275" stroke="#242331" stroke-width="2" stroke-linecap="round" stroke-linejoin="round"/>
<path d="M70.1951 212.301C74.9352 204.69 80.7536 197.806 87.4687 191.864" stroke="#242331" stroke-width="2" stroke-linecap="round" stroke-linejoin="round"/>
<path d="M388.904 191.061C394.377 191.613 405.514 195.025 403.466 192.667C401.978 191.281 400.262 190.16 398.394 189.353C391.311 185.891 384.535 184.784 377.003 182.725L318.596 168.565L294.224 148.305" stroke="#242331" stroke-width="2" stroke-linecap="round" stroke-linejoin="round"/>
<path d="M202.107 197.99L157.065 264.172L113.53 229.675" stroke="#242331" stroke-width="2" stroke-linecap="round" stroke-linejoin="round"/>
<path d="M325.232 47.2974C325.571 49.3334 325.298 51.4242 324.448 53.3047C323.597 55.1853 322.207 56.771 320.454 57.8608C319.145 58.6778 317.671 59.194 316.138 59.3721C314.605 59.5502 313.052 59.3858 311.59 58.8908C310.128 58.3957 308.795 57.5823 307.686 56.5094C306.576 55.4364 305.719 54.1306 305.176 52.6861C304.632 51.2426 304.416 49.6965 304.541 48.1592C304.667 46.6219 305.131 45.1314 305.901 43.7951C306.672 42.4587 307.729 41.3097 308.996 40.4305C310.263 39.5514 311.71 38.9641 313.231 38.7108C315.961 38.2593 318.759 38.9101 321.009 40.5201C323.259 42.1302 324.778 44.5678 325.232 47.2974Z" stroke="#242331" stroke-width="2" stroke-linecap="round" stroke-linejoin="round"/>
<path d="M353.654 42.5772C353.993 44.6132 353.719 46.7039 352.869 48.5845C352.018 50.4651 350.628 52.0508 348.875 53.1406C347.566 53.9576 346.092 54.4738 344.559 54.6519C343.026 54.83 341.473 54.6656 340.011 54.1705C338.549 53.6755 337.216 52.8621 336.107 51.7892C334.997 50.7162 334.14 49.4104 333.597 47.9659C333.054 46.5224 332.837 44.9763 332.962 43.439C333.088 41.9016 333.552 40.4112 334.323 39.0749C335.093 37.7385 336.15 36.5895 337.417 35.7103C338.684 34.8312 340.131 34.2439 341.652 33.9905C344.382 33.539 347.18 34.1898 349.43 35.7999C351.681 37.41 353.2 39.8476 353.654 42.5772Z" stroke="#242331" stroke-width="2" stroke-linecap="round" stroke-linejoin="round"/>
<path d="M382.577 37.7568C382.916 39.7928 382.643 41.8836 381.792 43.7642C380.941 45.6447 379.551 47.2304 377.799 48.3202C376.047 49.4134 374.011 49.9622 371.948 49.897C369.884 49.8319 367.886 49.1558 366.208 47.9544C364.529 46.753 363.244 45.0803 362.517 43.1483C361.789 41.2162 361.652 39.1117 362.121 37.1014C362.508 35.4293 363.302 33.8785 364.432 32.5868C365.562 31.295 366.993 30.3022 368.599 29.6964C370.205 29.0907 371.935 28.8907 373.637 29.1142C375.339 29.3378 376.959 29.9779 378.354 30.9779C379.468 31.7749 380.415 32.7838 381.14 33.947C381.865 35.1102 382.353 36.4048 382.577 37.7568Z" stroke="#242331" stroke-width="2" stroke-linecap="round" stroke-linejoin="round"/>
<path d="M83.7027 1L64.5209 28.0152" stroke="white" stroke-width="2" stroke-linecap="round" stroke-linejoin="round"/>
<path d="M87.6193 24.0988L60.6543 4.91699" stroke="white" stroke-width="2" stroke-linecap="round" stroke-linejoin="round"/>
<path d="M7.52781 292.192L6.92524 292.393L25.4542 308.813L0.999973 335.677L14.1059 347.377L38.5601 320.463L57.0363 336.885L70.8478 271.858L7.52781 292.192Z" stroke="#242331" stroke-width="2" stroke-linecap="round" stroke-linejoin="round"/>
<path d="M330.907 329.25L292.041 317.198L324.73 294.501" stroke="#242331" stroke-width="2" stroke-linecap="round" stroke-linejoin="round"/>
<path d="M362.843 324.127L395.281 300.125L356.667 289.329" stroke="#242331" stroke-width="2" stroke-linecap="round" stroke-linejoin="round"/>
<path d="M350.691 275.018L336.48 344.213" stroke="#242331" stroke-width="2" stroke-linecap="round" stroke-linejoin="round"/>
<g filter="url(#filter0_d_1834_631)">
<path d="M36.3111 210.166L62.3617 370.777C63.291 376.255 65.2915 381.496 68.2487 386.2C71.2059 390.904 75.0618 394.979 79.5957 398.191C84.1291 401.403 89.2508 403.69 94.6683 404.923C100.086 406.155 105.693 406.309 111.17 405.374L132.054 401.862" stroke="#242331" stroke-width="2" stroke-linecap="round" stroke-linejoin="round" shape-rendering="crispEdges"/>
</g>
<g filter="url(#filter1_d_1834_631)">
<path d="M442.585 208.414L458.099 304.042C459.033 309.519 458.88 315.126 457.648 320.544C456.415 325.961 454.128 331.083 450.916 335.616C447.702 340.149 443.627 344.003 438.923 346.96C434.219 349.917 428.979 351.919 423.501 352.85L170.607 395.379" stroke="#242331" stroke-width="2" stroke-linecap="round" stroke-linejoin="round" shape-rendering="crispEdges"/>
</g>
<g filter="url(#filter2_d_1834_631)">
<path d="M186.647 41.9746L55.1307 64.0688C49.6535 65.0003 44.4135 67.0019 39.7101 69.9593C35.0067 72.9166 30.9321 76.7717 27.7191 81.3044C24.5062 85.837 22.2178 90.9583 20.9848 96.3757C19.7518 101.793 19.5984 107.4 20.5332 112.877L33.4145 192.305" stroke="#242331" stroke-width="2" stroke-linecap="round" stroke-linejoin="round" shape-rendering="crispEdges"/>
</g>
<g filter="url(#filter3_d_1834_631)">
<path d="M260.557 29.5558L367.462 11.595C372.939 10.6594 378.547 10.8124 383.964 12.0451C389.382 13.2777 394.503 15.566 399.036 18.7791C403.569 21.9922 407.424 26.067 410.381 30.7708C413.339 35.4745 415.34 40.7149 416.271 46.1925L436.095 168.403" stroke="#242331" stroke-width="2" stroke-linecap="round" stroke-linejoin="round" shape-rendering="crispEdges"/>
</g>
<path d="M142.704 384.435C148.235 392.033 154.949 398.696 162.589 404.169" stroke="#242331" stroke-width="2" stroke-linecap="round" stroke-linejoin="round"/>
<defs>
<filter id="filter0_d_1834_631" x="31.311" y="209.166" width="105.743" height="205.812" filterUnits="userSpaceOnUse" color-interpolation-filters="sRGB">
<feFlood flood-opacity="0" result="BackgroundImageFix"/>
<feColorMatrix in="SourceAlpha" type="matrix" values="0 0 0 0 0 0 0 0 0 0 0 0 0 0 0 0 0 0 127 0" result="hardAlpha"/>
<feOffset dy="4"/>
<feGaussianBlur stdDeviation="2"/>
<feComposite in2="hardAlpha" operator="out"/>
<feColorMatrix type="matrix" values="0 0 0 0 0 0 0 0 0 0 0 0 0 0 0 0 0 0 0.25 0"/>
<feBlend mode="normal" in2="BackgroundImageFix" result="effect1_dropShadow_1834_631"/>
<feBlend mode="normal" in="SourceGraphic" in2="effect1_dropShadow_1834_631" result="shape"/>
</filter>
<filter id="filter1_d_1834_631" x="165.607" y="207.414" width="298.095" height="196.966" filterUnits="userSpaceOnUse" color-interpolation-filters="sRGB">
<feFlood flood-opacity="0" result="BackgroundImageFix"/>
<feColorMatrix in="SourceAlpha" type="matrix" values="0 0 0 0 0 0 0 0 0 0 0 0 0 0 0 0 0 0 127 0" result="hardAlpha"/>
<feOffset dy="4"/>
<feGaussianBlur stdDeviation="2"/>
<feComposite in2="hardAlpha" operator="out"/>
<feColorMatrix type="matrix" values="0 0 0 0 0 0 0 0 0 0 0 0 0 0 0 0 0 0 0.25 0"/>
<feBlend mode="normal" in2="BackgroundImageFix" result="effect1_dropShadow_1834_631"/>
<feBlend mode="normal" in="SourceGraphic" in2="effect1_dropShadow_1834_631" result="shape"/>
</filter>
<filter id="filter2_d_1834_631" x="14.9303" y="40.9746" width="176.717" height="160.331" filterUnits="userSpaceOnUse" color-interpolation-filters="sRGB">
<feFlood flood-opacity="0" result="BackgroundImageFix"/>
<feColorMatrix in="SourceAlpha" type="matrix" values="0 0 0 0 0 0 0 0 0 0 0 0 0 0 0 0 0 0 127 0" result="hardAlpha"/>
<feOffset dy="4"/>
<feGaussianBlur stdDeviation="2"/>
<feComposite in2="hardAlpha" operator="out"/>
<feColorMatrix type="matrix" values="0 0 0 0 0 0 0 0 0 0 0 0 0 0 0 0 0 0 0.25 0"/>
<feBlend mode="normal" in2="BackgroundImageFix" result="effect1_dropShadow_1834_631"/>
<feBlend mode="normal" in="SourceGraphic" in2="effect1_dropShadow_1834_631" result="shape"/>
</filter>
<filter id="filter3_d_1834_631" x="255.556" y="9.99121" width="185.538" height="167.412" filterUnits="userSpaceOnUse" color-interpolation-filters="sRGB">
<feFlood flood-opacity="0" result="BackgroundImageFix"/>
<feColorMatrix in="SourceAlpha" type="matrix" values="0 0 0 0 0 0 0 0 0 0 0 0 0 0 0 0 0 0 127 0" result="hardAlpha"/>
<feOffset dy="4"/>
<feGaussianBlur stdDeviation="2"/>
<feComposite in2="hardAlpha" operator="out"/>
<feColorMatrix type="matrix" values="0 0 0 0 0 0 0 0 0 0 0 0 0 0 0 0 0 0 0.25 0"/>
<feBlend mode="normal" in2="BackgroundImageFix" result="effect1_dropShadow_1834_631"/>
<feBlend mode="normal" in="SourceGraphic" in2="effect1_dropShadow_1834_631" result="shape"/>
</filter>
</defs>
</svg>
